<ttFont>
<head>
    <!-- Most of this table will be recalculated by the compiler -->
    <tableVersion value="1.0"/>
    <fontRevision value="2.82"/>
    <checkSumAdjustment value="0x7b86e499"/>
    <magicNumber value="0x5f0f3cf5"/>
    <flags value="00001000 00011011"/>
    <unitsPerEm value="2048"/>
    <created value="Mon Aug  6 13:54:50 1990"/>
    <modified value="Tue May  9 12:19:20 2000"/>
    <xMin value="-1361"/>
    <yMin value="-665"/>
    <xMax value="4154"/>
    <yMax value="2124"/>
    <macStyle value="00000000 00000000"/>
    <lowestRecPPEM value="9"/>
    <fontDirectionHint value="1"/>
    <indexToLocFormat value="1"/>
    <glyphDataFormat value="0"/>
  </head>
    <TTGlyph name=".notdef" xMin="256" yMin="0" xMax="1280" yMax="1280">
      <contour>
        <pt x="256" y="0" on="1"/>
        <pt x="256" y="1280" on="1"/>
        <pt x="1280" y="1280" on="1"/>
        <pt x="1280" y="0" on="1"/>
      </contour>
      <contour>
        <pt x="288" y="32" on="1"/>
        <pt x="1248" y="32" on="1"/>
        <pt x="1248" y="1248" on="1"/>
        <pt x="288" y="1248" on="1"/>
      </contour>
    </TTGlyph>
    <TTGlyph name=".notdef#1" xMin="-548" yMin="1677" xMax="-187" yMax="1835">
      <contour>
        <pt x="-187" y="1677" on="1"/>
        <pt x="-317" y="1677" on="1"/>
        <pt x="-548" y="1835" on="1"/>
        <pt x="-322" y="1835" on="1"/>
      </contour>
    </TTGlyph>
    <TTGlyph name=".notdef#10" xMin="-258" yMin="1496" xMax="258" yMax="1844">
      <contour>
        <pt x="258" y="1496" on="1"/>
        <pt x="123" y="1496" on="1"/>
        <pt x="123" y="1643" on="1"/>
        <pt x="258" y="1643" on="1"/>
      </contour>
      <contour>
        <pt x="228" y="1844" on="1"/>
        <pt x="66" y="1667" on="1"/>
        <pt x="-72" y="1667" on="1"/>
        <pt x="-228" y="1844" on="1"/>
        <pt x="-79" y="1844" on="1"/>
        <pt x="2" y="1746" on="1"/>
        <pt x="81" y="1844" on="1"/>
      </contour>
      <contour>
        <pt x="-123" y="1496" on="1"/>
        <pt x="-258" y="1496" on="1"/>
        <pt x="-258" y="1643" on="1"/>
        <pt x="-123" y="1643" on="1"/>
      </contour>
    </TTGlyph>
    <TTGlyph name=".notdef#11" xMin="-258" yMin="1496" xMax="258" yMax="1844">
      <contour>
        <pt x="258" y="1496" on="1"/>
        <pt x="123" y="1496" on="1"/>
        <pt x="123" y="1643" on="1"/>
        <pt x="258" y="1643" on="1"/>
      </contour>
      <contour>
        <pt x="108" y="1666" on="1"/>
        <pt x="-22" y="1666" on="1"/>
        <pt x="-253" y="1844" on="1"/>
        <pt x="-27" y="1844" on="1"/>
      </contour>
      <contour>
        <pt x="-123" y="1496" on="1"/>
        <pt x="-258" y="1496" on="1"/>
        <pt x="-258" y="1643" on="1"/>
        <pt x="-123" y="1643" on="1"/>
      </contour>
    </TTGlyph>
    <TTGlyph name=".notdef#2" xMin="-977" yMin="1677" xMax="-616" yMax="1835">
      <contour>
        <pt x="-616" y="1677" on="1"/>
        <pt x="-746" y="1677" on="1"/>
        <pt x="-977" y="1835" on="1"/>
        <pt x="-751" y="1835" on="1"/>
      </contour>
    </TTGlyph>
    <TTGlyph name=".notdef#3" xMin="-858" yMin="1547" xMax="-482" yMax="1827">
      <contour>
        <pt x="-482" y="1547" on="1"/>
        <pt x="-627" y="1547" on="1"/>
        <pt x="-858" y="1827" on="1"/>
        <pt x="-617" y="1827" on="1"/>
      </contour>
    </TTGlyph>
    <TTGlyph name=".notdef#4" xMin="-299" yMin="1492" xMax="284" yMax="1638">
      <contour>
        <pt x="-252" y="1571" on="1"/>
        <pt x="-282" y="1601" on="0"/>
        <pt x="-299" y="1638" on="1"/>
        <pt x="-221" y="1638" on="1"/>
        <pt x="-197" y="1609" on="0"/>
        <pt x="-138" y="1590" on="1"/>
        <pt x="-74" y="1570" on="0"/>
        <pt x="-9" y="1570" on="1"/>
        <pt x="58" y="1570" on="0"/>
        <pt x="122" y="1590" on="1"/>
        <pt x="181" y="1608" on="0"/>
        <pt x="205" y="1638" on="1"/>
        <pt x="284" y="1638" on="1"/>
        <pt x="253" y="1566" on="0"/>
        <pt x="180" y="1530" on="1"/>
        <pt x="103" y="1492" on="0"/>
        <pt x="-9" y="1492" on="1"/>
        <pt x="-44" y="1492" on="0"/>
        <pt x="-75" y="1496" on="1"/>
        <pt x="-193" y="1510" on="0"/>
      </contour>
    </TTGlyph>
    <TTGlyph name=".notdef#5" xMin="-299" yMin="1492" xMax="313" yMax="1615">
      <contour>
        <pt x="7" y="1559" on="1"/>
        <pt x="-124" y="1492" on="1"/>
        <pt x="-299" y="1492" on="1"/>
        <pt x="-90" y="1615" on="1"/>
        <pt x="105" y="1615" on="1"/>
        <pt x="313" y="1492" on="1"/>
        <pt x="138" y="1492" on="1"/>
      </contour>
    </TTGlyph>
    <TTGlyph name=".notdef#6" xMin="-653" yMin="1194" xMax="-277" yMax="1474">
      <contour>
        <pt x="-518" y="1474" on="1"/>
        <pt x="-277" y="1474" on="1"/>
        <pt x="-508" y="1194" on="1"/>
        <pt x="-653" y="1194" on="1"/>
      </contour>
    </TTGlyph>
    <TTGlyph name=".notdef#7" xMin="-504" yMin="1194" xMax="-128" yMax="1474">
      <contour>
        <pt x="-128" y="1194" on="1"/>
        <pt x="-273" y="1194" on="1"/>
        <pt x="-504" y="1474" on="1"/>
        <pt x="-263" y="1474" on="1"/>
      </contour>
    </TTGlyph>
    <TTGlyph name=".notdef#8" xMin="-258" yMin="1496" xMax="258" yMax="1843">
      <contour>
        <pt x="258" y="1726" on="1"/>
        <pt x="-258" y="1726" on="1"/>
        <pt x="-258" y="1843" on="1"/>
        <pt x="258" y="1843" on="1"/>
      </contour>
      <contour>
        <pt x="258" y="1496" on="1"/>
        <pt x="123" y="1496" on="1"/>
        <pt x="123" y="1643" on="1"/>
        <pt x="258" y="1643" on="1"/>
      </contour>
      <contour>
        <pt x="-123" y="1496" on="1"/>
        <pt x="-258" y="1496" on="1"/>
        <pt x="-258" y="1643" on="1"/>
        <pt x="-123" y="1643" on="1"/>
      </contour>
    </TTGlyph>
    <TTGlyph name=".notdef#9" xMin="-258" yMin="1496" xMax="258" yMax="1844">
      <contour>
        <pt x="253" y="1844" on="1"/>
        <pt x="22" y="1666" on="1"/>
        <pt x="-108" y="1666" on="1"/>
        <pt x="27" y="1844" on="1"/>
      </contour>
      <contour>
        <pt x="258" y="1496" on="1"/>
        <pt x="123" y="1496" on="1"/>
        <pt x="123" y="1643" on="1"/>
        <pt x="258" y="1643" on="1"/>
      </contour>
      <contour>
        <pt x="-123" y="1496" on="1"/>
        <pt x="-258" y="1496" on="1"/>
        <pt x="-258" y="1643" on="1"/>
        <pt x="-123" y="1643" on="1"/>
      </contour>
    </TTGlyph>
    <TTGlyph name="A" xMin="-3" yMin="0" xMax="1369" yMax="1466">
      <contour>
        <pt x="-3" y="0" on="1"/>
        <pt x="560" y="1466" on="1"/>
        <pt x="769" y="1466" on="1"/>
        <pt x="1369" y="0" on="1"/>
        <pt x="1148" y="0" on="1"/>
        <pt x="977" y="444" on="1"/>
        <pt x="364" y="444" on="1"/>
        <pt x="203" y="0" on="1"/>
      </contour>
      <contour>
        <pt x="420" y="602" on="1"/>
        <pt x="917" y="602" on="1"/>
        <pt x="764" y="1008" on="1"/>
        <pt x="694" y="1193" on="0"/>
        <pt x="660" y="1312" on="1"/>
        <pt x="632" y="1171" on="0"/>
        <pt x="581" y="1032" on="1"/>
      </contour>
    </TTGlyph>
    <TTGlyph name="AE" xMin="1" yMin="0" xMax="1936" yMax="1466">
      <contour>
        <pt x="1" y="0" on="1"/>
        <pt x="706" y="1466" on="1"/>
        <pt x="1909" y="1466" on="1"/>
        <pt x="1909" y="1293" on="1"/>
        <pt x="1172" y="1293" on="1"/>
        <pt x="1172" y="842" on="1"/>
        <pt x="1857" y="842" on="1"/>
        <pt x="1857" y="670" on="1"/>
        <pt x="1172" y="670" on="1"/>
        <pt x="1172" y="173" on="1"/>
        <pt x="1936" y="173" on="1"/>
        <pt x="1936" y="0" on="1"/>
        <pt x="977" y="0" on="1"/>
        <pt x="977" y="423" on="1"/>
        <pt x="411" y="423" on="1"/>
        <pt x="211" y="0" on="1"/>
      </contour>
      <contour>
        <pt x="493" y="595" on="1"/>
        <pt x="977" y="595" on="1"/>
        <pt x="977" y="1293" on="1"/>
        <pt x="832" y="1293" on="1"/>
      </contour>
    </TTGlyph>
    <TTGlyph name="AEacute" xMin="1" yMin="0" xMax="1936" yMax="1836">
      <component glyphName="AE" x="0" y="0" flags="0x204"/>
      <component glyphName="acute" x="659" y="362" flags="0x4"/>
    </TTGlyph>
    <TTGlyph name="Aacute" xMin="-3" yMin="0" xMax="1369" yMax="1836">
      <component glyphName="A" x="0" y="0" flags="0x204"/>
      <component glyphName="acute" x="319" y="362" flags="0x4"/>
    </TTGlyph>
    <TTGlyph name="Abreve" xMin="-3" yMin="0" xMax="1369" yMax="1815">
      <component glyphName="A" x="0" y="0" flags="0x204"/>
      <component glyphName="breve" x="338" y="351" flags="0x4"/>
    </TTGlyph>
    <TTGlyph name="Abreveacute" xMin="-3" yMin="0" xMax="1369" yMax="1835">
      <component glyphName="A" x="0" y="0" flags="0x204"/>
      <component glyphName=".notdef#4" x="683" y="0" flags="0x4"/>
      <component glyphName="f006" x="991" y="0" flags="0x4"/>
    </TTGlyph>
    <TTGlyph name="Abrevedotbelow" xMin="-3" yMin="-325" xMax="1369" yMax="1638">
      <component glyphName="A" x="0" y="0" flags="0x204"/>
      <component glyphName=".notdef#4" x="683" y="0" flags="0x4"/>
      <component glyphName="f02c" x="820" y="0" flags="0x4"/>
    </TTGlyph>
    <TTGlyph name="Abrevegrave" xMin="-3" yMin="0" xMax="1369" yMax="1835">
      <component glyphName="A" x="0" y="0" flags="0x204"/>
      <component glyphName=".notdef#4" x="683" y="0" flags="0x4"/>
      <component glyphName=".notdef#1" x="945" y="0" flags="0x4"/>
    </TTGlyph>
    <TTGlyph name="Abrevehookabove" xMin="-3" yMin="0" xMax="1369" yMax="1836">
      <component glyphName="A" x="0" y="0" flags="0x204"/>
      <component glyphName=".notdef#4" x="683" y="0" flags="0x4"/>
      <component glyphName="f010" x="980" y="0" flags="0x4"/>
    </TTGlyph>
    <TTGlyph name="Abrevetilde" xMin="-3" yMin="0" xMax="1369" yMax="1835">
      <component glyphName="A" x="0" y="0" flags="0x204"/>
      <component glyphName=".notdef#4" x="683" y="0" flags="0x4"/>
      <component glyphName="f02d" x="1360" y="0" flags="0x4"/>
    </TTGlyph>
    <TTGlyph name="Acircumflex" xMin="-3" yMin="0" xMax="1369" yMax="1836">
      <component glyphName="A" x="0" y="0" flags="0x204"/>
      <component glyphName="circumflex" x="320" y="362" flags="0x4"/>
    </TTGlyph>
    <TTGlyph name="Acircumflexacute" xMin="-3" yMin="0" xMax="1369" yMax="1835">
      <component glyphName="A" x="0" y="0" flags="0x204"/>
      <component glyphName=".notdef#5" x="653" y="25" flags="0x4"/>
      <component glyphName="f006" x="991" y="0" flags="0x4"/>
    </TTGlyph>
    <TTGlyph name="Acircumflexdotbelow" xMin="-3" yMin="-325" xMax="1369" yMax="1640">
      <component glyphName="A" x="0" y="0" flags="0x204"/>
      <component glyphName=".notdef#5" x="653" y="25" flags="0x4"/>
      <component glyphName="f02c" x="820" y="0" flags="0x4"/>
    </TTGlyph>
    <TTGlyph name="Acircumflexgrave" xMin="-3" yMin="0" xMax="1369" yMax="1835">
      <component glyphName="A" x="0" y="0" flags="0x204"/>
      <component glyphName=".notdef#5" x="653" y="25" flags="0x4"/>
      <component glyphName=".notdef#1" x="945" y="0" flags="0x4"/>
    </TTGlyph>
    <TTGlyph name="Acircumflexhookabove" xMin="-3" yMin="0" xMax="1369" yMax="1836">
      <component glyphName="A" x="0" y="0" flags="0x204"/>
      <component glyphName=".notdef#5" x="653" y="25" flags="0x4"/>
      <component glyphName="f010" x="980" y="0" flags="0x4"/>
    </TTGlyph>
    <TTGlyph name="Acircumflextilde" xMin="-3" yMin="0" xMax="1369" yMax="1835">
      <component glyphName="A" x="0" y="0" flags="0x204"/>
      <component glyphName=".notdef#5" x="653" y="25" flags="0x4"/>
      <component glyphName="f02d" x="1340" y="0" flags="0x4"/>
    </TTGlyph>
    <TTGlyph name="Adieresis" xMin="-3" yMin="0" xMax="1369" yMax="1761">
      <component glyphName="A" x="0" y="0" flags="0x204"/>
      <component glyphName="dieresis" x="318" y="286" flags="0x4"/>
    </TTGlyph>
    <TTGlyph name="Adotbelow" xMin="-3" yMin="-325" xMax="1369" yMax="1466">
      <component glyphName="A" x="0" y="0" flags="0x204"/>
      <component glyphName="f02c" x="820" y="0" flags="0x4"/>
    </TTGlyph>
    <TTGlyph name="Agrave" xMin="-3" yMin="0" xMax="1369" yMax="1836">
      <component glyphName="A" x="0" y="0" flags="0x204"/>
      <component glyphName="grave" x="359" y="362" flags="0x4"/>
    </TTGlyph>
    <TTGlyph name="Ahookabove" xMin="-3" yMin="0" xMax="1369" yMax="1836">
      <component glyphName="A" x="0" y="0" flags="0x204"/>
      <component glyphName="combininghookabove" x="940" y="0" flags="0x4"/>
    </TTGlyph>
    <TTGlyph name="Alpha" xMin="-3" yMin="0" xMax="1369" yMax="1466">
      <component glyphName="A" x="0" y="0" flags="0x204"/>
    </TTGlyph>
    <TTGlyph name="Alphatonos" xMin="-1" yMin="0" xMax="1371" yMax="1466">
      <contour>
        <pt x="-1" y="0" on="1"/>
        <pt x="562" y="1466" on="1"/>
        <pt x="771" y="1466" on="1"/>
        <pt x="1371" y="0" on="1"/>
        <pt x="1150" y="0" on="1"/>
        <pt x="979" y="444" on="1"/>
        <pt x="366" y="444" on="1"/>
        <pt x="205" y="0" on="1"/>
      </contour>
      <contour>
        <pt x="422" y="602" on="1"/>
        <pt x="919" y="602" on="1"/>
        <pt x="766" y="1008" on="1"/>
        <pt x="693" y="1202" on="0"/>
        <pt x="662" y="1312" on="1"/>
        <pt x="634" y="1171" on="0"/>
        <pt x="583" y="1032" on="1"/>
      </contour>
      <contour>
        <pt x="54" y="1186" on="1"/>
        <pt x="187" y="1466" on="1"/>
        <pt x="423" y="1466" on="1"/>
        <pt x="203" y="1186" on="1"/>
      </contour>
    </TTGlyph>
    <TTGlyph name="Amacron" xMin="-3" yMin="0" xMax="1369" yMax="1726">
      <component glyphName="A" x="0" y="0" flags="0x204"/>
      <component glyphName="macron" x="330" y="351" flags="0x4"/>
    </TTGlyph>
    <TTGlyph name="Aogonek" xMin="-3" yMin="-416" xMax="1548" yMax="1466">
      <component glyphName="A" x="0" y="0" flags="0x204"/>
      <component glyphName="ogonek" x="927" y="10" flags="0x4"/>
    </TTGlyph>
    <TTGlyph name="Aring" xMin="-3" yMin="0" xMax="1369" yMax="1780">
      <component glyphName="A" x="0" y="0" flags="0x204"/>
      <component glyphName="ring" x="319" y="263" flags="0x4"/>
    </TTGlyph>
    <TTGlyph name="Aringacute" xMin="-3" yMin="0" xMax="1369" yMax="2124">
      <component glyphName="Aring" x="0" y="0" flags="0x214"/>
      <component glyphName="acute" x="339" y="650" flags="0x14"/>
    </TTGlyph>
    <TTGlyph name="Atilde" xMin="-3" yMin="0" xMax="1369" yMax="1787">
      <component glyphName="A" x="0" y="0" flags="0x204"/>
      <component glyphName="tilde" x="342" y="337" flags="0x4"/>
    </TTGlyph>
    <TTGlyph name="B" xMin="150" yMin="0" xMax="1257" yMax="1466">
      <contour>
        <pt x="150" y="0" on="1"/>
        <pt x="150" y="1466" on="1"/>
        <pt x="700" y="1466" on="1"/>
        <pt x="868" y="1466" on="0"/>
        <pt x="1071" y="1377" on="0"/>
        <pt x="1186" y="1192" on="0"/>
        <pt x="1186" y="1091" on="1"/>
        <pt x="1186" y="997" on="0"/>
        <pt x="1084" y="831" on="0"/>
        <pt x="981" y="780" on="1"/>
        <pt x="1114" y="741" on="0"/>
        <pt x="1257" y="553" on="0"/>
        <pt x="1257" y="425" on="1"/>
        <pt x="1257" y="322" on="0"/>
        <pt x="1170" y="145" on="0"/>
        <pt x="1042" y="49" on="0"/>
        <pt x="849" y="0" on="0"/>
        <pt x="709" y="0" on="1"/>
      </contour>
      <contour>
        <pt x="344" y="850" on="1"/>
        <pt x="661" y="850" on="1"/>
        <pt x="790" y="850" on="0"/>
        <pt x="846" y="867" on="1"/>
        <pt x="920" y="889" on="0"/>
        <pt x="995" y="991" on="0"/>
        <pt x="995" y="1068" on="1"/>
        <pt x="995" y="1141" on="0"/>
        <pt x="925" y="1252" on="0"/>
        <pt x="795" y="1293" on="0"/>
        <pt x="637" y="1293" on="1"/>
        <pt x="344" y="1293" on="1"/>
      </contour>
      <contour>
        <pt x="344" y="173" on="1"/>
        <pt x="709" y="173" on="1"/>
        <pt x="803" y="173" on="0"/>
        <pt x="841" y="180" on="1"/>
        <pt x="908" y="192" on="0"/>
        <pt x="998" y="248" on="0"/>
        <pt x="1056" y="355" on="0"/>
        <pt x="1056" y="425" on="1"/>
        <pt x="1056" y="507" on="0"/>
        <pt x="972" y="628" on="0"/>
        <pt x="823" y="677" on="0"/>
        <pt x="683" y="677" on="1"/>
        <pt x="344" y="677" on="1"/>
      </contour>
    </TTGlyph>
    <TTGlyph name="Beta" xMin="150" yMin="0" xMax="1257" yMax="1466">
      <component glyphName="B" x="0" y="0" flags="0x204"/>
    </TTGlyph>
    <TTGlyph name="C" xMin="102" yMin="-25" xMax="1398" yMax="1491">
      <contour>
        <pt x="1204" y="514" on="1"/>
        <pt x="1398" y="465" on="1"/>
        <pt x="1337" y="226" on="0"/>
        <pt x="1020" y="-25" on="0"/>
        <pt x="791" y="-25" on="1"/>
        <pt x="554" y="-25" on="0"/>
        <pt x="257" y="168" on="0"/>
        <pt x="102" y="534" on="0"/>
        <pt x="102" y="744" on="1"/>
        <pt x="102" y="973" on="0"/>
        <pt x="277" y="1314" on="0"/>
        <pt x="600" y="1491" on="0"/>
        <pt x="794" y="1491" on="1"/>
        <pt x="1014" y="1491" on="0"/>
        <pt x="1314" y="1267" on="0"/>
        <pt x="1373" y="1064" on="1"/>
        <pt x="1182" y="1019" on="1"/>
        <pt x="1131" y="1179" on="0"/>
        <pt x="937" y="1325" on="0"/>
        <pt x="790" y="1325" on="1"/>
        <pt x="621" y="1325" on="0"/>
        <pt x="394" y="1163" on="0"/>
        <pt x="302" y="890" on="0"/>
        <pt x="302" y="745" on="1"/>
        <pt x="302" y="558" on="0"/>
        <pt x="411" y="279" on="0"/>
        <pt x="641" y="141" on="0"/>
        <pt x="775" y="141" on="1"/>
        <pt x="938" y="141" on="0"/>
        <pt x="1164" y="329" on="0"/>
      </contour>
    </TTGlyph>
    <TTGlyph name="Cacute" xMin="102" yMin="-25" xMax="1398" yMax="1836">
      <component glyphName="C" x="0" y="0" flags="0x204"/>
      <component glyphName="acute" x="441" y="362" flags="0x4"/>
    </TTGlyph>
    <TTGlyph name="Ccaron" xMin="102" yMin="-25" xMax="1398" yMax="1830">
      <component glyphName="C" x="0" y="0" flags="0x204"/>
      <component glyphName="caron" x="432" y="356" flags="0x4"/>
    </TTGlyph>
    <TTGlyph name="Ccedilla" xMin="102" yMin="-421" xMax="1398" yMax="1491">
      <component glyphName="C" x="0" y="0" flags="0x204"/>
      <component glyphName="cedilla" x="404" y="0" flags="0x4"/>
    </TTGlyph>
    <TTGlyph name="Ccircumflex" xMin="102" yMin="-25" xMax="1398" yMax="1830">
      <component glyphName="C" x="0" y="0" flags="0x204"/>
      <component glyphName="circumflex" x="432" y="356" flags="0x4"/>
    </TTGlyph>
    <TTGlyph name="Cdot" xMin="102" yMin="-25" xMax="1398" yMax="1818">
      <component glyphName="C" x="0" y="0" flags="0x204"/>
      <component glyphName="dotaccent" x="432" y="400" flags="0x4"/>
    </TTGlyph>
    <TTGlyph name="Chi" xMin="9" yMin="0" xMax="1353" yMax="1466">
      <component glyphName="X" x="0" y="0" flags="0x204"/>
    </TTGlyph>
    <TTGlyph name="D" xMin="158" yMin="0" xMax="1370" yMax="1466">
      <contour>
        <pt x="158" y="0" on="1"/>
        <pt x="158" y="1466" on="1"/>
        <pt x="663" y="1466" on="1"/>
        <pt x="834" y="1466" on="0"/>
        <pt x="924" y="1445" on="1"/>
        <pt x="1050" y="1416" on="0"/>
        <pt x="1139" y="1340" on="1"/>
        <pt x="1255" y="1242" on="0"/>
        <pt x="1370" y="937" on="0"/>
        <pt x="1370" y="741" on="1"/>
        <pt x="1370" y="574" on="0"/>
        <pt x="1292" y="316" on="0"/>
        <pt x="1170" y="147" on="0"/>
        <pt x="1025" y="50" on="0"/>
        <pt x="820" y="0" on="0"/>
        <pt x="687" y="0" on="1"/>
      </contour>
      <contour>
        <pt x="352" y="173" on="1"/>
        <pt x="665" y="173" on="1"/>
        <pt x="810" y="173" on="0"/>
        <pt x="975" y="227" on="0"/>
        <pt x="1024" y="276" on="1"/>
        <pt x="1093" y="345" on="0"/>
        <pt x="1170" y="578" on="0"/>
        <pt x="1170" y="744" on="1"/>
        <pt x="1170" y="974" on="0"/>
        <pt x="1019" y="1221" on="0"/>
        <pt x="911" y="1263" on="1"/>
        <pt x="833" y="1293" on="0"/>
        <pt x="660" y="1293" on="1"/>
        <pt x="352" y="1293" on="1"/>
      </contour>
    </TTGlyph>
    <TTGlyph name="Dcaron" xMin="158" yMin="0" xMax="1370" yMax="1830">
      <component glyphName="D" x="0" y="0" flags="0x204"/>
      <component glyphName="caron" x="241" y="356" flags="0x4"/>
    </TTGlyph>
    <TTGlyph name="Delta" xMin="26" yMin="0" xMax="1226" yMax="1387">
      <contour>
        <pt x="1226" y="0" on="1"/>
        <pt x="26" y="0" on="1"/>
        <pt x="654" y="1387" on="1"/>
      </contour>
      <contour>
        <pt x="990" y="82" on="1"/>
        <pt x="591" y="1049" on="1"/>
        <pt x="151" y="82" on="1"/>
      </contour>
    </TTGlyph>
    <TTGlyph name="Delta#1" xMin="-2" yMin="0" xMax="1370" yMax="1466">
      <contour>
        <pt x="-2" y="0" on="1"/>
        <pt x="561" y="1466" on="1"/>
        <pt x="770" y="1466" on="1"/>
        <pt x="1370" y="0" on="1"/>
      </contour>
      <contour>
        <pt x="267" y="173" on="1"/>
        <pt x="1082" y="173" on="1"/>
        <pt x="765" y="1008" on="1"/>
        <pt x="694" y="1196" on="0"/>
        <pt x="661" y="1312" on="1"/>
        <pt x="634" y="1176" on="0"/>
        <pt x="582" y="1032" on="1"/>
      </contour>
    </TTGlyph>
    <TTGlyph name="Dslash" xMin="-3" yMin="0" xMax="1370" yMax="1466">
      <contour>
        <pt x="158" y="0" on="1"/>
        <pt x="158" y="667" on="1"/>
        <pt x="-3" y="667" on="1"/>
        <pt x="-3" y="799" on="1"/>
        <pt x="158" y="799" on="1"/>
        <pt x="158" y="1466" on="1"/>
        <pt x="664" y="1466" on="1"/>
        <pt x="834" y="1466" on="0"/>
        <pt x="924" y="1445" on="1"/>
        <pt x="1050" y="1416" on="0"/>
        <pt x="1139" y="1340" on="1"/>
        <pt x="1255" y="1242" on="0"/>
        <pt x="1370" y="937" on="0"/>
        <pt x="1370" y="741" on="1"/>
        <pt x="1370" y="517" on="0"/>
        <pt x="1228" y="194" on="0"/>
        <pt x="1030" y="48" on="0"/>
        <pt x="901" y="17" on="1"/>
        <pt x="830" y="0" on="0"/>
        <pt x="687" y="0" on="1"/>
      </contour>
      <contour>
        <pt x="352" y="173" on="1"/>
        <pt x="665" y="173" on="1"/>
        <pt x="811" y="173" on="0"/>
        <pt x="975" y="227" on="0"/>
        <pt x="1023" y="275" on="1"/>
        <pt x="1092" y="344" on="0"/>
        <pt x="1170" y="576" on="0"/>
        <pt x="1170" y="743" on="1"/>
        <pt x="1170" y="915" on="0"/>
        <pt x="1093" y="1121" on="0"/>
        <pt x="969" y="1245" on="0"/>
        <pt x="817" y="1293" on="0"/>
        <pt x="660" y="1293" on="1"/>
        <pt x="352" y="1293" on="1"/>
        <pt x="352" y="799" on="1"/>
        <pt x="756" y="799" on="1"/>
        <pt x="756" y="667" on="1"/>
        <pt x="352" y="667" on="1"/>
      </contour>
    </TTGlyph>
    <TTGlyph name="E" xMin="162" yMin="0" xMax="1256" yMax="1466">
      <contour>
        <pt x="162" y="0" on="1"/>
        <pt x="162" y="1466" on="1"/>
        <pt x="1222" y="1466" on="1"/>
        <pt x="1222" y="1293" on="1"/>
        <pt x="356" y="1293" on="1"/>
        <pt x="356" y="844" on="1"/>
        <pt x="1167" y="844" on="1"/>
        <pt x="1167" y="672" on="1"/>
        <pt x="356" y="672" on="1"/>
        <pt x="356" y="173" on="1"/>
        <pt x="1256" y="173" on="1"/>
        <pt x="1256" y="0" on="1"/>
      </contour>
    </TTGlyph>
    <TTGlyph name="Eacute" xMin="162" yMin="0" xMax="1256" yMax="1836">
      <component glyphName="E" x="0" y="0" flags="0x204"/>
      <component glyphName="acute" x="340" y="362" flags="0x4"/>
    </TTGlyph>
    <TTGlyph name="Ebreve" xMin="162" yMin="0" xMax="1256" yMax="1826">
      <component glyphName="E" x="0" y="0" flags="0x204"/>
      <component glyphName="breve" x="363" y="362" flags="0x4"/>
    </TTGlyph>
    <TTGlyph name="Ecaron" xMin="162" yMin="0" xMax="1256" yMax="1830">
      <component glyphName="E" x="0" y="0" flags="0x204"/>
      <component glyphName="caron" x="307" y="356" flags="0x4"/>
    </TTGlyph>
    <TTGlyph name="Ecircumflex" xMin="162" yMin="0" xMax="1256" yMax="1836">
      <component glyphName="E" x="0" y="0" flags="0x204"/>
      <component glyphName="circumflex" x="363" y="362" flags="0x4"/>
    </TTGlyph>
    <TTGlyph name="Ecircumflexacute" xMin="162" yMin="0" xMax="1256" yMax="1835">
      <component glyphName="E" x="0" y="0" flags="0x204"/>
      <component glyphName=".notdef#5" x="683" y="25" flags="0x4"/>
      <component glyphName="f006" x="1021" y="0" flags="0x4"/>
    </TTGlyph>
    <TTGlyph name="Ecircumflexdotbelow" xMin="162" yMin="-325" xMax="1256" yMax="1640">
      <component glyphName="E" x="0" y="0" flags="0x204"/>
      <component glyphName=".notdef#5" x="683" y="25" flags="0x4"/>
      <component glyphName="f02c" x="860" y="0" flags="0x4"/>
    </TTGlyph>
    <TTGlyph name="Ecircumflexgrave" xMin="162" yMin="0" xMax="1256" yMax="1835">
      <component glyphName="E" x="0" y="0" flags="0x204"/>
      <component glyphName=".notdef#5" x="683" y="25" flags="0x4"/>
      <component glyphName=".notdef#1" x="975" y="0" flags="0x4"/>
    </TTGlyph>
    <TTGlyph name="Ecircumflexhookabove" xMin="162" yMin="0" xMax="1256" yMax="1836">
      <component glyphName="E" x="0" y="0" flags="0x204"/>
      <component glyphName=".notdef#5" x="683" y="25" flags="0x4"/>
      <component glyphName="f010" x="1000" y="0" flags="0x4"/>
    </TTGlyph>
    <TTGlyph name="Ecircumflextilde" xMin="162" yMin="0" xMax="1256" yMax="1835">
      <component glyphName="E" x="0" y="0" flags="0x204"/>
      <component glyphName=".notdef#5" x="683" y="25" flags="0x4"/>
      <component glyphName="f02d" x="1360" y="0" flags="0x4"/>
    </TTGlyph>
    <TTGlyph name="Edieresis" xMin="162" yMin="0" xMax="1256" yMax="1761">
      <component glyphName="E" x="0" y="0" flags="0x204"/>
      <component glyphName="dieresis" x="364" y="286" flags="0x4"/>
    </TTGlyph>
    <TTGlyph name="Edot" xMin="162" yMin="0" xMax="1256" yMax="1780">
      <component glyphName="E" x="0" y="0" flags="0x204"/>
      <component glyphName="dotaccent" x="385" y="362" flags="0x4"/>
    </TTGlyph>
    <TTGlyph name="Edotbelow" xMin="162" yMin="-325" xMax="1256" yMax="1466">
      <component glyphName="E" x="0" y="0" flags="0x204"/>
      <component glyphName="f02c" x="860" y="0" flags="0x4"/>
    </TTGlyph>
    <TTGlyph name="Egrave" xMin="162" yMin="0" xMax="1256" yMax="1836">
      <component glyphName="E" x="0" y="0" flags="0x204"/>
      <component glyphName="grave" x="385" y="362" flags="0x4"/>
    </TTGlyph>
    <TTGlyph name="Ehookabove" xMin="162" yMin="0" xMax="1256" yMax="1836">
      <component glyphName="E" x="0" y="0" flags="0x204"/>
      <component glyphName="combininghookabove" x="980" y="0" flags="0x4"/>
    </TTGlyph>
    <TTGlyph name="Emacron" xMin="162" yMin="0" xMax="1256" yMax="1737">
      <component glyphName="E" x="0" y="0" flags="0x204"/>
      <component glyphName="macron" x="385" y="362" flags="0x4"/>
    </TTGlyph>
    <TTGlyph name="Eng" xMin="165" yMin="-25" xMax="1373" yMax="1491">
      <contour>
        <pt x="165" y="1466" on="1"/>
        <pt x="361" y="1466" on="1"/>
        <pt x="361" y="1284" on="1"/>
        <pt x="476" y="1416" on="0"/>
        <pt x="702" y="1491" on="0"/>
        <pt x="827" y="1491" on="1"/>
        <pt x="1008" y="1491" on="0"/>
        <pt x="1237" y="1329" on="0"/>
        <pt x="1373" y="1024" on="0"/>
        <pt x="1373" y="754" on="1"/>
        <pt x="1373" y="360" on="0"/>
        <pt x="1113" y="-25" on="0"/>
        <pt x="893" y="-25" on="1"/>
        <pt x="766" y="-25" on="0"/>
        <pt x="645" y="47" on="1"/>
        <pt x="732" y="200" on="1"/>
        <pt x="828" y="148" on="0"/>
        <pt x="893" y="148" on="1"/>
        <pt x="970" y="148" on="0"/>
        <pt x="1100" y="277" on="0"/>
        <pt x="1176" y="540" on="0"/>
        <pt x="1176" y="749" on="1"/>
        <pt x="1176" y="1328" on="0"/>
        <pt x="771" y="1328" on="1"/>
        <pt x="638" y="1328" on="0"/>
        <pt x="437" y="1203" on="0"/>
        <pt x="361" y="1010" on="0"/>
        <pt x="361" y="801" on="1"/>
        <pt x="361" y="0" on="1"/>
        <pt x="165" y="0" on="1"/>
      </contour>
    </TTGlyph>
    <TTGlyph name="Eogonek" xMin="162" yMin="-426" xMax="1256" yMax="1466">
      <component glyphName="E" x="0" y="0" flags="0x204"/>
      <component glyphName="ogonek" x="632" y="0" flags="0x4"/>
    </TTGlyph>
    <TTGlyph name="Epsilon" xMin="162" yMin="0" xMax="1256" yMax="1466">
      <component glyphName="E" x="0" y="0" flags="0x204"/>
    </TTGlyph>
    <TTGlyph name="Epsilontonos" xMin="-89" yMin="0" xMax="1495" yMax="1466">
      <contour>
        <pt x="401" y="0" on="1"/>
        <pt x="401" y="1466" on="1"/>
        <pt x="1461" y="1466" on="1"/>
        <pt x="1461" y="1293" on="1"/>
        <pt x="595" y="1293" on="1"/>
        <pt x="595" y="844" on="1"/>
        <pt x="1406" y="844" on="1"/>
        <pt x="1406" y="672" on="1"/>
        <pt x="595" y="672" on="1"/>
        <pt x="595" y="173" on="1"/>
        <pt x="1495" y="173" on="1"/>
        <pt x="1495" y="0" on="1"/>
      </contour>
      <contour>
        <pt x="-89" y="1186" on="1"/>
        <pt x="44" y="1466" on="1"/>
        <pt x="280" y="1466" on="1"/>
        <pt x="60" y="1186" on="1"/>
      </contour>
    </TTGlyph>
    <TTGlyph name="Eta" xMin="164" yMin="0" xMax="1314" yMax="1466">
      <component glyphName="H" x="0" y="0" flags="0x204"/>
    </TTGlyph>
    <TTGlyph name="Etatonos" xMin="-88" yMin="0" xMax="1510" yMax="1466">
      <contour>
        <pt x="360" y="0" on="1"/>
        <pt x="360" y="1466" on="1"/>
        <pt x="554" y="1466" on="1"/>
        <pt x="554" y="864" on="1"/>
        <pt x="1316" y="864" on="1"/>
        <pt x="1316" y="1466" on="1"/>
        <pt x="1510" y="1466" on="1"/>
        <pt x="1510" y="0" on="1"/>
        <pt x="1316" y="0" on="1"/>
        <pt x="1316" y="691" on="1"/>
        <pt x="554" y="691" on="1"/>
        <pt x="554" y="0" on="1"/>
      </contour>
      <contour>
        <pt x="-88" y="1186" on="1"/>
        <pt x="45" y="1466" on="1"/>
        <pt x="281" y="1466" on="1"/>
        <pt x="61" y="1186" on="1"/>
      </contour>
    </TTGlyph>
    <TTGlyph name="Eth" xMin="-3" yMin="0" xMax="1370" yMax="1466">
      <contour>
        <pt x="158" y="0" on="1"/>
        <pt x="158" y="667" on="1"/>
        <pt x="-3" y="667" on="1"/>
        <pt x="-3" y="799" on="1"/>
        <pt x="158" y="799" on="1"/>
        <pt x="158" y="1466" on="1"/>
        <pt x="664" y="1466" on="1"/>
        <pt x="834" y="1466" on="0"/>
        <pt x="924" y="1445" on="1"/>
        <pt x="1050" y="1416" on="0"/>
        <pt x="1139" y="1340" on="1"/>
        <pt x="1255" y="1242" on="0"/>
        <pt x="1370" y="937" on="0"/>
        <pt x="1370" y="741" on="1"/>
        <pt x="1370" y="517" on="0"/>
        <pt x="1228" y="194" on="0"/>
        <pt x="1030" y="48" on="0"/>
        <pt x="901" y="17" on="1"/>
        <pt x="830" y="0" on="0"/>
        <pt x="687" y="0" on="1"/>
      </contour>
      <contour>
        <pt x="352" y="173" on="1"/>
        <pt x="665" y="173" on="1"/>
        <pt x="811" y="173" on="0"/>
        <pt x="975" y="227" on="0"/>
        <pt x="1023" y="275" on="1"/>
        <pt x="1092" y="344" on="0"/>
        <pt x="1170" y="576" on="0"/>
        <pt x="1170" y="743" on="1"/>
        <pt x="1170" y="915" on="0"/>
        <pt x="1093" y="1121" on="0"/>
        <pt x="969" y="1245" on="0"/>
        <pt x="817" y="1293" on="0"/>
        <pt x="660" y="1293" on="1"/>
        <pt x="352" y="1293" on="1"/>
        <pt x="352" y="799" on="1"/>
        <pt x="756" y="799" on="1"/>
        <pt x="756" y="667" on="1"/>
        <pt x="352" y="667" on="1"/>
      </contour>
    </TTGlyph>
    <TTGlyph name="Etilde" xMin="162" yMin="0" xMax="1256" yMax="1812">
      <component glyphName="E" x="0" y="0" flags="0x204"/>
      <component glyphName="tilde" x="380" y="362" flags="0x4"/>
    </TTGlyph>
    <TTGlyph name="Euro" xMin="-28" yMin="-25" xMax="1107" yMax="1491">
      <contour>
        <pt x="790" y="1325" on="1"/>
        <pt x="622" y="1325" on="0"/>
        <pt x="508" y="1244" on="1"/>
        <pt x="440" y="1196" on="0"/>
        <pt x="385" y="1108" on="1"/>
        <pt x="329" y="1017" on="0"/>
        <pt x="319" y="935" on="1"/>
        <pt x="1001" y="935" on="1"/>
        <pt x="974" y="801" on="1"/>
        <pt x="303" y="801" on="1"/>
        <pt x="302" y="780" on="0"/>
        <pt x="302" y="761" on="1"/>
        <pt x="302" y="684" on="0"/>
        <pt x="303" y="669" on="1"/>
        <pt x="947" y="669" on="1"/>
        <pt x="919" y="535" on="1"/>
        <pt x="324" y="535" on="1"/>
        <pt x="366" y="306" on="0"/>
        <pt x="526" y="210" on="1"/>
        <pt x="641" y="141" on="0"/>
        <pt x="775" y="141" on="1"/>
        <pt x="962" y="141" on="0"/>
        <pt x="1067" y="239" on="1"/>
        <pt x="1067" y="33" on="1"/>
        <pt x="942" y="-25" on="0"/>
        <pt x="791" y="-25" on="1"/>
        <pt x="339" y="-25" on="0"/>
        <pt x="180" y="351" on="1"/>
        <pt x="148" y="427" on="0"/>
        <pt x="125" y="535" on="1"/>
        <pt x="-28" y="535" on="1"/>
        <pt x="0" y="669" on="1"/>
        <pt x="105" y="669" on="1"/>
        <pt x="102" y="711" on="0"/>
        <pt x="102" y="760" on="1"/>
        <pt x="102" y="780" on="0"/>
        <pt x="103" y="801" on="1"/>
        <pt x="-28" y="801" on="1"/>
        <pt x="0" y="935" on="1"/>
        <pt x="116" y="935" on="1"/>
        <pt x="178" y="1261" on="0"/>
        <pt x="439" y="1403" on="1"/>
        <pt x="600" y="1491" on="0"/>
        <pt x="794" y="1491" on="1"/>
        <pt x="980" y="1491" on="0"/>
        <pt x="1107" y="1410" on="1"/>
        <pt x="1067" y="1224" on="1"/>
        <pt x="945" y="1325" on="0"/>
      </contour>
    </TTGlyph>
    <TTGlyph name="F" xMin="168" yMin="0" xMax="1157" yMax="1466">
      <contour>
        <pt x="168" y="0" on="1"/>
        <pt x="168" y="1466" on="1"/>
        <pt x="1157" y="1466" on="1"/>
        <pt x="1157" y="1293" on="1"/>
        <pt x="362" y="1293" on="1"/>
        <pt x="362" y="839" on="1"/>
        <pt x="1050" y="839" on="1"/>
        <pt x="1050" y="666" on="1"/>
        <pt x="362" y="666" on="1"/>
        <pt x="362" y="0" on="1"/>
      </contour>
    </TTGlyph>
    <TTGlyph name="G" xMin="109" yMin="-25" xMax="1465" yMax="1491">
      <contour>
        <pt x="844" y="575" on="1"/>
        <pt x="844" y="747" on="1"/>
        <pt x="1465" y="748" on="1"/>
        <pt x="1465" y="204" on="1"/>
        <pt x="1322" y="90" on="0"/>
        <pt x="1018" y="-25" on="0"/>
        <pt x="858" y="-25" on="1"/>
        <pt x="642" y="-25" on="0"/>
        <pt x="289" y="160" on="0"/>
        <pt x="109" y="510" on="0"/>
        <pt x="109" y="726" on="1"/>
        <pt x="109" y="940" on="0"/>
        <pt x="288" y="1311" on="0"/>
        <pt x="624" y="1491" on="0"/>
        <pt x="843" y="1491" on="1"/>
        <pt x="1002" y="1491" on="0"/>
        <pt x="1259" y="1388" on="0"/>
        <pt x="1405" y="1204" on="0"/>
        <pt x="1443" y="1056" on="1"/>
        <pt x="1268" y="1008" on="1"/>
        <pt x="1235" y="1120" on="0"/>
        <pt x="1137" y="1248" on="0"/>
        <pt x="955" y="1325" on="0"/>
        <pt x="844" y="1325" on="1"/>
        <pt x="711" y="1325" on="0"/>
        <pt x="517" y="1244" on="0"/>
        <pt x="398" y="1112" on="0"/>
        <pt x="365" y="1033" on="1"/>
        <pt x="309" y="897" on="0"/>
        <pt x="309" y="738" on="1"/>
        <pt x="309" y="542" on="0"/>
        <pt x="444" y="278" on="0"/>
        <pt x="702" y="150" on="0"/>
        <pt x="847" y="150" on="1"/>
        <pt x="973" y="150" on="0"/>
        <pt x="1213" y="247" on="0"/>
        <pt x="1275" y="302" on="1"/>
        <pt x="1275" y="575" on="1"/>
      </contour>
    </TTGlyph>
    <TTGlyph name="Gamma" xMin="164" yMin="0" xMax="1080" yMax="1466">
      <contour>
        <pt x="164" y="1466" on="1"/>
        <pt x="1080" y="1466" on="1"/>
        <pt x="1080" y="1293" on="1"/>
        <pt x="358" y="1293" on="1"/>
        <pt x="358" y="0" on="1"/>
        <pt x="164" y="0" on="1"/>
      </contour>
    </TTGlyph>
    <TTGlyph name="Gbreve" xMin="109" yMin="-25" xMax="1465" yMax="1815">
      <component glyphName="G" x="0" y="0" flags="0x204"/>
      <component glyphName="breve" x="526" y="351" flags="0x4"/>
    </TTGlyph>
    <TTGlyph name="Gcedilla" xMin="109" yMin="-421" xMax="1465" yMax="1491">
      <component glyphName="G" x="0" y="0" flags="0x204"/>
      <component glyphName="cedilla" x="532" y="0" flags="0x4"/>
    </TTGlyph>
    <TTGlyph name="Gcircumflex" xMin="109" yMin="-25" xMax="1465" yMax="1825">
      <component glyphName="G" x="0" y="0" flags="0x204"/>
      <component glyphName="circumflex" x="526" y="351" flags="0x4"/>
    </TTGlyph>
    <TTGlyph name="Gdot" xMin="109" yMin="-25" xMax="1465" yMax="1769">
      <component glyphName="G" x="0" y="0" flags="0x204"/>
      <component glyphName="dotaccent" x="526" y="351" flags="0x4"/>
    </TTGlyph>
    <TTGlyph name="H" xMin="164" yMin="0" xMax="1314" yMax="1466">
      <contour>
        <pt x="164" y="0" on="1"/>
        <pt x="164" y="1466" on="1"/>
        <pt x="358" y="1466" on="1"/>
        <pt x="358" y="864" on="1"/>
        <pt x="1120" y="864" on="1"/>
        <pt x="1120" y="1466" on="1"/>
        <pt x="1314" y="1466" on="1"/>
        <pt x="1314" y="0" on="1"/>
        <pt x="1120" y="0" on="1"/>
        <pt x="1120" y="691" on="1"/>
        <pt x="358" y="691" on="1"/>
        <pt x="358" y="0" on="1"/>
      </contour>
    </TTGlyph>
    <TTGlyph name="H18533" xMin="178" yMin="137" xMax="1059" yMax="1018">
      <contour>
        <pt x="619" y="1018" on="1"/>
        <pt x="729" y="1018" on="0"/>
        <pt x="941" y="904" on="0"/>
        <pt x="1059" y="692" on="0"/>
        <pt x="1059" y="578" on="1"/>
        <pt x="1059" y="395" on="0"/>
        <pt x="801" y="137" on="0"/>
        <pt x="619" y="137" on="1"/>
        <pt x="436" y="137" on="0"/>
        <pt x="178" y="395" on="0"/>
        <pt x="178" y="578" on="1"/>
        <pt x="178" y="693" on="0"/>
        <pt x="296" y="904" on="0"/>
        <pt x="508" y="1018" on="0"/>
      </contour>
    </TTGlyph>
    <TTGlyph name="H18543" xMin="131" yMin="445" xMax="594" yMax="908">
      <contour>
        <pt x="594" y="908" on="1"/>
        <pt x="594" y="445" on="1"/>
        <pt x="131" y="445" on="1"/>
        <pt x="131" y="908" on="1"/>
      </contour>
    </TTGlyph>
    <TTGlyph name="H18551" xMin="131" yMin="445" xMax="594" yMax="908">
      <contour>
        <pt x="594" y="908" on="1"/>
        <pt x="594" y="445" on="1"/>
        <pt x="131" y="445" on="1"/>
        <pt x="131" y="908" on="1"/>
      </contour>
      <contour>
        <pt x="518" y="832" on="1"/>
        <pt x="207" y="832" on="1"/>
        <pt x="207" y="521" on="1"/>
        <pt x="518" y="521" on="1"/>
      </contour>
    </TTGlyph>
    <TTGlyph name="H22073" xMin="146" yMin="0" xMax="1090" yMax="944">
      <contour>
        <pt x="146" y="944" on="1"/>
        <pt x="1090" y="944" on="1"/>
        <pt x="1090" y="0" on="1"/>
        <pt x="146" y="0" on="1"/>
      </contour>
      <contour>
        <pt x="222" y="868" on="1"/>
        <pt x="222" y="76" on="1"/>
        <pt x="1014" y="76" on="1"/>
        <pt x="1014" y="868" on="1"/>
      </contour>
    </TTGlyph>
    <TTGlyph name="Hbar" xMin="31" yMin="0" xMax="1447" yMax="1466">
      <contour>
        <pt x="164" y="1099" on="1"/>
        <pt x="31" y="1099" on="1"/>
        <pt x="31" y="1247" on="1"/>
        <pt x="164" y="1247" on="1"/>
        <pt x="164" y="1466" on="1"/>
        <pt x="358" y="1466" on="1"/>
        <pt x="358" y="1247" on="1"/>
        <pt x="1120" y="1247" on="1"/>
        <pt x="1120" y="1466" on="1"/>
        <pt x="1314" y="1466" on="1"/>
        <pt x="1314" y="1247" on="1"/>
        <pt x="1447" y="1247" on="1"/>
        <pt x="1447" y="1099" on="1"/>
        <pt x="1314" y="1099" on="1"/>
        <pt x="1314" y="0" on="1"/>
        <pt x="1120" y="0" on="1"/>
        <pt x="1120" y="691" on="1"/>
        <pt x="358" y="691" on="1"/>
        <pt x="358" y="0" on="1"/>
        <pt x="164" y="0" on="1"/>
      </contour>
      <contour>
        <pt x="358" y="1099" on="1"/>
        <pt x="358" y="864" on="1"/>
        <pt x="1120" y="864" on="1"/>
        <pt x="1120" y="1099" on="1"/>
      </contour>
    </TTGlyph>
    <TTGlyph name="Hcircumflex" xMin="164" yMin="0" xMax="1314" yMax="1836">
      <component glyphName="H" x="0" y="0" flags="0x204"/>
      <component glyphName="circumflex" x="430" y="362" flags="0x4"/>
    </TTGlyph>
    <TTGlyph name="I" xMin="191" yMin="0" xMax="385" yMax="1466">
      <contour>
        <pt x="191" y="0" on="1"/>
        <pt x="191" y="1466" on="1"/>
        <pt x="385" y="1466" on="1"/>
        <pt x="385" y="0" on="1"/>
      </contour>
    </TTGlyph>
    <TTGlyph name="IJ" xMin="191" yMin="-25" xMax="1400" yMax="1466">
      <component glyphName="I" x="0" y="0" flags="0x4"/>
      <component glyphName="J" x="535" y="0" flags="0x4"/>
    </TTGlyph>
    <TTGlyph name="Iacute" xMin="141" yMin="0" xMax="510" yMax="1836">
      <component glyphName="I" x="0" y="0" flags="0x204"/>
      <component glyphName="acute" x="-81" y="362" flags="0x4"/>
    </TTGlyph>
    <TTGlyph name="Ibreve" xMin="-1" yMin="0" xMax="590" yMax="1800">
      <component glyphName="I" x="0" y="0" flags="0x204"/>
      <component glyphName="breve" x="-47" y="336" flags="0x4"/>
    </TTGlyph>
    <TTGlyph name="Icircumflex" xMin="-32" yMin="0" xMax="601" yMax="1836">
      <component glyphName="I" x="0" y="0" flags="0x204"/>
      <component glyphName="circumflex" x="-57" y="362" flags="0x4"/>
    </TTGlyph>
    <TTGlyph name="Idieresis" xMin="4" yMin="0" xMax="565" yMax="1761">
      <component glyphName="I" x="0" y="0" flags="0x204"/>
      <component glyphName="dieresis" x="-57" y="286" flags="0x4"/>
    </TTGlyph>
    <TTGlyph name="Idotaccent" xMin="177" yMin="0" xMax="400" yMax="1780">
      <component glyphName="I" x="0" y="0" flags="0x204"/>
      <component glyphName="dotaccent" x="-52" y="362" flags="0x4"/>
    </TTGlyph>
    <TTGlyph name="Idotbelow" xMin="186" yMin="-325" xMax="391" yMax="1466">
      <component glyphName="I" x="0" y="0" flags="0x204"/>
      <component glyphName="f02c" x="440" y="0" flags="0x4"/>
    </TTGlyph>
    <TTGlyph name="Igrave" xMin="54" yMin="0" xMax="430" yMax="1836">
      <component glyphName="I" x="0" y="0" flags="0x204"/>
      <component glyphName="grave" x="-35" y="362" flags="0x4"/>
    </TTGlyph>
    <TTGlyph name="Ihookabove" xMin="99" yMin="0" xMax="536" yMax="1836">
      <component glyphName="I" x="0" y="0" flags="0x204"/>
      <component glyphName="combininghookabove" x="570" y="0" flags="0x4"/>
    </TTGlyph>
    <TTGlyph name="Imacron" xMin="-28" yMin="0" xMax="596" yMax="1711">
      <component glyphName="I" x="0" y="0" flags="0x204"/>
      <component glyphName="macron" x="-57" y="336" flags="0x4"/>
    </TTGlyph>
    <TTGlyph name="Iogonek" xMin="163" yMin="-426" xMax="601" yMax="1466">
      <contour>
        <pt x="318" y="0" on="1"/>
        <pt x="289" y="-78" on="0"/>
        <pt x="289" y="-140" on="1"/>
        <pt x="289" y="-207" on="0"/>
        <pt x="371" y="-292" on="0"/>
        <pt x="433" y="-292" on="1"/>
        <pt x="510" y="-292" on="0"/>
        <pt x="601" y="-246" on="1"/>
        <pt x="601" y="-365" on="1"/>
        <pt x="482" y="-426" on="0"/>
        <pt x="378" y="-426" on="1"/>
        <pt x="287" y="-426" on="0"/>
        <pt x="163" y="-308" on="0"/>
        <pt x="163" y="-205" on="1"/>
        <pt x="163" y="-125" on="0"/>
        <pt x="198" y="1" on="1"/>
        <pt x="198" y="1466" on="1"/>
        <pt x="392" y="1466" on="1"/>
        <pt x="392" y="0" on="1"/>
      </contour>
    </TTGlyph>
    <TTGlyph name="Iota" xMin="191" yMin="0" xMax="385" yMax="1466">
      <component glyphName="I" x="0" y="0" flags="0x204"/>
    </TTGlyph>
    <TTGlyph name="Iotadieresis" xMin="4" yMin="0" xMax="565" yMax="1761">
      <component glyphName="I" x="0" y="0" flags="0x204"/>
      <component glyphName="dieresis" x="-57" y="286" flags="0x4"/>
    </TTGlyph>
    <TTGlyph name="Iotatonos" xMin="-88" yMin="0" xMax="554" yMax="1466">
      <contour>
        <pt x="360" y="0" on="1"/>
        <pt x="360" y="1466" on="1"/>
        <pt x="554" y="1466" on="1"/>
        <pt x="554" y="0" on="1"/>
      </contour>
      <contour>
        <pt x="-88" y="1186" on="1"/>
        <pt x="45" y="1466" on="1"/>
        <pt x="281" y="1466" on="1"/>
        <pt x="61" y="1186" on="1"/>
      </contour>
    </TTGlyph>
    <TTGlyph name="Itilde" xMin="-64" yMin="0" xMax="606" yMax="1812">
      <component glyphName="I" x="0" y="0" flags="0x204"/>
      <component glyphName="tilde" x="-70" y="362" flags="0x4"/>
    </TTGlyph>
    <TTGlyph name="J" xMin="55" yMin="-25" xMax="865" yMax="1466">
      <contour>
        <pt x="59" y="416" on="1"/>
        <pt x="234" y="440" on="1"/>
        <pt x="241" y="272" on="0"/>
        <pt x="353" y="148" on="0"/>
        <pt x="452" y="148" on="1"/>
        <pt x="525" y="148" on="0"/>
        <pt x="631" y="215" on="0"/>
        <pt x="671" y="330" on="0"/>
        <pt x="671" y="456" on="1"/>
        <pt x="671" y="1466" on="1"/>
        <pt x="865" y="1466" on="1"/>
        <pt x="865" y="467" on="1"/>
        <pt x="865" y="283" on="0"/>
        <pt x="776" y="81" on="0"/>
        <pt x="583" y="-25" on="0"/>
        <pt x="453" y="-25" on="1"/>
        <pt x="260" y="-25" on="0"/>
        <pt x="55" y="197" on="0"/>
      </contour>
    </TTGlyph>
    <TTGlyph name="Jcircumflex" xMin="55" yMin="-25" xMax="1108" yMax="1836">
      <component glyphName="J" x="0" y="0" flags="0x204"/>
      <component glyphName="circumflex" x="450" y="362" flags="0x4"/>
    </TTGlyph>
    <TTGlyph name="K" xMin="150" yMin="0" xMax="1362" yMax="1466">
      <contour>
        <pt x="150" y="0" on="1"/>
        <pt x="150" y="1466" on="1"/>
        <pt x="344" y="1466" on="1"/>
        <pt x="344" y="739" on="1"/>
        <pt x="1072" y="1466" on="1"/>
        <pt x="1335" y="1466" on="1"/>
        <pt x="720" y="872" on="1"/>
        <pt x="1362" y="0" on="1"/>
        <pt x="1106" y="0" on="1"/>
        <pt x="584" y="742" on="1"/>
        <pt x="344" y="508" on="1"/>
        <pt x="344" y="0" on="1"/>
      </contour>
    </TTGlyph>
    <TTGlyph name="Kappa" xMin="150" yMin="0" xMax="1362" yMax="1466">
      <component glyphName="K" x="0" y="0" flags="0x204"/>
    </TTGlyph>
    <TTGlyph name="Kcedilla" xMin="150" yMin="-421" xMax="1362" yMax="1466">
      <component glyphName="K" x="0" y="0" flags="0x204"/>
      <component glyphName="undercommaaccent" x="460" y="0" flags="0x4"/>
    </TTGlyph>
    <TTGlyph name="L" xMin="150" yMin="0" xMax="1066" yMax="1466">
      <contour>
        <pt x="150" y="0" on="1"/>
        <pt x="150" y="1466" on="1"/>
        <pt x="344" y="1466" on="1"/>
        <pt x="344" y="173" on="1"/>
        <pt x="1066" y="173" on="1"/>
        <pt x="1066" y="0" on="1"/>
      </contour>
    </TTGlyph>
    <TTGlyph name="Lacute" xMin="150" yMin="0" xMax="1066" yMax="1836">
      <component glyphName="L" x="0" y="0" flags="0x204"/>
      <component glyphName="acute" x="82" y="362" flags="0x4"/>
    </TTGlyph>
    <TTGlyph name="Lambda" xMin="11" yMin="0" xMax="1352" yMax="1466">
      <contour>
        <pt x="784" y="1466" on="1"/>
        <pt x="1352" y="0" on="1"/>
        <pt x="1141" y="0" on="1"/>
        <pt x="760" y="1064" on="1"/>
        <pt x="710" y="1204" on="0"/>
        <pt x="683" y="1305" on="1"/>
        <pt x="650" y="1184" on="0"/>
        <pt x="605" y="1064" on="1"/>
        <pt x="209" y="0" on="1"/>
        <pt x="11" y="0" on="1"/>
        <pt x="584" y="1466" on="1"/>
      </contour>
    </TTGlyph>
    <TTGlyph name="Lcaron" xMin="150" yMin="0" xMax="1066" yMax="1466">
      <contour>
        <pt x="712" y="1261" on="1"/>
        <pt x="712" y="1466" on="1"/>
        <pt x="917" y="1466" on="1"/>
        <pt x="917" y="1261" on="1"/>
        <pt x="917" y="1148" on="0"/>
        <pt x="837" y="1009" on="0"/>
        <pt x="750" y="971" on="1"/>
        <pt x="700" y="1048" on="1"/>
        <pt x="757" y="1073" on="0"/>
        <pt x="812" y="1170" on="0"/>
        <pt x="814" y="1261" on="1"/>
      </contour>
      <contour>
        <pt x="150" y="0" on="1"/>
        <pt x="150" y="1466" on="1"/>
        <pt x="344" y="1466" on="1"/>
        <pt x="344" y="173" on="1"/>
        <pt x="1066" y="173" on="1"/>
        <pt x="1066" y="0" on="1"/>
      </contour>
    </TTGlyph>
    <TTGlyph name="Lcedilla" xMin="150" yMin="-421" xMax="1066" yMax="1466">
      <component glyphName="L" x="0" y="0" flags="0x204"/>
      <component glyphName="undercommaaccent" x="340" y="0" flags="0x4"/>
    </TTGlyph>
    <TTGlyph name="Ldot" xMin="150" yMin="0" xMax="1066" yMax="1466">
      <component glyphName="L" x="0" y="0" flags="0x204"/>
      <component glyphName="middot" x="228" y="0" flags="0x4"/>
    </TTGlyph>
    <TTGlyph name="Lslash" xMin="0" yMin="0" xMax="1067" yMax="1466">
      <contour>
        <pt x="145" y="565" on="1"/>
        <pt x="0" y="442" on="1"/>
        <pt x="0" y="609" on="1"/>
        <pt x="145" y="733" on="1"/>
        <pt x="145" y="1466" on="1"/>
        <pt x="339" y="1466" on="1"/>
        <pt x="339" y="898" on="1"/>
        <pt x="671" y="1179" on="1"/>
        <pt x="671" y="1012" on="1"/>
        <pt x="339" y="731" on="1"/>
        <pt x="339" y="173" on="1"/>
        <pt x="1067" y="173" on="1"/>
        <pt x="1067" y="0" on="1"/>
        <pt x="145" y="0" on="1"/>
      </contour>
    </TTGlyph>
    <TTGlyph name="M" xMin="152" yMin="0" xMax="1551" yMax="1466">
      <contour>
        <pt x="152" y="0" on="1"/>
        <pt x="152" y="1466" on="1"/>
        <pt x="444" y="1466" on="1"/>
        <pt x="791" y="428" on="1"/>
        <pt x="839" y="283" on="0"/>
        <pt x="861" y="211" on="1"/>
        <pt x="886" y="291" on="0"/>
        <pt x="939" y="446" on="1"/>
        <pt x="1290" y="1466" on="1"/>
        <pt x="1551" y="1466" on="1"/>
        <pt x="1551" y="0" on="1"/>
        <pt x="1364" y="0" on="1"/>
        <pt x="1364" y="1227" on="1"/>
        <pt x="938" y="0" on="1"/>
        <pt x="763" y="0" on="1"/>
        <pt x="339" y="1248" on="1"/>
        <pt x="339" y="0" on="1"/>
      </contour>
    </TTGlyph>
    <TTGlyph name="Mu" xMin="152" yMin="0" xMax="1551" yMax="1466">
      <component glyphName="M" x="0" y="0" flags="0x204"/>
    </TTGlyph>
    <TTGlyph name="N" xMin="156" yMin="0" xMax="1311" yMax="1466">
      <contour>
        <pt x="156" y="0" on="1"/>
        <pt x="156" y="1466" on="1"/>
        <pt x="355" y="1466" on="1"/>
        <pt x="1125" y="315" on="1"/>
        <pt x="1125" y="1466" on="1"/>
        <pt x="1311" y="1466" on="1"/>
        <pt x="1311" y="0" on="1"/>
        <pt x="1112" y="0" on="1"/>
        <pt x="342" y="1152" on="1"/>
        <pt x="342" y="0" on="1"/>
      </contour>
    </TTGlyph>
    <TTGlyph name="Nacute" xMin="156" yMin="0" xMax="1311" yMax="1836">
      <component glyphName="N" x="0" y="0" flags="0x204"/>
      <component glyphName="acute" x="348" y="362" flags="0x4"/>
    </TTGlyph>
    <TTGlyph name="Ncaron" xMin="156" yMin="0" xMax="1311" yMax="1836">
      <component glyphName="N" x="0" y="0" flags="0x204"/>
      <component glyphName="caron" x="375" y="362" flags="0x4"/>
    </TTGlyph>
    <TTGlyph name="Ncedilla" xMin="156" yMin="-421" xMax="1311" yMax="1466">
      <component glyphName="N" x="0" y="0" flags="0x204"/>
      <component glyphName="undercommaaccent" x="486" y="0" flags="0x4"/>
    </TTGlyph>
    <TTGlyph name="Ntilde" xMin="156" yMin="0" xMax="1311" yMax="1787">
      <component glyphName="N" x="0" y="0" flags="0x204"/>
      <component glyphName="tilde" x="423" y="337" flags="0x4"/>
    </TTGlyph>
    <TTGlyph name="Nu" xMin="156" yMin="0" xMax="1311" yMax="1466">
      <component glyphName="N" x="0" y="0" flags="0x204"/>
    </TTGlyph>
    <TTGlyph name="O" xMin="99" yMin="-25" xMax="1501" yMax="1492">
      <contour>
        <pt x="99" y="714" on="1"/>
        <pt x="99" y="1079" on="0"/>
        <pt x="491" y="1492" on="0"/>
        <pt x="801" y="1492" on="1"/>
        <pt x="1004" y="1492" on="0"/>
        <pt x="1330" y="1298" on="0"/>
        <pt x="1501" y="951" on="0"/>
        <pt x="1501" y="731" on="1"/>
        <pt x="1501" y="508" on="0"/>
        <pt x="1321" y="156" on="0"/>
        <pt x="991" y="-25" on="0"/>
        <pt x="800" y="-25" on="1"/>
        <pt x="593" y="-25" on="0"/>
        <pt x="267" y="175" on="0"/>
        <pt x="99" y="521" on="0"/>
      </contour>
      <contour>
        <pt x="299" y="711" on="1"/>
        <pt x="299" y="446" on="0"/>
        <pt x="584" y="141" on="0"/>
        <pt x="799" y="141" on="1"/>
        <pt x="1018" y="141" on="0"/>
        <pt x="1301" y="449" on="0"/>
        <pt x="1301" y="732" on="1"/>
        <pt x="1301" y="911" on="0"/>
        <pt x="1180" y="1178" on="0"/>
        <pt x="947" y="1325" on="0"/>
        <pt x="802" y="1325" on="1"/>
        <pt x="596" y="1325" on="0"/>
        <pt x="299" y="1042" on="0"/>
      </contour>
    </TTGlyph>
    <TTGlyph name="OE" xMin="129" yMin="-25" xMax="1983" yMax="1491">
      <contour>
        <pt x="1983" y="173" on="1"/>
        <pt x="1983" y="0" on="1"/>
        <pt x="1121" y="0" on="1"/>
        <pt x="1121" y="212" on="1"/>
        <pt x="986" y="-25" on="0"/>
        <pt x="721" y="-25" on="1"/>
        <pt x="420" y="-25" on="0"/>
        <pt x="265" y="207" on="1"/>
        <pt x="129" y="412" on="0"/>
        <pt x="129" y="735" on="1"/>
        <pt x="129" y="1057" on="0"/>
        <pt x="413" y="1491" on="0"/>
        <pt x="721" y="1491" on="1"/>
        <pt x="985" y="1491" on="0"/>
        <pt x="1121" y="1268" on="1"/>
        <pt x="1121" y="1466" on="1"/>
        <pt x="1952" y="1466" on="1"/>
        <pt x="1952" y="1293" on="1"/>
        <pt x="1302" y="1293" on="1"/>
        <pt x="1302" y="845" on="1"/>
        <pt x="1901" y="845" on="1"/>
        <pt x="1901" y="673" on="1"/>
        <pt x="1302" y="673" on="1"/>
        <pt x="1302" y="173" on="1"/>
      </contour>
      <contour>
        <pt x="720" y="1334" on="1"/>
        <pt x="619" y="1334" on="0"/>
        <pt x="427" y="1204" on="0"/>
        <pt x="329" y="939" on="0"/>
        <pt x="329" y="720" on="1"/>
        <pt x="329" y="417" on="0"/>
        <pt x="560" y="131" on="0"/>
        <pt x="720" y="131" on="1"/>
        <pt x="881" y="131" on="0"/>
        <pt x="1110" y="416" on="0"/>
        <pt x="1110" y="745" on="1"/>
        <pt x="1110" y="1051" on="0"/>
        <pt x="879" y="1334" on="0"/>
      </contour>
    </TTGlyph>
    <TTGlyph name="Oacute" xMin="99" yMin="-25" xMax="1501" yMax="1836">
      <component glyphName="O" x="0" y="0" flags="0x204"/>
      <component glyphName="acute" x="455" y="362" flags="0x4"/>
    </TTGlyph>
    <TTGlyph name="Obreve" xMin="99" yMin="-25" xMax="1501" yMax="1826">
      <component glyphName="O" x="0" y="0" flags="0x204"/>
      <component glyphName="breve" x="475" y="362" flags="0x4"/>
    </TTGlyph>
    <TTGlyph name="Ocircumflex" xMin="99" yMin="-25" xMax="1501" yMax="1836">
      <component glyphName="O" x="0" y="0" flags="0x204"/>
      <component glyphName="circumflex" x="454" y="362" flags="0x4"/>
    </TTGlyph>
    <TTGlyph name="Ocircumflexacute" xMin="99" yMin="-25" xMax="1501" yMax="1835">
      <component glyphName="O" x="0" y="0" flags="0x204"/>
      <component glyphName=".notdef#5" x="796" y="25" flags="0x4"/>
      <component glyphName="f006" x="1134" y="0" flags="0x4"/>
    </TTGlyph>
    <TTGlyph name="Ocircumflexdotbelow" xMin="99" yMin="-325" xMax="1501" yMax="1640">
      <component glyphName="O" x="0" y="0" flags="0x204"/>
      <component glyphName=".notdef#5" x="796" y="25" flags="0x4"/>
      <component glyphName="f02c" x="940" y="0" flags="0x4"/>
    </TTGlyph>
    <TTGlyph name="Ocircumflexgrave" xMin="99" yMin="-25" xMax="1501" yMax="1835">
      <component glyphName="O" x="0" y="0" flags="0x204"/>
      <component glyphName=".notdef#5" x="796" y="25" flags="0x4"/>
      <component glyphName=".notdef#1" x="1088" y="0" flags="0x4"/>
    </TTGlyph>
    <TTGlyph name="Ocircumflexhookabove" xMin="99" yMin="-25" xMax="1501" yMax="1836">
      <component glyphName="O" x="0" y="0" flags="0x204"/>
      <component glyphName=".notdef#5" x="796" y="25" flags="0x4"/>
      <component glyphName="f010" x="1120" y="0" flags="0x4"/>
    </TTGlyph>
    <TTGlyph name="Ocircumflextilde" xMin="99" yMin="-25" xMax="1501" yMax="1835">
      <component glyphName="O" x="0" y="0" flags="0x204"/>
      <component glyphName=".notdef#5" x="796" y="25" flags="0x4"/>
      <component glyphName="f02d" x="1480" y="0" flags="0x4"/>
    </TTGlyph>
    <TTGlyph name="Odblacute" xMin="99" yMin="-25" xMax="1501" yMax="1836">
      <component glyphName="O" x="0" y="0" flags="0x204"/>
      <component glyphName="hungarumlaut" x="415" y="362" flags="0x4"/>
    </TTGlyph>
    <TTGlyph name="Odieresis" xMin="99" yMin="-25" xMax="1501" yMax="1761">
      <component glyphName="O" x="0" y="0" flags="0x204"/>
      <component glyphName="dieresis" x="455" y="286" flags="0x4"/>
    </TTGlyph>
    <TTGlyph name="Odotbelow" xMin="99" yMin="-325" xMax="1501" yMax="1492">
      <component glyphName="O" x="0" y="0" flags="0x204"/>
      <component glyphName="f02c" x="940" y="0" flags="0x4"/>
    </TTGlyph>
    <TTGlyph name="Ograve" xMin="99" yMin="-25" xMax="1501" yMax="1836">
      <component glyphName="O" x="0" y="0" flags="0x204"/>
      <component glyphName="grave" x="451" y="362" flags="0x4"/>
    </TTGlyph>
    <TTGlyph name="Ohm" xMin="127" yMin="0" xMax="1475" yMax="1503">
      <contour>
        <pt x="496" y="160" on="1"/>
        <pt x="388" y="227" on="0"/>
        <pt x="331" y="290" on="1"/>
        <pt x="244" y="386" on="0"/>
        <pt x="150" y="645" on="0"/>
        <pt x="150" y="802" on="1"/>
        <pt x="150" y="998" on="0"/>
        <pt x="309" y="1327" on="0"/>
        <pt x="612" y="1503" on="0"/>
        <pt x="808" y="1503" on="1"/>
        <pt x="1144" y="1503" on="0"/>
        <pt x="1324" y="1249" on="1"/>
        <pt x="1455" y="1063" on="0"/>
        <pt x="1455" y="801" on="1"/>
        <pt x="1455" y="633" on="0"/>
        <pt x="1347" y="374" on="0"/>
        <pt x="1260" y="281" on="1"/>
        <pt x="1207" y="223" on="0"/>
        <pt x="1111" y="160" on="1"/>
        <pt x="1475" y="166" on="1"/>
        <pt x="1475" y="0" on="1"/>
        <pt x="900" y="0" on="1"/>
        <pt x="900" y="177" on="1"/>
        <pt x="980" y="217" on="0"/>
        <pt x="1024" y="255" on="1"/>
        <pt x="1096" y="316" on="0"/>
        <pt x="1196" y="484" on="0"/>
        <pt x="1247" y="674" on="0"/>
        <pt x="1247" y="777" on="1"/>
        <pt x="1247" y="915" on="0"/>
        <pt x="1148" y="1194" on="0"/>
        <pt x="947" y="1340" on="0"/>
        <pt x="804" y="1340" on="1"/>
        <pt x="613" y="1340" on="0"/>
        <pt x="508" y="1220" on="1"/>
        <pt x="362" y="1051" on="0"/>
        <pt x="362" y="780" on="1"/>
        <pt x="362" y="563" on="0"/>
        <pt x="544" y="252" on="0"/>
        <pt x="704" y="180" on="1"/>
        <pt x="704" y="0" on="1"/>
        <pt x="127" y="0" on="1"/>
        <pt x="127" y="168" on="1"/>
      </contour>
    </TTGlyph>
    <TTGlyph name="Ohookabove" xMin="99" yMin="-25" xMax="1501" yMax="1836">
      <component glyphName="O" x="0" y="0" flags="0x204"/>
      <component glyphName="combininghookabove" x="1080" y="0" flags="0x4"/>
    </TTGlyph>
    <TTGlyph name="Ohorn" xMin="99" yMin="-25" xMax="1708" yMax="1492">
      <contour>
        <pt x="299" y="711" on="1"/>
        <pt x="299" y="451" on="0"/>
        <pt x="442" y="293" on="1"/>
        <pt x="580" y="141" on="0"/>
        <pt x="799" y="141" on="1"/>
        <pt x="1023" y="141" on="0"/>
        <pt x="1160" y="295" on="1"/>
        <pt x="1301" y="455" on="0"/>
        <pt x="1301" y="732" on="1"/>
        <pt x="1301" y="1102" on="0"/>
        <pt x="1064" y="1252" on="1"/>
        <pt x="947" y="1325" on="0"/>
        <pt x="802" y="1325" on="1"/>
        <pt x="579" y="1325" on="0"/>
        <pt x="448" y="1184" on="1"/>
        <pt x="299" y="1024" on="0"/>
      </contour>
      <contour>
        <pt x="1515" y="1273" on="1"/>
        <pt x="1515" y="1482" on="1"/>
        <pt x="1708" y="1482" on="1"/>
        <pt x="1708" y="1317" on="1"/>
        <pt x="1708" y="1193" on="0"/>
        <pt x="1670" y="1127" on="1"/>
        <pt x="1618" y="1036" on="0"/>
        <pt x="1475" y="960" on="1"/>
        <pt x="1501" y="852" on="0"/>
        <pt x="1501" y="731" on="1"/>
        <pt x="1501" y="507" on="0"/>
        <pt x="1320" y="156" on="0"/>
        <pt x="991" y="-25" on="0"/>
        <pt x="800" y="-25" on="1"/>
        <pt x="594" y="-25" on="0"/>
        <pt x="267" y="174" on="0"/>
        <pt x="99" y="521" on="0"/>
        <pt x="99" y="714" on="1"/>
        <pt x="99" y="1074" on="0"/>
        <pt x="295" y="1286" on="1"/>
        <pt x="486" y="1492" on="0"/>
        <pt x="801" y="1492" on="1"/>
        <pt x="1028" y="1492" on="0"/>
        <pt x="1379" y="1245" on="0"/>
        <pt x="1452" y="1037" on="1"/>
        <pt x="1543" y="1086" on="0"/>
        <pt x="1580" y="1142" on="1"/>
        <pt x="1610" y="1187" on="0"/>
        <pt x="1609" y="1273" on="1"/>
      </contour>
    </TTGlyph>
    <TTGlyph name="Ohornacute" xMin="99" yMin="-25" xMax="1708" yMax="1836">
      <component glyphName="Ohorn" x="0" y="0" flags="0x204"/>
      <component glyphName="acute" x="455" y="362" flags="0x4"/>
    </TTGlyph>
    <TTGlyph name="Ohorndotbelow" xMin="99" yMin="-325" xMax="1708" yMax="1492">
      <component glyphName="Ohorn" x="0" y="0" flags="0x204"/>
      <component glyphName="f02c" x="940" y="0" flags="0x4"/>
    </TTGlyph>
    <TTGlyph name="Ohorngrave" xMin="99" yMin="-25" xMax="1708" yMax="1836">
      <component glyphName="Ohorn" x="0" y="0" flags="0x204"/>
      <component glyphName="grave" x="451" y="362" flags="0x4"/>
    </TTGlyph>
    <TTGlyph name="Ohornhookabove" xMin="99" yMin="-25" xMax="1708" yMax="1861">
      <component glyphName="Ohorn" x="0" y="0" flags="0x204"/>
      <component glyphName="combininghookabove" x="1080" y="25" flags="0x4"/>
    </TTGlyph>
    <TTGlyph name="Ohorntilde" xMin="99" yMin="-25" xMax="1708" yMax="1787">
      <component glyphName="Ohorn" x="0" y="0" flags="0x204"/>
      <component glyphName="tilde" x="459" y="337" flags="0x4"/>
    </TTGlyph>
    <TTGlyph name="Omacron" xMin="99" yMin="-25" xMax="1501" yMax="1747">
      <component glyphName="O" x="0" y="0" flags="0x204"/>
      <component glyphName="macron" x="475" y="372" flags="0x4"/>
    </TTGlyph>
    <TTGlyph name="Omega" xMin="97" yMin="0" xMax="1435" yMax="1491">
      <contour>
        <pt x="97" y="173" on="1"/>
        <pt x="417" y="173" on="1"/>
        <pt x="113" y="427" on="0"/>
        <pt x="113" y="793" on="1"/>
        <pt x="113" y="992" on="0"/>
        <pt x="273" y="1308" on="0"/>
        <pt x="565" y="1491" on="0"/>
        <pt x="770" y="1491" on="1"/>
        <pt x="973" y="1491" on="0"/>
        <pt x="1244" y="1323" on="0"/>
        <pt x="1419" y="1009" on="0"/>
        <pt x="1419" y="793" on="1"/>
        <pt x="1419" y="427" on="0"/>
        <pt x="1115" y="173" on="1"/>
        <pt x="1435" y="173" on="1"/>
        <pt x="1435" y="0" on="1"/>
        <pt x="865" y="0" on="1"/>
        <pt x="865" y="162" on="1"/>
        <pt x="1221" y="328" on="0"/>
        <pt x="1221" y="763" on="1"/>
        <pt x="1221" y="1008" on="0"/>
        <pt x="970" y="1325" on="0"/>
        <pt x="769" y="1325" on="1"/>
        <pt x="562" y="1325" on="0"/>
        <pt x="314" y="1006" on="0"/>
        <pt x="314" y="773" on="1"/>
        <pt x="314" y="332" on="0"/>
        <pt x="668" y="162" on="1"/>
        <pt x="668" y="0" on="1"/>
        <pt x="97" y="0" on="1"/>
      </contour>
    </TTGlyph>
    <TTGlyph name="Omegatonos" xMin="-89" yMin="0" xMax="1445" yMax="1491">
      <contour>
        <pt x="107" y="173" on="1"/>
        <pt x="427" y="173" on="1"/>
        <pt x="123" y="427" on="0"/>
        <pt x="123" y="793" on="1"/>
        <pt x="123" y="992" on="0"/>
        <pt x="283" y="1308" on="0"/>
        <pt x="575" y="1491" on="0"/>
        <pt x="780" y="1491" on="1"/>
        <pt x="983" y="1491" on="0"/>
        <pt x="1254" y="1323" on="0"/>
        <pt x="1429" y="1009" on="0"/>
        <pt x="1429" y="793" on="1"/>
        <pt x="1429" y="427" on="0"/>
        <pt x="1125" y="173" on="1"/>
        <pt x="1445" y="173" on="1"/>
        <pt x="1445" y="0" on="1"/>
        <pt x="875" y="0" on="1"/>
        <pt x="875" y="162" on="1"/>
        <pt x="1231" y="328" on="0"/>
        <pt x="1231" y="763" on="1"/>
        <pt x="1231" y="1008" on="0"/>
        <pt x="980" y="1325" on="0"/>
        <pt x="779" y="1325" on="1"/>
        <pt x="572" y="1325" on="0"/>
        <pt x="324" y="1006" on="0"/>
        <pt x="324" y="773" on="1"/>
        <pt x="324" y="332" on="0"/>
        <pt x="678" y="162" on="1"/>
        <pt x="678" y="0" on="1"/>
        <pt x="107" y="0" on="1"/>
      </contour>
      <contour>
        <pt x="-89" y="1186" on="1"/>
        <pt x="44" y="1466" on="1"/>
        <pt x="280" y="1466" on="1"/>
        <pt x="60" y="1186" on="1"/>
      </contour>
    </TTGlyph>
    <TTGlyph name="Omicron" xMin="99" yMin="-25" xMax="1501" yMax="1492">
      <component glyphName="O" x="0" y="0" flags="0x204"/>
    </TTGlyph>
    <TTGlyph name="Omicrontonos" xMin="-89" yMin="-25" xMax="1490" yMax="1492">
      <contour>
        <pt x="88" y="714" on="1"/>
        <pt x="88" y="1080" on="0"/>
        <pt x="482" y="1492" on="0"/>
        <pt x="790" y="1492" on="1"/>
        <pt x="1099" y="1492" on="0"/>
        <pt x="1490" y="1073" on="0"/>
        <pt x="1490" y="731" on="1"/>
        <pt x="1490" y="391" on="0"/>
        <pt x="1096" y="-25" on="0"/>
        <pt x="789" y="-25" on="1"/>
        <pt x="568" y="-25" on="0"/>
        <pt x="235" y="196" on="0"/>
        <pt x="88" y="543" on="0"/>
      </contour>
      <contour>
        <pt x="288" y="711" on="1"/>
        <pt x="288" y="460" on="0"/>
        <pt x="560" y="141" on="0"/>
        <pt x="788" y="141" on="1"/>
        <pt x="1012" y="141" on="0"/>
        <pt x="1290" y="456" on="0"/>
        <pt x="1290" y="732" on="1"/>
        <pt x="1290" y="1012" on="0"/>
        <pt x="1010" y="1325" on="0"/>
        <pt x="791" y="1325" on="1"/>
        <pt x="576" y="1325" on="0"/>
        <pt x="288" y="1031" on="0"/>
      </contour>
      <contour>
        <pt x="-89" y="1186" on="1"/>
        <pt x="44" y="1466" on="1"/>
        <pt x="280" y="1466" on="1"/>
        <pt x="60" y="1186" on="1"/>
      </contour>
    </TTGlyph>
    <TTGlyph name="Oslash" xMin="83" yMin="-59" xMax="1517" yMax="1520">
      <contour>
        <pt x="1250" y="1332" on="1"/>
        <pt x="1418" y="1520" on="1"/>
        <pt x="1517" y="1436" on="1"/>
        <pt x="1341" y="1238" on="1"/>
        <pt x="1427" y="1110" on="0"/>
        <pt x="1457" y="1014" on="1"/>
        <pt x="1497" y="888" on="0"/>
        <pt x="1497" y="732" on="1"/>
        <pt x="1497" y="507" on="0"/>
        <pt x="1315" y="155" on="0"/>
        <pt x="986" y="-25" on="0"/>
        <pt x="801" y="-25" on="1"/>
        <pt x="663" y="-25" on="0"/>
        <pt x="551" y="14" on="1"/>
        <pt x="465" y="44" on="0"/>
        <pt x="350" y="129" on="1"/>
        <pt x="182" y="-59" on="1"/>
        <pt x="83" y="25" on="1"/>
        <pt x="259" y="222" on="1"/>
        <pt x="161" y="371" on="0"/>
        <pt x="95" y="582" on="0"/>
        <pt x="95" y="730" on="1"/>
        <pt x="95" y="956" on="0"/>
        <pt x="275" y="1309" on="0"/>
        <pt x="600" y="1491" on="0"/>
        <pt x="799" y="1491" on="1"/>
        <pt x="933" y="1491" on="0"/>
        <pt x="1134" y="1420" on="0"/>
      </contour>
      <contour>
        <pt x="1130" y="1197" on="1"/>
        <pt x="1036" y="1271" on="0"/>
        <pt x="895" y="1325" on="0"/>
        <pt x="800" y="1325" on="1"/>
        <pt x="581" y="1325" on="0"/>
        <pt x="295" y="1028" on="0"/>
        <pt x="295" y="733" on="1"/>
        <pt x="295" y="617" on="0"/>
        <pt x="317" y="527" on="1"/>
        <pt x="333" y="460" on="0"/>
        <pt x="384" y="362" on="1"/>
      </contour>
      <contour>
        <pt x="1212" y="1094" on="1"/>
        <pt x="469" y="262" on="1"/>
        <pt x="546" y="199" on="0"/>
        <pt x="611" y="174" on="1"/>
        <pt x="696" y="141" on="0"/>
        <pt x="795" y="141" on="1"/>
        <pt x="1013" y="141" on="0"/>
        <pt x="1297" y="449" on="0"/>
        <pt x="1297" y="727" on="1"/>
        <pt x="1297" y="935" on="0"/>
      </contour>
    </TTGlyph>
    <TTGlyph name="Oslashacute" xMin="83" yMin="-59" xMax="1517" yMax="1836">
      <component glyphName="Oslash" x="0" y="0" flags="0x204"/>
      <component glyphName="acute" x="459" y="362" flags="0x4"/>
    </TTGlyph>
    <TTGlyph name="Otilde" xMin="99" yMin="-25" xMax="1501" yMax="1787">
      <component glyphName="O" x="0" y="0" flags="0x204"/>
      <component glyphName="tilde" x="459" y="337" flags="0x4"/>
    </TTGlyph>
    <TTGlyph name="P" xMin="158" yMin="0" xMax="1277" yMax="1466">
      <contour>
        <pt x="158" y="0" on="1"/>
        <pt x="158" y="1466" on="1"/>
        <pt x="711" y="1466" on="1"/>
        <pt x="857" y="1466" on="0"/>
        <pt x="934" y="1452" on="1"/>
        <pt x="1042" y="1434" on="0"/>
        <pt x="1188" y="1333" on="0"/>
        <pt x="1277" y="1151" on="0"/>
        <pt x="1277" y="1042" on="1"/>
        <pt x="1277" y="855" on="0"/>
        <pt x="1039" y="596" on="0"/>
        <pt x="728" y="596" on="1"/>
        <pt x="352" y="596" on="1"/>
        <pt x="352" y="0" on="1"/>
      </contour>
      <contour>
        <pt x="352" y="769" on="1"/>
        <pt x="731" y="769" on="1"/>
        <pt x="919" y="769" on="0"/>
        <pt x="1077" y="909" on="0"/>
        <pt x="1077" y="1036" on="1"/>
        <pt x="1077" y="1128" on="0"/>
        <pt x="984" y="1259" on="0"/>
        <pt x="908" y="1280" on="1"/>
        <pt x="859" y="1293" on="0"/>
        <pt x="727" y="1293" on="1"/>
        <pt x="352" y="1293" on="1"/>
      </contour>
    </TTGlyph>
    <TTGlyph name="Phi" xMin="85" yMin="-53" xMax="1549" yMax="1510">
      <contour>
        <pt x="720" y="1510" on="1"/>
        <pt x="914" y="1510" on="1"/>
        <pt x="914" y="1329" on="1"/>
        <pt x="1222" y="1310" on="0"/>
        <pt x="1549" y="988" on="0"/>
        <pt x="1549" y="749" on="1"/>
        <pt x="1549" y="481" on="0"/>
        <pt x="1195" y="171" on="0"/>
        <pt x="914" y="161" on="1"/>
        <pt x="914" y="-53" on="1"/>
        <pt x="720" y="-53" on="1"/>
        <pt x="720" y="161" on="1"/>
        <pt x="431" y="172" on="0"/>
        <pt x="85" y="491" on="0"/>
        <pt x="85" y="740" on="1"/>
        <pt x="85" y="903" on="0"/>
        <pt x="235" y="1167" on="0"/>
        <pt x="509" y="1319" on="0"/>
        <pt x="720" y="1329" on="1"/>
      </contour>
      <contour>
        <pt x="720" y="1161" on="1"/>
        <pt x="514" y="1155" on="0"/>
        <pt x="287" y="941" on="0"/>
        <pt x="287" y="741" on="1"/>
        <pt x="287" y="539" on="0"/>
        <pt x="535" y="329" on="0"/>
        <pt x="720" y="326" on="1"/>
      </contour>
      <contour>
        <pt x="914" y="326" on="1"/>
        <pt x="1119" y="332" on="0"/>
        <pt x="1351" y="550" on="0"/>
        <pt x="1351" y="744" on="1"/>
        <pt x="1351" y="928" on="0"/>
        <pt x="1129" y="1161" on="0"/>
        <pt x="914" y="1161" on="1"/>
      </contour>
    </TTGlyph>
    <TTGlyph name="Pi" xMin="164" yMin="0" xMax="1314" yMax="1466">
      <contour>
        <pt x="164" y="0" on="1"/>
        <pt x="164" y="1466" on="1"/>
        <pt x="1314" y="1466" on="1"/>
        <pt x="1314" y="0" on="1"/>
        <pt x="1120" y="0" on="1"/>
        <pt x="1120" y="1293" on="1"/>
        <pt x="358" y="1293" on="1"/>
        <pt x="358" y="0" on="1"/>
      </contour>
    </TTGlyph>
    <TTGlyph name="Psi" xMin="127" yMin="0" xMax="1584" yMax="1466">
      <contour>
        <pt x="127" y="1466" on="1"/>
        <pt x="321" y="1466" on="1"/>
        <pt x="321" y="1071" on="1"/>
        <pt x="321" y="830" on="0"/>
        <pt x="535" y="637" on="0"/>
        <pt x="758" y="619" on="1"/>
        <pt x="758" y="1466" on="1"/>
        <pt x="952" y="1466" on="1"/>
        <pt x="952" y="619" on="1"/>
        <pt x="1162" y="632" on="0"/>
        <pt x="1389" y="838" on="0"/>
        <pt x="1389" y="1095" on="1"/>
        <pt x="1389" y="1466" on="1"/>
        <pt x="1584" y="1466" on="1"/>
        <pt x="1584" y="1052" on="1"/>
        <pt x="1584" y="463" on="0"/>
        <pt x="952" y="453" on="1"/>
        <pt x="952" y="0" on="1"/>
        <pt x="758" y="0" on="1"/>
        <pt x="758" y="453" on="1"/>
        <pt x="428" y="459" on="0"/>
        <pt x="127" y="768" on="0"/>
        <pt x="127" y="1035" on="1"/>
      </contour>
    </TTGlyph>
    <TTGlyph name="Q" xMin="88" yMin="-114" xMax="1518" yMax="1492">
      <contour>
        <pt x="1269" y="157" on="1"/>
        <pt x="1404" y="64" on="0"/>
        <pt x="1518" y="21" on="1"/>
        <pt x="1461" y="-114" on="1"/>
        <pt x="1303" y="-57" on="0"/>
        <pt x="1146" y="66" on="1"/>
        <pt x="983" y="-25" on="0"/>
        <pt x="786" y="-25" on="1"/>
        <pt x="587" y="-25" on="0"/>
        <pt x="263" y="167" on="0"/>
        <pt x="88" y="515" on="0"/>
        <pt x="88" y="733" on="1"/>
        <pt x="88" y="950" on="0"/>
        <pt x="264" y="1306" on="0"/>
        <pt x="589" y="1492" on="0"/>
        <pt x="790" y="1492" on="1"/>
        <pt x="993" y="1492" on="0"/>
        <pt x="1319" y="1299" on="0"/>
        <pt x="1490" y="952" on="0"/>
        <pt x="1490" y="734" on="1"/>
        <pt x="1490" y="553" on="0"/>
        <pt x="1380" y="264" on="0"/>
      </contour>
      <contour>
        <pt x="842" y="405" on="1"/>
        <pt x="1010" y="358" on="0"/>
        <pt x="1119" y="265" on="1"/>
        <pt x="1290" y="421" on="0"/>
        <pt x="1290" y="734" on="1"/>
        <pt x="1290" y="912" on="0"/>
        <pt x="1169" y="1178" on="0"/>
        <pt x="936" y="1325" on="0"/>
        <pt x="791" y="1325" on="1"/>
        <pt x="574" y="1325" on="0"/>
        <pt x="288" y="1028" on="0"/>
        <pt x="288" y="733" on="1"/>
        <pt x="288" y="447" on="0"/>
        <pt x="571" y="141" on="0"/>
        <pt x="791" y="141" on="1"/>
        <pt x="895" y="141" on="0"/>
        <pt x="987" y="180" on="1"/>
        <pt x="896" y="239" on="0"/>
        <pt x="795" y="264" on="1"/>
      </contour>
    </TTGlyph>
    <TTGlyph name="R" xMin="161" yMin="0" xMax="1453" yMax="1466">
      <contour>
        <pt x="161" y="0" on="1"/>
        <pt x="161" y="1466" on="1"/>
        <pt x="811" y="1466" on="1"/>
        <pt x="1007" y="1466" on="0"/>
        <pt x="1211" y="1387" on="0"/>
        <pt x="1333" y="1187" on="0"/>
        <pt x="1333" y="1066" on="1"/>
        <pt x="1333" y="910" on="0"/>
        <pt x="1131" y="696" on="0"/>
        <pt x="920" y="667" on="1"/>
        <pt x="997" y="630" on="0"/>
        <pt x="1037" y="594" on="1"/>
        <pt x="1122" y="516" on="0"/>
        <pt x="1198" y="399" on="1"/>
        <pt x="1453" y="0" on="1"/>
        <pt x="1209" y="0" on="1"/>
        <pt x="1015" y="305" on="1"/>
        <pt x="930" y="437" on="0"/>
        <pt x="820" y="577" on="0"/>
        <pt x="733" y="633" on="0"/>
        <pt x="688" y="644" on="1"/>
        <pt x="655" y="651" on="0"/>
        <pt x="580" y="651" on="1"/>
        <pt x="355" y="651" on="1"/>
        <pt x="355" y="0" on="1"/>
      </contour>
      <contour>
        <pt x="355" y="819" on="1"/>
        <pt x="772" y="819" on="1"/>
        <pt x="905" y="819" on="0"/>
        <pt x="1055" y="874" on="0"/>
        <pt x="1133" y="995" on="0"/>
        <pt x="1133" y="1066" on="1"/>
        <pt x="1133" y="1170" on="0"/>
        <pt x="982" y="1304" on="0"/>
        <pt x="819" y="1304" on="1"/>
        <pt x="355" y="1304" on="1"/>
      </contour>
    </TTGlyph>
    <TTGlyph name="Racute" xMin="161" yMin="0" xMax="1453" yMax="1836">
      <component glyphName="R" x="0" y="0" flags="0x204"/>
      <component glyphName="acute" x="281" y="362" flags="0x4"/>
    </TTGlyph>
    <TTGlyph name="Rcaron" xMin="161" yMin="0" xMax="1453" yMax="1830">
      <component glyphName="R" x="0" y="0" flags="0x204"/>
      <component glyphName="caron" x="290" y="356" flags="0x4"/>
    </TTGlyph>
    <TTGlyph name="Rcedilla" xMin="161" yMin="-421" xMax="1453" yMax="1466">
      <component glyphName="R" x="0" y="0" flags="0x204"/>
      <component glyphName="undercommaaccent" x="486" y="0" flags="0x4"/>
    </TTGlyph>
    <TTGlyph name="Rho" xMin="158" yMin="0" xMax="1277" yMax="1466">
      <component glyphName="P" x="0" y="0" flags="0x204"/>
    </TTGlyph>
    <TTGlyph name="S" xMin="92" yMin="-25" xMax="1259" yMax="1491">
      <contour>
        <pt x="92" y="471" on="1"/>
        <pt x="275" y="487" on="1"/>
        <pt x="288" y="377" on="0"/>
        <pt x="383" y="236" on="0"/>
        <pt x="583" y="149" on="0"/>
        <pt x="708" y="149" on="1"/>
        <pt x="819" y="149" on="0"/>
        <pt x="989" y="215" on="0"/>
        <pt x="1072" y="330" on="0"/>
        <pt x="1072" y="398" on="1"/>
        <pt x="1072" y="467" on="0"/>
        <pt x="992" y="570" on="0"/>
        <pt x="900" y="605" on="1"/>
        <pt x="841" y="628" on="0"/>
        <pt x="437" y="725" on="0"/>
        <pt x="356" y="768" on="1"/>
        <pt x="251" y="823" on="0"/>
        <pt x="148" y="986" on="0"/>
        <pt x="148" y="1087" on="1"/>
        <pt x="148" y="1198" on="0"/>
        <pt x="274" y="1391" on="0"/>
        <pt x="516" y="1491" on="0"/>
        <pt x="664" y="1491" on="1"/>
        <pt x="827" y="1491" on="0"/>
        <pt x="1076" y="1386" on="0"/>
        <pt x="1210" y="1182" on="0"/>
        <pt x="1215" y="1053" on="1"/>
        <pt x="1029" y="1039" on="1"/>
        <pt x="1014" y="1178" on="0"/>
        <pt x="841" y="1320" on="0"/>
        <pt x="672" y="1320" on="1"/>
        <pt x="496" y="1320" on="0"/>
        <pt x="335" y="1191" on="0"/>
        <pt x="335" y="1100" on="1"/>
        <pt x="335" y="1021" on="0"/>
        <pt x="392" y="970" on="1"/>
        <pt x="448" y="919" on="0"/>
        <pt x="921" y="812" on="0"/>
        <pt x="1009" y="772" on="1"/>
        <pt x="1137" y="713" on="0"/>
        <pt x="1259" y="532" on="0"/>
        <pt x="1259" y="414" on="1"/>
        <pt x="1259" y="297" on="0"/>
        <pt x="1125" y="90" on="0"/>
        <pt x="874" y="-25" on="0"/>
        <pt x="717" y="-25" on="1"/>
        <pt x="518" y="-25" on="0"/>
        <pt x="249" y="91" on="0"/>
        <pt x="96" y="324" on="0"/>
      </contour>
    </TTGlyph>
    <TTGlyph name="SF010000" xMin="638" yMin="-621" xMax="1474" yMax="709">
      <contour>
        <pt x="1474" y="709" on="1"/>
        <pt x="1474" y="534" on="1"/>
        <pt x="813" y="534" on="1"/>
        <pt x="813" y="-621" on="1"/>
        <pt x="638" y="-621" on="1"/>
        <pt x="638" y="709" on="1"/>
      </contour>
    </TTGlyph>
    <TTGlyph name="SF020000" xMin="638" yMin="534" xMax="1474" yMax="1864">
      <contour>
        <pt x="638" y="534" on="1"/>
        <pt x="638" y="1864" on="1"/>
        <pt x="813" y="1864" on="1"/>
        <pt x="813" y="709" on="1"/>
        <pt x="1474" y="709" on="1"/>
        <pt x="1474" y="534" on="1"/>
      </contour>
    </TTGlyph>
    <TTGlyph name="SF030000" xMin="-23" yMin="-621" xMax="812" yMax="709">
      <contour>
        <pt x="637" y="534" on="1"/>
        <pt x="-23" y="534" on="1"/>
        <pt x="-23" y="709" on="1"/>
        <pt x="812" y="709" on="1"/>
        <pt x="812" y="-621" on="1"/>
        <pt x="637" y="-621" on="1"/>
      </contour>
    </TTGlyph>
    <TTGlyph name="SF040000" xMin="-23" yMin="534" xMax="812" yMax="1864">
      <contour>
        <pt x="812" y="534" on="1"/>
        <pt x="-23" y="534" on="1"/>
        <pt x="-23" y="709" on="1"/>
        <pt x="637" y="709" on="1"/>
        <pt x="637" y="1864" on="1"/>
        <pt x="812" y="1864" on="1"/>
      </contour>
    </TTGlyph>
    <TTGlyph name="SF050000" xMin="-23" yMin="-621" xMax="1473" yMax="1864">
      <contour>
        <pt x="637" y="534" on="1"/>
        <pt x="-23" y="534" on="1"/>
        <pt x="-23" y="709" on="1"/>
        <pt x="637" y="709" on="1"/>
        <pt x="637" y="1864" on="1"/>
        <pt x="812" y="1864" on="1"/>
        <pt x="812" y="709" on="1"/>
        <pt x="1473" y="709" on="1"/>
        <pt x="1473" y="534" on="1"/>
        <pt x="812" y="534" on="1"/>
        <pt x="812" y="-621" on="1"/>
        <pt x="637" y="-621" on="1"/>
      </contour>
    </TTGlyph>
    <TTGlyph name="SF060000" xMin="-23" yMin="-621" xMax="1473" yMax="709">
      <contour>
        <pt x="637" y="534" on="1"/>
        <pt x="-23" y="534" on="1"/>
        <pt x="-23" y="709" on="1"/>
        <pt x="1473" y="709" on="1"/>
        <pt x="1473" y="534" on="1"/>
        <pt x="812" y="534" on="1"/>
        <pt x="812" y="-621" on="1"/>
        <pt x="637" y="-621" on="1"/>
      </contour>
    </TTGlyph>
    <TTGlyph name="SF070000" xMin="-23" yMin="534" xMax="1473" yMax="1864">
      <contour>
        <pt x="1473" y="534" on="1"/>
        <pt x="-23" y="534" on="1"/>
        <pt x="-23" y="709" on="1"/>
        <pt x="637" y="709" on="1"/>
        <pt x="637" y="1864" on="1"/>
        <pt x="812" y="1864" on="1"/>
        <pt x="812" y="709" on="1"/>
        <pt x="1473" y="709" on="1"/>
      </contour>
    </TTGlyph>
    <TTGlyph name="SF080000" xMin="638" yMin="-621" xMax="1474" yMax="1864">
      <contour>
        <pt x="638" y="-621" on="1"/>
        <pt x="638" y="1864" on="1"/>
        <pt x="813" y="1864" on="1"/>
        <pt x="813" y="709" on="1"/>
        <pt x="1474" y="709" on="1"/>
        <pt x="1474" y="534" on="1"/>
        <pt x="813" y="534" on="1"/>
        <pt x="813" y="-621" on="1"/>
      </contour>
    </TTGlyph>
    <TTGlyph name="SF090000" xMin="-23" yMin="-621" xMax="812" yMax="1864">
      <contour>
        <pt x="637" y="-621" on="1"/>
        <pt x="637" y="534" on="1"/>
        <pt x="-23" y="534" on="1"/>
        <pt x="-23" y="709" on="1"/>
        <pt x="637" y="709" on="1"/>
        <pt x="637" y="1864" on="1"/>
        <pt x="812" y="1864" on="1"/>
        <pt x="812" y="-621" on="1"/>
      </contour>
    </TTGlyph>
    <TTGlyph name="SF100000" xMin="-23" yMin="534" xMax="1473" yMax="709">
      <contour>
        <pt x="1473" y="534" on="1"/>
        <pt x="-23" y="534" on="1"/>
        <pt x="-23" y="709" on="1"/>
        <pt x="1473" y="709" on="1"/>
      </contour>
    </TTGlyph>
    <TTGlyph name="SF110000" xMin="457" yMin="-621" xMax="632" yMax="1864">
      <contour>
        <pt x="457" y="-621" on="1"/>
        <pt x="457" y="1864" on="1"/>
        <pt x="632" y="1864" on="1"/>
        <pt x="632" y="-621" on="1"/>
      </contour>
    </TTGlyph>
    <TTGlyph name="SF190000" xMin="-23" yMin="-621" xMax="812" yMax="1864">
      <contour>
        <pt x="637" y="344" on="1"/>
        <pt x="-23" y="344" on="1"/>
        <pt x="-23" y="519" on="1"/>
        <pt x="638" y="519" on="1"/>
        <pt x="637" y="724" on="1"/>
        <pt x="-23" y="724" on="1"/>
        <pt x="-23" y="899" on="1"/>
        <pt x="637" y="899" on="1"/>
        <pt x="637" y="1864" on="1"/>
        <pt x="812" y="1864" on="1"/>
        <pt x="812" y="-621" on="1"/>
        <pt x="637" y="-621" on="1"/>
      </contour>
    </TTGlyph>
    <TTGlyph name="SF200000" xMin="-23" yMin="-621" xMax="1002" yMax="1864">
      <contour>
        <pt x="447" y="-621" on="1"/>
        <pt x="448" y="534" on="1"/>
        <pt x="-23" y="534" on="1"/>
        <pt x="-23" y="709" on="1"/>
        <pt x="447" y="709" on="1"/>
        <pt x="447" y="1864" on="1"/>
        <pt x="622" y="1864" on="1"/>
        <pt x="622" y="-621" on="1"/>
      </contour>
      <contour>
        <pt x="827" y="-621" on="1"/>
        <pt x="827" y="1864" on="1"/>
        <pt x="1002" y="1864" on="1"/>
        <pt x="1002" y="-621" on="1"/>
      </contour>
    </TTGlyph>
    <TTGlyph name="SF210000" xMin="-23" yMin="-621" xMax="1002" yMax="709">
      <contour>
        <pt x="447" y="-621" on="1"/>
        <pt x="448" y="534" on="1"/>
        <pt x="-23" y="534" on="1"/>
        <pt x="-23" y="709" on="1"/>
        <pt x="1002" y="709" on="1"/>
        <pt x="1002" y="-621" on="1"/>
        <pt x="827" y="-621" on="1"/>
        <pt x="827" y="534" on="1"/>
        <pt x="622" y="534" on="1"/>
        <pt x="622" y="-621" on="1"/>
      </contour>
    </TTGlyph>
    <TTGlyph name="SF220000" xMin="-23" yMin="-621" xMax="812" yMax="899">
      <contour>
        <pt x="637" y="344" on="1"/>
        <pt x="-23" y="344" on="1"/>
        <pt x="-23" y="519" on="1"/>
        <pt x="637" y="519" on="1"/>
        <pt x="637" y="724" on="1"/>
        <pt x="-23" y="724" on="1"/>
        <pt x="-23" y="899" on="1"/>
        <pt x="812" y="899" on="1"/>
        <pt x="812" y="-621" on="1"/>
        <pt x="637" y="-621" on="1"/>
      </contour>
    </TTGlyph>
    <TTGlyph name="SF230000" xMin="-23" yMin="-621" xMax="1002" yMax="1864">
      <contour>
        <pt x="827" y="-621" on="1"/>
        <pt x="827" y="1864" on="1"/>
        <pt x="1002" y="1864" on="1"/>
        <pt x="1002" y="-621" on="1"/>
      </contour>
      <contour>
        <pt x="622" y="1864" on="1"/>
        <pt x="622" y="724" on="1"/>
        <pt x="-23" y="724" on="1"/>
        <pt x="-23" y="899" on="1"/>
        <pt x="447" y="899" on="1"/>
        <pt x="447" y="1864" on="1"/>
      </contour>
      <contour>
        <pt x="447" y="344" on="1"/>
        <pt x="-23" y="344" on="1"/>
        <pt x="-23" y="519" on="1"/>
        <pt x="622" y="519" on="1"/>
        <pt x="622" y="-621" on="1"/>
        <pt x="447" y="-621" on="1"/>
      </contour>
    </TTGlyph>
    <TTGlyph name="SF240000" xMin="448" yMin="-621" xMax="1003" yMax="1864">
      <contour>
        <pt x="828" y="-621" on="1"/>
        <pt x="828" y="1864" on="1"/>
        <pt x="1003" y="1864" on="1"/>
        <pt x="1003" y="-621" on="1"/>
      </contour>
      <contour>
        <pt x="448" y="-621" on="1"/>
        <pt x="448" y="1864" on="1"/>
        <pt x="623" y="1864" on="1"/>
        <pt x="623" y="-621" on="1"/>
      </contour>
    </TTGlyph>
    <TTGlyph name="SF250000" xMin="-23" yMin="-621" xMax="1002" yMax="899">
      <contour>
        <pt x="827" y="-621" on="1"/>
        <pt x="827" y="724" on="1"/>
        <pt x="-23" y="724" on="1"/>
        <pt x="-23" y="899" on="1"/>
        <pt x="1002" y="899" on="1"/>
        <pt x="1002" y="-621" on="1"/>
      </contour>
      <contour>
        <pt x="447" y="344" on="1"/>
        <pt x="-23" y="344" on="1"/>
        <pt x="-23" y="519" on="1"/>
        <pt x="622" y="519" on="1"/>
        <pt x="622" y="-621" on="1"/>
        <pt x="447" y="-621" on="1"/>
      </contour>
    </TTGlyph>
    <TTGlyph name="SF260000" xMin="-23" yMin="344" xMax="1002" yMax="1864">
      <contour>
        <pt x="827" y="1864" on="1"/>
        <pt x="1002" y="1864" on="1"/>
        <pt x="1002" y="344" on="1"/>
        <pt x="-23" y="344" on="1"/>
        <pt x="-23" y="519" on="1"/>
        <pt x="827" y="519" on="1"/>
      </contour>
      <contour>
        <pt x="447" y="899" on="1"/>
        <pt x="447" y="1864" on="1"/>
        <pt x="622" y="1864" on="1"/>
        <pt x="622" y="724" on="1"/>
        <pt x="-23" y="724" on="1"/>
        <pt x="-23" y="899" on="1"/>
      </contour>
    </TTGlyph>
    <TTGlyph name="SF270000" xMin="-23" yMin="534" xMax="1002" yMax="1864">
      <contour>
        <pt x="1002" y="534" on="1"/>
        <pt x="-23" y="534" on="1"/>
        <pt x="-23" y="709" on="1"/>
        <pt x="447" y="709" on="1"/>
        <pt x="447" y="1864" on="1"/>
        <pt x="622" y="1864" on="1"/>
        <pt x="622" y="709" on="1"/>
        <pt x="827" y="709" on="1"/>
        <pt x="827" y="1864" on="1"/>
        <pt x="1002" y="1864" on="1"/>
      </contour>
    </TTGlyph>
    <TTGlyph name="SF280000" xMin="-23" yMin="344" xMax="812" yMax="1864">
      <contour>
        <pt x="812" y="344" on="1"/>
        <pt x="-23" y="344" on="1"/>
        <pt x="-23" y="519" on="1"/>
        <pt x="637" y="519" on="1"/>
        <pt x="637" y="724" on="1"/>
        <pt x="-23" y="724" on="1"/>
        <pt x="-23" y="899" on="1"/>
        <pt x="637" y="899" on="1"/>
        <pt x="637" y="1864" on="1"/>
        <pt x="812" y="1864" on="1"/>
      </contour>
    </TTGlyph>
    <TTGlyph name="SF360000" xMin="638" yMin="-621" xMax="1474" yMax="1864">
      <contour>
        <pt x="638" y="-621" on="1"/>
        <pt x="638" y="1864" on="1"/>
        <pt x="813" y="1864" on="1"/>
        <pt x="813" y="899" on="1"/>
        <pt x="1474" y="899" on="1"/>
        <pt x="1474" y="724" on="1"/>
        <pt x="813" y="724" on="1"/>
        <pt x="813" y="519" on="1"/>
        <pt x="1474" y="519" on="1"/>
        <pt x="1474" y="344" on="1"/>
        <pt x="813" y="344" on="1"/>
        <pt x="813" y="-621" on="1"/>
      </contour>
    </TTGlyph>
    <TTGlyph name="SF370000" xMin="448" yMin="-621" xMax="1474" yMax="1864">
      <contour>
        <pt x="828" y="-621" on="1"/>
        <pt x="828" y="1864" on="1"/>
        <pt x="1003" y="1864" on="1"/>
        <pt x="1003" y="709" on="1"/>
        <pt x="1474" y="709" on="1"/>
        <pt x="1474" y="534" on="1"/>
        <pt x="1003" y="534" on="1"/>
        <pt x="1003" y="-621" on="1"/>
      </contour>
      <contour>
        <pt x="448" y="-621" on="1"/>
        <pt x="448" y="1864" on="1"/>
        <pt x="623" y="1864" on="1"/>
        <pt x="623" y="-621" on="1"/>
      </contour>
    </TTGlyph>
    <TTGlyph name="SF380000" xMin="448" yMin="344" xMax="1473" yMax="1864">
      <contour>
        <pt x="623" y="1864" on="1"/>
        <pt x="623" y="519" on="1"/>
        <pt x="1473" y="519" on="1"/>
        <pt x="1473" y="344" on="1"/>
        <pt x="448" y="344" on="1"/>
        <pt x="448" y="1864" on="1"/>
      </contour>
      <contour>
        <pt x="1003" y="899" on="1"/>
        <pt x="1473" y="899" on="1"/>
        <pt x="1473" y="724" on="1"/>
        <pt x="828" y="724" on="1"/>
        <pt x="828" y="1864" on="1"/>
        <pt x="1003" y="1864" on="1"/>
      </contour>
    </TTGlyph>
    <TTGlyph name="SF390000" xMin="448" yMin="-621" xMax="1473" yMax="899">
      <contour>
        <pt x="623" y="-621" on="1"/>
        <pt x="448" y="-621" on="1"/>
        <pt x="448" y="899" on="1"/>
        <pt x="1473" y="899" on="1"/>
        <pt x="1473" y="724" on="1"/>
        <pt x="623" y="724" on="1"/>
      </contour>
      <contour>
        <pt x="1003" y="344" on="1"/>
        <pt x="1003" y="-621" on="1"/>
        <pt x="828" y="-621" on="1"/>
        <pt x="828" y="519" on="1"/>
        <pt x="1473" y="519" on="1"/>
        <pt x="1473" y="344" on="1"/>
      </contour>
    </TTGlyph>
    <TTGlyph name="SF400000" xMin="-23" yMin="344" xMax="1473" yMax="1864">
      <contour>
        <pt x="622" y="724" on="1"/>
        <pt x="-23" y="724" on="1"/>
        <pt x="-23" y="899" on="1"/>
        <pt x="447" y="899" on="1"/>
        <pt x="447" y="1864" on="1"/>
        <pt x="622" y="1864" on="1"/>
      </contour>
      <contour>
        <pt x="1473" y="724" on="1"/>
        <pt x="827" y="724" on="1"/>
        <pt x="827" y="1864" on="1"/>
        <pt x="1002" y="1864" on="1"/>
        <pt x="1002" y="899" on="1"/>
        <pt x="1473" y="899" on="1"/>
      </contour>
      <contour>
        <pt x="1473" y="344" on="1"/>
        <pt x="-23" y="344" on="1"/>
        <pt x="-23" y="519" on="1"/>
        <pt x="1473" y="519" on="1"/>
      </contour>
    </TTGlyph>
    <TTGlyph name="SF410000" xMin="-23" yMin="-621" xMax="1473" yMax="899">
      <contour>
        <pt x="1473" y="724" on="1"/>
        <pt x="-23" y="724" on="1"/>
        <pt x="-23" y="899" on="1"/>
        <pt x="1473" y="899" on="1"/>
      </contour>
      <contour>
        <pt x="447" y="344" on="1"/>
        <pt x="-23" y="344" on="1"/>
        <pt x="-23" y="519" on="1"/>
        <pt x="622" y="519" on="1"/>
        <pt x="622" y="-621" on="1"/>
        <pt x="447" y="-621" on="1"/>
      </contour>
      <contour>
        <pt x="827" y="-621" on="1"/>
        <pt x="827" y="519" on="1"/>
        <pt x="1473" y="519" on="1"/>
        <pt x="1473" y="344" on="1"/>
        <pt x="1002" y="344" on="1"/>
        <pt x="1002" y="-621" on="1"/>
      </contour>
    </TTGlyph>
    <TTGlyph name="SF420000" xMin="448" yMin="-621" xMax="1474" yMax="1864">
      <contour>
        <pt x="448" y="-621" on="1"/>
        <pt x="448" y="1864" on="1"/>
        <pt x="623" y="1864" on="1"/>
        <pt x="623" y="-621" on="1"/>
      </contour>
      <contour>
        <pt x="828" y="724" on="1"/>
        <pt x="828" y="1864" on="1"/>
        <pt x="1003" y="1864" on="1"/>
        <pt x="1003" y="899" on="1"/>
        <pt x="1474" y="899" on="1"/>
        <pt x="1474" y="724" on="1"/>
      </contour>
      <contour>
        <pt x="828" y="-621" on="1"/>
        <pt x="828" y="519" on="1"/>
        <pt x="1474" y="519" on="1"/>
        <pt x="1474" y="344" on="1"/>
        <pt x="1003" y="344" on="1"/>
        <pt x="1003" y="-621" on="1"/>
      </contour>
    </TTGlyph>
    <TTGlyph name="SF430000" xMin="-23" yMin="344" xMax="1473" yMax="899">
      <contour>
        <pt x="1473" y="724" on="1"/>
        <pt x="-23" y="724" on="1"/>
        <pt x="-23" y="899" on="1"/>
        <pt x="1473" y="899" on="1"/>
      </contour>
      <contour>
        <pt x="1473" y="344" on="1"/>
        <pt x="-23" y="344" on="1"/>
        <pt x="-23" y="519" on="1"/>
        <pt x="1473" y="519" on="1"/>
      </contour>
    </TTGlyph>
    <TTGlyph name="SF440000" xMin="-23" yMin="-621" xMax="1473" yMax="1864">
      <contour>
        <pt x="1003" y="899" on="1"/>
        <pt x="1473" y="899" on="1"/>
        <pt x="1473" y="724" on="1"/>
        <pt x="828" y="724" on="1"/>
        <pt x="828" y="1864" on="1"/>
        <pt x="1003" y="1864" on="1"/>
      </contour>
      <contour>
        <pt x="447" y="899" on="1"/>
        <pt x="447" y="1864" on="1"/>
        <pt x="622" y="1864" on="1"/>
        <pt x="622" y="724" on="1"/>
        <pt x="-23" y="724" on="1"/>
        <pt x="-23" y="899" on="1"/>
      </contour>
      <contour>
        <pt x="447" y="344" on="1"/>
        <pt x="-23" y="344" on="1"/>
        <pt x="-23" y="519" on="1"/>
        <pt x="622" y="519" on="1"/>
        <pt x="622" y="-621" on="1"/>
        <pt x="447" y="-621" on="1"/>
      </contour>
      <contour>
        <pt x="1003" y="344" on="1"/>
        <pt x="1003" y="-621" on="1"/>
        <pt x="828" y="-621" on="1"/>
        <pt x="828" y="519" on="1"/>
        <pt x="1473" y="519" on="1"/>
        <pt x="1473" y="344" on="1"/>
      </contour>
    </TTGlyph>
    <TTGlyph name="SF450000" xMin="-23" yMin="344" xMax="1473" yMax="1864">
      <contour>
        <pt x="1473" y="724" on="1"/>
        <pt x="-23" y="724" on="1"/>
        <pt x="-23" y="899" on="1"/>
        <pt x="637" y="899" on="1"/>
        <pt x="637" y="1864" on="1"/>
        <pt x="812" y="1864" on="1"/>
        <pt x="812" y="899" on="1"/>
        <pt x="1473" y="899" on="1"/>
      </contour>
      <contour>
        <pt x="1473" y="344" on="1"/>
        <pt x="-23" y="344" on="1"/>
        <pt x="-23" y="519" on="1"/>
        <pt x="1473" y="519" on="1"/>
      </contour>
    </TTGlyph>
    <TTGlyph name="SF460000" xMin="-23" yMin="534" xMax="1473" yMax="1864">
      <contour>
        <pt x="1473" y="534" on="1"/>
        <pt x="-23" y="534" on="1"/>
        <pt x="-23" y="709" on="1"/>
        <pt x="447" y="709" on="1"/>
        <pt x="447" y="1864" on="1"/>
        <pt x="622" y="1864" on="1"/>
        <pt x="622" y="709" on="1"/>
        <pt x="827" y="709" on="1"/>
        <pt x="827" y="1864" on="1"/>
        <pt x="1002" y="1864" on="1"/>
        <pt x="1002" y="709" on="1"/>
        <pt x="1473" y="709" on="1"/>
      </contour>
    </TTGlyph>
    <TTGlyph name="SF470000" xMin="-23" yMin="-621" xMax="1473" yMax="899">
      <contour>
        <pt x="1473" y="724" on="1"/>
        <pt x="-23" y="724" on="1"/>
        <pt x="-23" y="899" on="1"/>
        <pt x="1473" y="899" on="1"/>
      </contour>
      <contour>
        <pt x="637" y="344" on="1"/>
        <pt x="-23" y="344" on="1"/>
        <pt x="-23" y="519" on="1"/>
        <pt x="1473" y="519" on="1"/>
        <pt x="1473" y="344" on="1"/>
        <pt x="812" y="344" on="1"/>
        <pt x="812" y="-621" on="1"/>
        <pt x="637" y="-621" on="1"/>
      </contour>
    </TTGlyph>
    <TTGlyph name="SF480000" xMin="-23" yMin="-621" xMax="1473" yMax="709">
      <contour>
        <pt x="447" y="-621" on="1"/>
        <pt x="448" y="534" on="1"/>
        <pt x="-23" y="534" on="1"/>
        <pt x="-23" y="709" on="1"/>
        <pt x="1473" y="709" on="1"/>
        <pt x="1473" y="534" on="1"/>
        <pt x="1002" y="534" on="1"/>
        <pt x="1002" y="-621" on="1"/>
        <pt x="827" y="-621" on="1"/>
        <pt x="827" y="519" on="1"/>
        <pt x="622" y="519" on="1"/>
        <pt x="622" y="-621" on="1"/>
      </contour>
    </TTGlyph>
    <TTGlyph name="SF490000" xMin="448" yMin="534" xMax="1474" yMax="1864">
      <contour>
        <pt x="1474" y="534" on="1"/>
        <pt x="448" y="534" on="1"/>
        <pt x="448" y="1864" on="1"/>
        <pt x="623" y="1864" on="1"/>
        <pt x="623" y="709" on="1"/>
        <pt x="828" y="709" on="1"/>
        <pt x="828" y="1864" on="1"/>
        <pt x="1003" y="1864" on="1"/>
        <pt x="1003" y="709" on="1"/>
        <pt x="1474" y="709" on="1"/>
      </contour>
    </TTGlyph>
    <TTGlyph name="SF500000" xMin="638" yMin="344" xMax="1474" yMax="1864">
      <contour>
        <pt x="638" y="344" on="1"/>
        <pt x="638" y="1864" on="1"/>
        <pt x="813" y="1864" on="1"/>
        <pt x="813" y="899" on="1"/>
        <pt x="1474" y="899" on="1"/>
        <pt x="1474" y="724" on="1"/>
        <pt x="813" y="724" on="1"/>
        <pt x="813" y="519" on="1"/>
        <pt x="1474" y="519" on="1"/>
        <pt x="1474" y="344" on="1"/>
      </contour>
    </TTGlyph>
    <TTGlyph name="SF510000" xMin="638" yMin="-621" xMax="1474" yMax="899">
      <contour>
        <pt x="638" y="-621" on="1"/>
        <pt x="638" y="899" on="1"/>
        <pt x="1474" y="899" on="1"/>
        <pt x="1474" y="724" on="1"/>
        <pt x="813" y="724" on="1"/>
        <pt x="813" y="519" on="1"/>
        <pt x="1474" y="519" on="1"/>
        <pt x="1474" y="344" on="1"/>
        <pt x="813" y="344" on="1"/>
        <pt x="813" y="-621" on="1"/>
      </contour>
    </TTGlyph>
    <TTGlyph name="SF520000" xMin="448" yMin="-621" xMax="1474" yMax="709">
      <contour>
        <pt x="448" y="-621" on="1"/>
        <pt x="448" y="709" on="1"/>
        <pt x="1474" y="709" on="1"/>
        <pt x="1474" y="534" on="1"/>
        <pt x="1003" y="534" on="1"/>
        <pt x="1003" y="-621" on="1"/>
        <pt x="828" y="-621" on="1"/>
        <pt x="828" y="519" on="1"/>
        <pt x="623" y="519" on="1"/>
        <pt x="623" y="-621" on="1"/>
      </contour>
    </TTGlyph>
    <TTGlyph name="SF530000" xMin="-23" yMin="-621" xMax="1473" yMax="1864">
      <contour>
        <pt x="447" y="-621" on="1"/>
        <pt x="448" y="534" on="1"/>
        <pt x="-23" y="534" on="1"/>
        <pt x="-23" y="709" on="1"/>
        <pt x="447" y="709" on="1"/>
        <pt x="447" y="1864" on="1"/>
        <pt x="622" y="1864" on="1"/>
        <pt x="622" y="709" on="1"/>
        <pt x="827" y="709" on="1"/>
        <pt x="827" y="1864" on="1"/>
        <pt x="1002" y="1864" on="1"/>
        <pt x="1002" y="709" on="1"/>
        <pt x="1473" y="709" on="1"/>
        <pt x="1473" y="534" on="1"/>
        <pt x="1002" y="534" on="1"/>
        <pt x="1002" y="-621" on="1"/>
        <pt x="827" y="-621" on="1"/>
        <pt x="827" y="534" on="1"/>
        <pt x="622" y="534" on="1"/>
        <pt x="622" y="-621" on="1"/>
      </contour>
    </TTGlyph>
    <TTGlyph name="SF540000" xMin="-23" yMin="-621" xMax="1473" yMax="1864">
      <contour>
        <pt x="637" y="344" on="1"/>
        <pt x="-23" y="344" on="1"/>
        <pt x="-23" y="519" on="1"/>
        <pt x="637" y="519" on="1"/>
        <pt x="637" y="724" on="1"/>
        <pt x="-23" y="724" on="1"/>
        <pt x="-23" y="899" on="1"/>
        <pt x="637" y="899" on="1"/>
        <pt x="637" y="1864" on="1"/>
        <pt x="812" y="1864" on="1"/>
        <pt x="812" y="899" on="1"/>
        <pt x="1473" y="899" on="1"/>
        <pt x="1473" y="724" on="1"/>
        <pt x="812" y="724" on="1"/>
        <pt x="812" y="519" on="1"/>
        <pt x="1473" y="519" on="1"/>
        <pt x="1473" y="344" on="1"/>
        <pt x="812" y="344" on="1"/>
        <pt x="812" y="-621" on="1"/>
        <pt x="637" y="-621" on="1"/>
      </contour>
    </TTGlyph>
    <TTGlyph name="Sacute" xMin="92" yMin="-25" xMax="1259" yMax="1836">
      <component glyphName="S" x="0" y="0" flags="0x204"/>
      <component glyphName="acute" x="270" y="362" flags="0x4"/>
    </TTGlyph>
    <TTGlyph name="Scaron" xMin="92" yMin="-25" xMax="1259" yMax="1830">
      <component glyphName="S" x="0" y="0" flags="0x204"/>
      <component glyphName="caron" x="296" y="356" flags="0x4"/>
    </TTGlyph>
    <TTGlyph name="Scedilla" xMin="92" yMin="-411" xMax="1259" yMax="1491">
      <component glyphName="S" x="0" y="0" flags="0x204"/>
      <component glyphName="cedilla" x="339" y="10" flags="0x4"/>
    </TTGlyph>
    <TTGlyph name="Scircumflex" xMin="92" yMin="-25" xMax="1259" yMax="1830">
      <component glyphName="S" x="0" y="0" flags="0x204"/>
      <component glyphName="circumflex" x="332" y="356" flags="0x4"/>
    </TTGlyph>
    <TTGlyph name="Sigma" xMin="148" yMin="0" xMax="1186" yMax="1466">
      <contour>
        <pt x="1145" y="1466" on="1"/>
        <pt x="1145" y="1293" on="1"/>
        <pt x="358" y="1293" on="1"/>
        <pt x="858" y="761" on="1"/>
        <pt x="358" y="173" on="1"/>
        <pt x="1186" y="173" on="1"/>
        <pt x="1186" y="0" on="1"/>
        <pt x="148" y="0" on="1"/>
        <pt x="148" y="202" on="1"/>
        <pt x="627" y="761" on="1"/>
        <pt x="148" y="1271" on="1"/>
        <pt x="148" y="1466" on="1"/>
      </contour>
    </TTGlyph>
    <TTGlyph name="T" xMin="48" yMin="0" xMax="1210" yMax="1466">
      <contour>
        <pt x="531" y="0" on="1"/>
        <pt x="531" y="1293" on="1"/>
        <pt x="48" y="1293" on="1"/>
        <pt x="48" y="1466" on="1"/>
        <pt x="1210" y="1466" on="1"/>
        <pt x="1210" y="1293" on="1"/>
        <pt x="725" y="1293" on="1"/>
        <pt x="725" y="0" on="1"/>
      </contour>
    </TTGlyph>
    <TTGlyph name="Tau" xMin="48" yMin="0" xMax="1210" yMax="1466">
      <component glyphName="T" x="0" y="0" flags="0x204"/>
    </TTGlyph>
    <TTGlyph name="Tbar" xMin="48" yMin="0" xMax="1210" yMax="1466">
      <contour>
        <pt x="531" y="629" on="1"/>
        <pt x="201" y="629" on="1"/>
        <pt x="201" y="761" on="1"/>
        <pt x="531" y="761" on="1"/>
        <pt x="531" y="1293" on="1"/>
        <pt x="48" y="1293" on="1"/>
        <pt x="48" y="1466" on="1"/>
        <pt x="1210" y="1466" on="1"/>
        <pt x="1210" y="1293" on="1"/>
        <pt x="725" y="1293" on="1"/>
        <pt x="725" y="761" on="1"/>
        <pt x="1053" y="761" on="1"/>
        <pt x="1053" y="629" on="1"/>
        <pt x="725" y="629" on="1"/>
        <pt x="725" y="0" on="1"/>
        <pt x="531" y="0" on="1"/>
      </contour>
    </TTGlyph>
    <TTGlyph name="Tcaron" xMin="48" yMin="0" xMax="1210" yMax="1830">
      <component glyphName="T" x="0" y="0" flags="0x204"/>
      <component glyphName="caron" x="271" y="356" flags="0x4"/>
    </TTGlyph>
    <TTGlyph name="Tcedilla" xMin="48" yMin="-579" xMax="1210" yMax="1466">
      <contour>
        <pt x="531" y="0" on="1"/>
        <pt x="531" y="1293" on="1"/>
        <pt x="48" y="1293" on="1"/>
        <pt x="48" y="1466" on="1"/>
        <pt x="1210" y="1466" on="1"/>
        <pt x="1210" y="1293" on="1"/>
        <pt x="725" y="1293" on="1"/>
        <pt x="725" y="0" on="1"/>
      </contour>
      <contour>
        <pt x="523" y="-326" on="1"/>
        <pt x="523" y="-121" on="1"/>
        <pt x="728" y="-121" on="1"/>
        <pt x="728" y="-326" on="1"/>
        <pt x="728" y="-506" on="0"/>
        <pt x="561" y="-579" on="1"/>
        <pt x="511" y="-503" on="1"/>
        <pt x="571" y="-476" on="0"/>
        <pt x="601" y="-425" on="1"/>
        <pt x="621" y="-392" on="0"/>
        <pt x="625" y="-326" on="1"/>
      </contour>
    </TTGlyph>
    <TTGlyph name="Theta" xMin="96" yMin="-25" xMax="1498" yMax="1492">
      <contour>
        <pt x="96" y="714" on="1"/>
        <pt x="96" y="1080" on="0"/>
        <pt x="490" y="1492" on="0"/>
        <pt x="798" y="1492" on="1"/>
        <pt x="1107" y="1492" on="0"/>
        <pt x="1498" y="1073" on="0"/>
        <pt x="1498" y="731" on="1"/>
        <pt x="1498" y="391" on="0"/>
        <pt x="1104" y="-25" on="0"/>
        <pt x="797" y="-25" on="1"/>
        <pt x="576" y="-25" on="0"/>
        <pt x="243" y="196" on="0"/>
        <pt x="96" y="543" on="0"/>
      </contour>
      <contour>
        <pt x="296" y="711" on="1"/>
        <pt x="296" y="460" on="0"/>
        <pt x="568" y="141" on="0"/>
        <pt x="796" y="141" on="1"/>
        <pt x="1020" y="141" on="0"/>
        <pt x="1298" y="456" on="0"/>
        <pt x="1298" y="732" on="1"/>
        <pt x="1298" y="1012" on="0"/>
        <pt x="1018" y="1325" on="0"/>
        <pt x="799" y="1325" on="1"/>
        <pt x="584" y="1325" on="0"/>
        <pt x="296" y="1031" on="0"/>
      </contour>
      <contour>
        <pt x="507" y="647" on="1"/>
        <pt x="507" y="819" on="1"/>
        <pt x="1087" y="819" on="1"/>
        <pt x="1087" y="647" on="1"/>
      </contour>
    </TTGlyph>
    <TTGlyph name="Thorn" xMin="158" yMin="0" xMax="1277" yMax="1466">
      <contour>
        <pt x="158" y="0" on="1"/>
        <pt x="158" y="1466" on="1"/>
        <pt x="352" y="1466" on="1"/>
        <pt x="352" y="1168" on="1"/>
        <pt x="711" y="1168" on="1"/>
        <pt x="857" y="1168" on="0"/>
        <pt x="935" y="1154" on="1"/>
        <pt x="1043" y="1135" on="0"/>
        <pt x="1189" y="1034" on="0"/>
        <pt x="1277" y="852" on="0"/>
        <pt x="1277" y="743" on="1"/>
        <pt x="1277" y="557" on="0"/>
        <pt x="1039" y="298" on="0"/>
        <pt x="728" y="298" on="1"/>
        <pt x="352" y="298" on="1"/>
        <pt x="352" y="0" on="1"/>
      </contour>
      <contour>
        <pt x="352" y="471" on="1"/>
        <pt x="731" y="471" on="1"/>
        <pt x="919" y="471" on="0"/>
        <pt x="1077" y="611" on="0"/>
        <pt x="1077" y="737" on="1"/>
        <pt x="1077" y="828" on="0"/>
        <pt x="985" y="960" on="0"/>
        <pt x="909" y="981" on="1"/>
        <pt x="860" y="995" on="0"/>
        <pt x="727" y="995" on="1"/>
        <pt x="352" y="995" on="1"/>
      </contour>
    </TTGlyph>
    <TTGlyph name="U" xMin="161" yMin="-25" xMax="1314" yMax="1466">
      <contour>
        <pt x="1120" y="1466" on="1"/>
        <pt x="1314" y="1466" on="1"/>
        <pt x="1314" y="619" on="1"/>
        <pt x="1314" y="398" on="0"/>
        <pt x="1214" y="138" on="0"/>
        <pt x="953" y="-25" on="0"/>
        <pt x="741" y="-25" on="1"/>
        <pt x="535" y="-25" on="0"/>
        <pt x="273" y="117" on="0"/>
        <pt x="161" y="386" on="0"/>
        <pt x="161" y="619" on="1"/>
        <pt x="161" y="1466" on="1"/>
        <pt x="355" y="1466" on="1"/>
        <pt x="355" y="620" on="1"/>
        <pt x="355" y="429" on="0"/>
        <pt x="426" y="248" on="0"/>
        <pt x="599" y="150" on="0"/>
        <pt x="724" y="150" on="1"/>
        <pt x="938" y="150" on="0"/>
        <pt x="1120" y="344" on="0"/>
        <pt x="1120" y="620" on="1"/>
      </contour>
    </TTGlyph>
    <TTGlyph name="Uacute" xMin="161" yMin="-25" xMax="1314" yMax="1836">
      <component glyphName="U" x="0" y="0" flags="0x204"/>
      <component glyphName="acute" x="392" y="362" flags="0x4"/>
    </TTGlyph>
    <TTGlyph name="Ubreve" xMin="161" yMin="-25" xMax="1314" yMax="1820">
      <component glyphName="U" x="0" y="0" flags="0x204"/>
      <component glyphName="breve" x="400" y="356" flags="0x4"/>
    </TTGlyph>
    <TTGlyph name="Ucircumflex" xMin="161" yMin="-25" xMax="1314" yMax="1836">
      <component glyphName="U" x="0" y="0" flags="0x204"/>
      <component glyphName="circumflex" x="392" y="362" flags="0x4"/>
    </TTGlyph>
    <TTGlyph name="Udblacute" xMin="161" yMin="-25" xMax="1314" yMax="1836">
      <component glyphName="U" x="0" y="0" flags="0x204"/>
      <component glyphName="hungarumlaut" x="407" y="362" flags="0x4"/>
    </TTGlyph>
    <TTGlyph name="Udieresis" xMin="161" yMin="-25" xMax="1314" yMax="1761">
      <component glyphName="U" x="0" y="0" flags="0x204"/>
      <component glyphName="dieresis" x="393" y="286" flags="0x4"/>
    </TTGlyph>
    <TTGlyph name="Udotbelow" xMin="161" yMin="-325" xMax="1314" yMax="1466">
      <component glyphName="U" x="0" y="0" flags="0x204"/>
      <component glyphName="f02c" x="880" y="0" flags="0x4"/>
    </TTGlyph>
    <TTGlyph name="Ugrave" xMin="161" yMin="-25" xMax="1314" yMax="1836">
      <component glyphName="U" x="0" y="0" flags="0x204"/>
      <component glyphName="grave" x="389" y="362" flags="0x4"/>
    </TTGlyph>
    <TTGlyph name="Uhookabove" xMin="161" yMin="-25" xMax="1314" yMax="1836">
      <component glyphName="U" x="0" y="0" flags="0x204"/>
      <component glyphName="combininghookabove" x="1000" y="0" flags="0x4"/>
    </TTGlyph>
    <TTGlyph name="Uhorn" xMin="161" yMin="-25" xMax="1666" yMax="1466">
      <contour>
        <pt x="1473" y="1257" on="1"/>
        <pt x="1473" y="1466" on="1"/>
        <pt x="1666" y="1466" on="1"/>
        <pt x="1666" y="1301" on="1"/>
        <pt x="1666" y="1144" on="0"/>
        <pt x="1630" y="1082" on="1"/>
        <pt x="1531" y="909" on="0"/>
        <pt x="1314" y="899" on="1"/>
        <pt x="1314" y="619" on="1"/>
        <pt x="1314" y="394" on="0"/>
        <pt x="1264" y="268" on="1"/>
        <pt x="1212" y="137" on="0"/>
        <pt x="1084" y="57" on="1"/>
        <pt x="953" y="-25" on="0"/>
        <pt x="741" y="-25" on="1"/>
        <pt x="332" y="-25" on="0"/>
        <pt x="217" y="252" on="1"/>
        <pt x="161" y="386" on="0"/>
        <pt x="161" y="619" on="1"/>
        <pt x="161" y="1466" on="1"/>
        <pt x="355" y="1466" on="1"/>
        <pt x="355" y="620" on="1"/>
        <pt x="355" y="431" on="0"/>
        <pt x="391" y="338" on="1"/>
        <pt x="425" y="249" on="0"/>
        <pt x="599" y="150" on="0"/>
        <pt x="724" y="150" on="1"/>
        <pt x="943" y="150" on="0"/>
        <pt x="1029" y="247" on="1"/>
        <pt x="1120" y="349" on="0"/>
        <pt x="1120" y="620" on="1"/>
        <pt x="1120" y="1466" on="1"/>
        <pt x="1314" y="1466" on="1"/>
        <pt x="1314" y="973" on="1"/>
        <pt x="1470" y="989" on="0"/>
        <pt x="1540" y="1097" on="1"/>
        <pt x="1567" y="1139" on="0"/>
        <pt x="1567" y="1257" on="1"/>
      </contour>
    </TTGlyph>
    <TTGlyph name="Uhornacute" xMin="161" yMin="-25" xMax="1666" yMax="1836">
      <component glyphName="Uhorn" x="0" y="0" flags="0x204"/>
      <component glyphName="acute" x="392" y="362" flags="0x4"/>
    </TTGlyph>
    <TTGlyph name="Uhorndotbelow" xMin="161" yMin="-325" xMax="1666" yMax="1466">
      <component glyphName="Uhorn" x="0" y="0" flags="0x204"/>
      <component glyphName="f02c" x="880" y="0" flags="0x4"/>
    </TTGlyph>
    <TTGlyph name="Uhorngrave" xMin="161" yMin="-25" xMax="1666" yMax="1836">
      <component glyphName="Uhorn" x="0" y="0" flags="0x204"/>
      <component glyphName="grave" x="389" y="362" flags="0x4"/>
    </TTGlyph>
    <TTGlyph name="Uhornhookabove" xMin="161" yMin="-25" xMax="1666" yMax="1836">
      <component glyphName="Uhorn" x="0" y="0" flags="0x204"/>
      <component glyphName="combininghookabove" x="1000" y="0" flags="0x4"/>
    </TTGlyph>
    <TTGlyph name="Uhorntilde" xMin="161" yMin="-25" xMax="1666" yMax="1787">
      <component glyphName="Uhorn" x="0" y="0" flags="0x204"/>
      <component glyphName="tilde" x="409" y="337" flags="0x4"/>
    </TTGlyph>
    <TTGlyph name="Umacron" xMin="161" yMin="-25" xMax="1314" yMax="1731">
      <component glyphName="U" x="0" y="0" flags="0x204"/>
      <component glyphName="macron" x="420" y="356" flags="0x4"/>
    </TTGlyph>
    <TTGlyph name="Uogonek" xMin="161" yMin="-426" xMax="1314" yMax="1466">
      <contour>
        <pt x="786" y="-24" on="1"/>
        <pt x="766" y="-95" on="0"/>
        <pt x="766" y="-137" on="1"/>
        <pt x="766" y="-208" on="0"/>
        <pt x="848" y="-292" on="0"/>
        <pt x="910" y="-292" on="1"/>
        <pt x="987" y="-292" on="0"/>
        <pt x="1078" y="-246" on="1"/>
        <pt x="1078" y="-365" on="1"/>
        <pt x="960" y="-426" on="0"/>
        <pt x="859" y="-426" on="1"/>
        <pt x="761" y="-426" on="0"/>
        <pt x="640" y="-306" on="0"/>
        <pt x="640" y="-205" on="1"/>
        <pt x="640" y="-135" on="0"/>
        <pt x="668" y="-22" on="1"/>
        <pt x="399" y="1" on="0"/>
        <pt x="161" y="283" on="0"/>
        <pt x="161" y="619" on="1"/>
        <pt x="161" y="1466" on="1"/>
        <pt x="355" y="1466" on="1"/>
        <pt x="355" y="620" on="1"/>
        <pt x="355" y="429" on="0"/>
        <pt x="428" y="244" on="0"/>
        <pt x="605" y="150" on="0"/>
        <pt x="721" y="150" on="1"/>
        <pt x="940" y="150" on="0"/>
        <pt x="1120" y="346" on="0"/>
        <pt x="1120" y="620" on="1"/>
        <pt x="1120" y="1466" on="1"/>
        <pt x="1314" y="1466" on="1"/>
        <pt x="1314" y="619" on="1"/>
        <pt x="1314" y="426" on="0"/>
        <pt x="1236" y="168" on="0"/>
        <pt x="996" y="-12" on="0"/>
      </contour>
    </TTGlyph>
    <TTGlyph name="Upsilon" xMin="6" yMin="0" xMax="1350" yMax="1466">
      <component glyphName="Y" x="0" y="0" flags="0x204"/>
    </TTGlyph>
    <TTGlyph name="Upsilondieresis" xMin="6" yMin="0" xMax="1350" yMax="1761">
      <component glyphName="Y" x="0" y="0" flags="0x204"/>
      <component glyphName="dieresis" x="336" y="286" flags="0x4"/>
    </TTGlyph>
    <TTGlyph name="Upsilontonos" xMin="-89" yMin="0" xMax="1724" yMax="1466">
      <contour>
        <pt x="945" y="0" on="1"/>
        <pt x="945" y="621" on="1"/>
        <pt x="380" y="1466" on="1"/>
        <pt x="616" y="1466" on="1"/>
        <pt x="905" y="1024" on="1"/>
        <pt x="990" y="893" on="0"/>
        <pt x="1054" y="776" on="1"/>
        <pt x="1120" y="891" on="0"/>
        <pt x="1214" y="1035" on="1"/>
        <pt x="1498" y="1466" on="1"/>
        <pt x="1724" y="1466" on="1"/>
        <pt x="1139" y="621" on="1"/>
        <pt x="1139" y="0" on="1"/>
      </contour>
      <contour>
        <pt x="-89" y="1186" on="1"/>
        <pt x="44" y="1466" on="1"/>
        <pt x="280" y="1466" on="1"/>
        <pt x="60" y="1186" on="1"/>
      </contour>
    </TTGlyph>
    <TTGlyph name="Uring" xMin="161" yMin="-25" xMax="1314" yMax="1922">
      <component glyphName="U" x="0" y="0" flags="0x204"/>
      <component glyphName="ring" x="394" y="405" flags="0x4"/>
    </TTGlyph>
    <TTGlyph name="Utilde" xMin="161" yMin="-25" xMax="1314" yMax="1806">
      <component glyphName="U" x="0" y="0" flags="0x204"/>
      <component glyphName="tilde" x="420" y="356" flags="0x4"/>
    </TTGlyph>
    <TTGlyph name="V" xMin="9" yMin="0" xMax="1350" yMax="1466">
      <contour>
        <pt x="577" y="0" on="1"/>
        <pt x="9" y="1466" on="1"/>
        <pt x="219" y="1466" on="1"/>
        <pt x="600" y="401" on="1"/>
        <pt x="646" y="273" on="0"/>
        <pt x="677" y="161" on="1"/>
        <pt x="711" y="281" on="0"/>
        <pt x="756" y="401" on="1"/>
        <pt x="1152" y="1466" on="1"/>
        <pt x="1350" y="1466" on="1"/>
        <pt x="776" y="0" on="1"/>
      </contour>
    </TTGlyph>
    <TTGlyph name="W" xMin="25" yMin="0" xMax="1910" yMax="1466">
      <contour>
        <pt x="414" y="0" on="1"/>
        <pt x="25" y="1466" on="1"/>
        <pt x="224" y="1466" on="1"/>
        <pt x="447" y="505" on="1"/>
        <pt x="483" y="354" on="0"/>
        <pt x="509" y="205" on="1"/>
        <pt x="565" y="440" on="0"/>
        <pt x="575" y="476" on="1"/>
        <pt x="854" y="1466" on="1"/>
        <pt x="1088" y="1466" on="1"/>
        <pt x="1298" y="724" on="1"/>
        <pt x="1377" y="448" on="0"/>
        <pt x="1412" y="205" on="1"/>
        <pt x="1440" y="344" on="0"/>
        <pt x="1485" y="524" on="1"/>
        <pt x="1715" y="1466" on="1"/>
        <pt x="1910" y="1466" on="1"/>
        <pt x="1508" y="0" on="1"/>
        <pt x="1321" y="0" on="1"/>
        <pt x="1012" y="1117" on="1"/>
        <pt x="973" y="1257" on="0"/>
        <pt x="966" y="1289" on="1"/>
        <pt x="943" y="1188" on="0"/>
        <pt x="923" y="1117" on="1"/>
        <pt x="612" y="0" on="1"/>
      </contour>
    </TTGlyph>
    <TTGlyph name="Wacute" xMin="25" yMin="0" xMax="1910" yMax="1836">
      <component glyphName="W" x="0" y="0" flags="0x204"/>
      <component glyphName="acute" x="650" y="362" flags="0x4"/>
    </TTGlyph>
    <TTGlyph name="Wcircumflex" xMin="25" yMin="0" xMax="1910" yMax="1836">
      <component glyphName="W" x="0" y="0" flags="0x204"/>
      <component glyphName="circumflex" x="620" y="362" flags="0x4"/>
    </TTGlyph>
    <TTGlyph name="Wdieresis" xMin="25" yMin="0" xMax="1910" yMax="1761">
      <component glyphName="W" x="0" y="0" flags="0x204"/>
      <component glyphName="dieresis" x="620" y="286" flags="0x4"/>
    </TTGlyph>
    <TTGlyph name="Wgrave" xMin="25" yMin="0" xMax="1910" yMax="1836">
      <component glyphName="W" x="0" y="0" flags="0x204"/>
      <component glyphName="grave" x="650" y="362" flags="0x4"/>
    </TTGlyph>
    <TTGlyph name="X" xMin="9" yMin="0" xMax="1353" yMax="1466">
      <contour>
        <pt x="9" y="0" on="1"/>
        <pt x="576" y="764" on="1"/>
        <pt x="76" y="1466" on="1"/>
        <pt x="307" y="1466" on="1"/>
        <pt x="573" y="1090" on="1"/>
        <pt x="656" y="973" on="0"/>
        <pt x="691" y="910" on="1"/>
        <pt x="740" y="990" on="0"/>
        <pt x="807" y="1077" on="1"/>
        <pt x="1102" y="1466" on="1"/>
        <pt x="1313" y="1466" on="1"/>
        <pt x="798" y="775" on="1"/>
        <pt x="1353" y="0" on="1"/>
        <pt x="1113" y="0" on="1"/>
        <pt x="744" y="523" on="1"/>
        <pt x="713" y="568" on="0"/>
        <pt x="680" y="621" on="1"/>
        <pt x="631" y="541" on="0"/>
        <pt x="610" y="511" on="1"/>
        <pt x="242" y="0" on="1"/>
      </contour>
    </TTGlyph>
    <TTGlyph name="Xi" xMin="109" yMin="0" xMax="1222" yMax="1466">
      <contour>
        <pt x="136" y="1466" on="1"/>
        <pt x="1195" y="1466" on="1"/>
        <pt x="1195" y="1293" on="1"/>
        <pt x="136" y="1293" on="1"/>
      </contour>
      <contour>
        <pt x="230" y="819" on="1"/>
        <pt x="1101" y="819" on="1"/>
        <pt x="1101" y="647" on="1"/>
        <pt x="230" y="647" on="1"/>
      </contour>
      <contour>
        <pt x="109" y="173" on="1"/>
        <pt x="1222" y="173" on="1"/>
        <pt x="1222" y="0" on="1"/>
        <pt x="109" y="0" on="1"/>
      </contour>
    </TTGlyph>
    <TTGlyph name="Y" xMin="6" yMin="0" xMax="1350" yMax="1466">
      <contour>
        <pt x="571" y="0" on="1"/>
        <pt x="571" y="621" on="1"/>
        <pt x="6" y="1466" on="1"/>
        <pt x="242" y="1466" on="1"/>
        <pt x="531" y="1024" on="1"/>
        <pt x="611" y="900" on="0"/>
        <pt x="680" y="776" on="1"/>
        <pt x="746" y="891" on="0"/>
        <pt x="840" y="1035" on="1"/>
        <pt x="1124" y="1466" on="1"/>
        <pt x="1350" y="1466" on="1"/>
        <pt x="765" y="621" on="1"/>
        <pt x="765" y="0" on="1"/>
      </contour>
    </TTGlyph>
    <TTGlyph name="Yacute" xMin="6" yMin="0" xMax="1350" yMax="1836">
      <component glyphName="Y" x="0" y="0" flags="0x204"/>
      <component glyphName="acute" x="333" y="362" flags="0x4"/>
    </TTGlyph>
    <TTGlyph name="Ycircumflex" xMin="6" yMin="0" xMax="1350" yMax="1836">
      <component glyphName="Y" x="0" y="0" flags="0x204"/>
      <component glyphName="circumflex" x="365" y="362" flags="0x4"/>
    </TTGlyph>
    <TTGlyph name="Ydieresis" xMin="6" yMin="0" xMax="1350" yMax="1761">
      <component glyphName="Y" x="0" y="0" flags="0x204"/>
      <component glyphName="dieresis" x="336" y="286" flags="0x4"/>
    </TTGlyph>
    <TTGlyph name="Ydotbelow" xMin="6" yMin="-325" xMax="1350" yMax="1466">
      <component glyphName="Y" x="0" y="0" flags="0x204"/>
      <component glyphName="f02c" x="820" y="0" flags="0x4"/>
    </TTGlyph>
    <TTGlyph name="Ygrave" xMin="6" yMin="0" xMax="1350" yMax="1836">
      <component glyphName="Y" x="0" y="0" flags="0x204"/>
      <component glyphName="grave" x="333" y="362" flags="0x4"/>
    </TTGlyph>
    <TTGlyph name="Yhookabove" xMin="6" yMin="0" xMax="1350" yMax="1836">
      <component glyphName="Y" x="0" y="0" flags="0x204"/>
      <component glyphName="combininghookabove" x="950" y="0" flags="0x4"/>
    </TTGlyph>
    <TTGlyph name="Ytilde" xMin="6" yMin="0" xMax="1350" yMax="1787">
      <component glyphName="Y" x="0" y="0" flags="0x204"/>
      <component glyphName="tilde" x="360" y="337" flags="0x4"/>
    </TTGlyph>
    <TTGlyph name="Z" xMin="41" yMin="0" xMax="1200" yMax="1466">
      <contour>
        <pt x="41" y="0" on="1"/>
        <pt x="41" y="180" on="1"/>
        <pt x="792" y="1119" on="1"/>
        <pt x="872" y="1219" on="0"/>
        <pt x="944" y="1293" on="1"/>
        <pt x="126" y="1293" on="1"/>
        <pt x="126" y="1466" on="1"/>
        <pt x="1176" y="1466" on="1"/>
        <pt x="1176" y="1293" on="1"/>
        <pt x="353" y="276" on="1"/>
        <pt x="264" y="173" on="1"/>
        <pt x="1200" y="173" on="1"/>
        <pt x="1200" y="0" on="1"/>
      </contour>
    </TTGlyph>
    <TTGlyph name="Zacute" xMin="41" yMin="0" xMax="1200" yMax="1836">
      <component glyphName="Z" x="0" y="0" flags="0x204"/>
      <component glyphName="acute" x="251" y="362" flags="0x4"/>
    </TTGlyph>
    <TTGlyph name="Zcaron" xMin="41" yMin="0" xMax="1200" yMax="1830">
      <component glyphName="Z" x="0" y="0" flags="0x204"/>
      <component glyphName="caron" x="276" y="356" flags="0x4"/>
    </TTGlyph>
    <TTGlyph name="Zdot" xMin="41" yMin="0" xMax="1200" yMax="1780">
      <component glyphName="Z" x="0" y="0" flags="0x204"/>
      <component glyphName="dotaccent" x="304" y="362" flags="0x4"/>
    </TTGlyph>
    <TTGlyph name="Zeta" xMin="41" yMin="0" xMax="1200" yMax="1466">
      <component glyphName="Z" x="0" y="0" flags="0x204"/>
    </TTGlyph>
    <TTGlyph name="a" xMin="74" yMin="-24" xMax="1052" yMax="1086">
      <contour>
        <pt x="828" y="131" on="1"/>
        <pt x="728" y="46" on="0"/>
        <pt x="543" y="-24" on="0"/>
        <pt x="437" y="-24" on="1"/>
        <pt x="262" y="-24" on="0"/>
        <pt x="74" y="147" on="0"/>
        <pt x="74" y="280" on="1"/>
        <pt x="74" y="358" on="0"/>
        <pt x="145" y="487" on="0"/>
        <pt x="260" y="565" on="0"/>
        <pt x="332" y="585" on="1"/>
        <pt x="385" y="599" on="0"/>
        <pt x="492" y="612" on="1"/>
        <pt x="710" y="638" on="0"/>
        <pt x="813" y="674" on="1"/>
        <pt x="814" y="711" on="0"/>
        <pt x="814" y="721" on="1"/>
        <pt x="814" y="831" on="0"/>
        <pt x="763" y="876" on="1"/>
        <pt x="694" y="937" on="0"/>
        <pt x="558" y="937" on="1"/>
        <pt x="431" y="937" on="0"/>
        <pt x="310" y="848" on="0"/>
        <pt x="281" y="735" on="1"/>
        <pt x="105" y="759" on="1"/>
        <pt x="129" y="872" on="0"/>
        <pt x="239" y="1011" on="0"/>
        <pt x="447" y="1086" on="0"/>
        <pt x="584" y="1086" on="1"/>
        <pt x="720" y="1086" on="0"/>
        <pt x="890" y="1022" on="0"/>
        <pt x="970" y="925" on="0"/>
        <pt x="986" y="851" on="1"/>
        <pt x="995" y="805" on="0"/>
        <pt x="995" y="685" on="1"/>
        <pt x="995" y="445" on="1"/>
        <pt x="995" y="194" on="0"/>
        <pt x="1018" y="61" on="0"/>
        <pt x="1052" y="0" on="1"/>
        <pt x="864" y="0" on="1"/>
        <pt x="836" y="56" on="0"/>
      </contour>
      <contour>
        <pt x="813" y="533" on="1"/>
        <pt x="715" y="493" on="0"/>
        <pt x="519" y="465" on="1"/>
        <pt x="408" y="449" on="0"/>
        <pt x="316" y="409" on="0"/>
        <pt x="266" y="332" on="0"/>
        <pt x="266" y="285" on="1"/>
        <pt x="266" y="213" on="0"/>
        <pt x="375" y="117" on="0"/>
        <pt x="480" y="117" on="1"/>
        <pt x="584" y="117" on="0"/>
        <pt x="746" y="208" on="0"/>
        <pt x="784" y="287" on="1"/>
        <pt x="813" y="348" on="0"/>
        <pt x="813" y="467" on="1"/>
      </contour>
    </TTGlyph>
    <TTGlyph name="aacute" xMin="74" yMin="-24" xMax="1052" yMax="1474">
      <component glyphName="a" x="0" y="0" flags="0x204"/>
      <component glyphName="acute" x="241" y="0" flags="0x4"/>
    </TTGlyph>
    <TTGlyph name="abreve" xMin="74" yMin="-24" xMax="1052" yMax="1464">
      <component glyphName="a" x="0" y="0" flags="0x204"/>
      <component glyphName="breve" x="245" y="0" flags="0x4"/>
    </TTGlyph>
    <TTGlyph name="abreveacute" xMin="74" yMin="-24" xMax="1052" yMax="1827">
      <component glyphName="a" x="0" y="0" flags="0x204"/>
      <component glyphName="breve" x="245" y="0" flags="0x4"/>
      <component glyphName="combiningacuteaccent" x="840" y="0" flags="0x4"/>
    </TTGlyph>
    <TTGlyph name="abrevedotbelow" xMin="74" yMin="-325" xMax="1052" yMax="1464">
      <component glyphName="a" x="0" y="0" flags="0x204"/>
      <component glyphName="breve" x="245" y="0" flags="0x4"/>
      <component glyphName="f02c" x="712" y="0" flags="0x4"/>
    </TTGlyph>
    <TTGlyph name="abrevegrave" xMin="74" yMin="-24" xMax="1052" yMax="1827">
      <component glyphName="a" x="0" y="0" flags="0x204"/>
      <component glyphName="breve" x="245" y="0" flags="0x4"/>
      <component glyphName="combininggraveaccent" x="860" y="0" flags="0x4"/>
    </TTGlyph>
    <TTGlyph name="abrevehookabove" xMin="74" yMin="-24" xMax="1052" yMax="1836">
      <component glyphName="a" x="0" y="0" flags="0x204"/>
      <component glyphName="breve" x="245" y="0" flags="0x4"/>
      <component glyphName="combininghookabove" x="860" y="0" flags="0x4"/>
    </TTGlyph>
    <TTGlyph name="abrevetilde" xMin="74" yMin="-24" xMax="1052" yMax="1778">
      <component glyphName="a" x="0" y="0" flags="0x204"/>
      <component glyphName="breve" x="245" y="0" flags="0x4"/>
      <component glyphName="combiningtildeaccent" x="1180" y="0" flags="0x4"/>
    </TTGlyph>
    <TTGlyph name="acircumflex" xMin="74" yMin="-24" xMax="1052" yMax="1474">
      <component glyphName="a" x="0" y="0" flags="0x204"/>
      <component glyphName="circumflex" x="222" y="0" flags="0x4"/>
    </TTGlyph>
    <TTGlyph name="acircumflexacute" xMin="74" yMin="-24" xMax="1052" yMax="1827">
      <component glyphName="a" x="0" y="0" flags="0x204"/>
      <component glyphName="circumflex" x="222" y="0" flags="0x4"/>
      <component glyphName="combiningacuteaccent" x="843" y="0" flags="0x4"/>
    </TTGlyph>
    <TTGlyph name="acircumflexdotbelow" xMin="74" yMin="-325" xMax="1052" yMax="1474">
      <component glyphName="a" x="0" y="0" flags="0x204"/>
      <component glyphName="circumflex" x="222" y="0" flags="0x4"/>
      <component glyphName="f02c" x="712" y="0" flags="0x4"/>
    </TTGlyph>
    <TTGlyph name="acircumflexgrave" xMin="74" yMin="-24" xMax="1052" yMax="1827">
      <component glyphName="a" x="0" y="0" flags="0x204"/>
      <component glyphName="circumflex" x="222" y="0" flags="0x4"/>
      <component glyphName="combininggraveaccent" x="813" y="0" flags="0x4"/>
    </TTGlyph>
    <TTGlyph name="acircumflexhookabove" xMin="74" yMin="-24" xMax="1052" yMax="1836">
      <component glyphName="a" x="0" y="0" flags="0x204"/>
      <component glyphName="circumflex" x="222" y="0" flags="0x4"/>
      <component glyphName="combininghookabove" x="840" y="0" flags="0x4"/>
    </TTGlyph>
    <TTGlyph name="acircumflextilde" xMin="74" yMin="-24" xMax="1052" yMax="1778">
      <component glyphName="a" x="0" y="0" flags="0x204"/>
      <component glyphName="circumflex" x="222" y="0" flags="0x4"/>
      <component glyphName="combiningtildeaccent" x="1140" y="0" flags="0x4"/>
    </TTGlyph>
    <TTGlyph name="acute" xMin="222" yMin="1194" xMax="591" yMax="1474">
      <contour>
        <pt x="222" y="1194" on="1"/>
        <pt x="355" y="1474" on="1"/>
        <pt x="591" y="1474" on="1"/>
        <pt x="371" y="1194" on="1"/>
      </contour>
    </TTGlyph>
    <TTGlyph name="adieresis" xMin="74" yMin="-24" xMax="1052" yMax="1475">
      <component glyphName="a" x="0" y="0" flags="0x204"/>
      <component glyphName="dieresis" x="222" y="0" flags="0x4"/>
    </TTGlyph>
    <TTGlyph name="adotbelow" xMin="74" yMin="-325" xMax="1052" yMax="1086">
      <component glyphName="a" x="0" y="0" flags="0x204"/>
      <component glyphName="f02c" x="712" y="0" flags="0x4"/>
    </TTGlyph>
    <TTGlyph name="ae" xMin="68" yMin="-24" xMax="1738" yMax="1086">
      <contour>
        <pt x="1734" y="325" on="1"/>
        <pt x="1684" y="158" on="0"/>
        <pt x="1444" y="-24" on="0"/>
        <pt x="1266" y="-24" on="1"/>
        <pt x="1139" y="-24" on="0"/>
        <pt x="948" y="72" on="0"/>
        <pt x="871" y="174" on="1"/>
        <pt x="767" y="72" on="0"/>
        <pt x="554" y="-24" on="0"/>
        <pt x="431" y="-24" on="1"/>
        <pt x="259" y="-24" on="0"/>
        <pt x="68" y="153" on="0"/>
        <pt x="68" y="280" on="1"/>
        <pt x="68" y="366" on="0"/>
        <pt x="167" y="517" on="0"/>
        <pt x="344" y="595" on="0"/>
        <pt x="538" y="620" on="1"/>
        <pt x="688" y="640" on="0"/>
        <pt x="790" y="669" on="1"/>
        <pt x="791" y="694" on="0"/>
        <pt x="791" y="710" on="1"/>
        <pt x="791" y="836" on="0"/>
        <pt x="686" y="937" on="0"/>
        <pt x="555" y="937" on="1"/>
        <pt x="468" y="937" on="0"/>
        <pt x="348" y="895" on="0"/>
        <pt x="291" y="818" on="0"/>
        <pt x="272" y="733" on="1"/>
        <pt x="97" y="754" on="1"/>
        <pt x="125" y="871" on="0"/>
        <pt x="230" y="1008" on="0"/>
        <pt x="426" y="1086" on="0"/>
        <pt x="557" y="1086" on="1"/>
        <pt x="724" y="1086" on="0"/>
        <pt x="826" y="1036" on="1"/>
        <pt x="885" y="1007" on="0"/>
        <pt x="925" y="943" on="1"/>
        <pt x="989" y="1013" on="0"/>
        <pt x="1151" y="1086" on="0"/>
        <pt x="1266" y="1086" on="1"/>
        <pt x="1428" y="1086" on="0"/>
        <pt x="1640" y="929" on="0"/>
        <pt x="1738" y="671" on="0"/>
        <pt x="1738" y="546" on="1"/>
        <pt x="1738" y="527" on="0"/>
        <pt x="1736" y="485" on="1"/>
        <pt x="969" y="485" on="1"/>
        <pt x="971" y="341" on="0"/>
        <pt x="1038" y="211" on="0"/>
        <pt x="1185" y="124" on="0"/>
        <pt x="1273" y="124" on="1"/>
        <pt x="1376" y="124" on="0"/>
        <pt x="1519" y="242" on="0"/>
        <pt x="1546" y="349" on="1"/>
      </contour>
      <contour>
        <pt x="969" y="633" on="1"/>
        <pt x="1553" y="633" on="1"/>
        <pt x="1539" y="791" on="0"/>
        <pt x="1387" y="937" on="0"/>
        <pt x="1265" y="937" on="1"/>
        <pt x="1139" y="937" on="0"/>
        <pt x="978" y="777" on="0"/>
      </contour>
      <contour>
        <pt x="793" y="533" on="1"/>
        <pt x="714" y="499" on="0"/>
        <pt x="471" y="460" on="1"/>
        <pt x="362" y="443" on="0"/>
        <pt x="318" y="409" on="1"/>
        <pt x="259" y="362" on="0"/>
        <pt x="259" y="286" on="1"/>
        <pt x="259" y="215" on="0"/>
        <pt x="365" y="118" on="0"/>
        <pt x="466" y="118" on="1"/>
        <pt x="581" y="118" on="0"/>
        <pt x="752" y="232" on="0"/>
        <pt x="778" y="317" on="1"/>
        <pt x="793" y="369" on="0"/>
      </contour>
    </TTGlyph>
    <TTGlyph name="aeacute" xMin="68" yMin="-24" xMax="1738" yMax="1474">
      <component glyphName="ae" x="0" y="0" flags="0x204"/>
      <component glyphName="acute" x="600" y="0" flags="0x4"/>
    </TTGlyph>
    <TTGlyph name="afii00208" xMin="65" yMin="458" xMax="1984" yMax="603">
      <contour>
        <pt x="65" y="458" on="1"/>
        <pt x="65" y="603" on="1"/>
        <pt x="1984" y="603" on="1"/>
        <pt x="1984" y="458" on="1"/>
      </contour>
    </TTGlyph>
    <TTGlyph name="afii08941" xMin="27" yMin="-28" xMax="1082" yMax="1491">
      <contour>
        <pt x="433" y="614" on="1"/>
        <pt x="711" y="614" on="1"/>
        <pt x="711" y="466" on="1"/>
        <pt x="429" y="466" on="1"/>
        <pt x="396" y="322" on="0"/>
        <pt x="268" y="191" on="1"/>
        <pt x="345" y="213" on="0"/>
        <pt x="409" y="213" on="1"/>
        <pt x="496" y="213" on="0"/>
        <pt x="599" y="188" on="1"/>
        <pt x="769" y="147" on="0"/>
        <pt x="837" y="147" on="1"/>
        <pt x="906" y="147" on="0"/>
        <pt x="1024" y="203" on="1"/>
        <pt x="1082" y="38" on="1"/>
        <pt x="936" y="-25" on="0"/>
        <pt x="844" y="-25" on="1"/>
        <pt x="770" y="-25" on="0"/>
        <pt x="626" y="19" on="1"/>
        <pt x="475" y="65" on="0"/>
        <pt x="405" y="65" on="1"/>
        <pt x="240" y="65" on="0"/>
        <pt x="96" y="-28" on="1"/>
        <pt x="27" y="145" on="1"/>
        <pt x="221" y="257" on="0"/>
        <pt x="253" y="466" on="1"/>
        <pt x="44" y="466" on="1"/>
        <pt x="44" y="614" on="1"/>
        <pt x="253" y="614" on="1"/>
        <pt x="249" y="645" on="0"/>
        <pt x="212" y="762" on="1"/>
        <pt x="44" y="762" on="1"/>
        <pt x="44" y="910" on="1"/>
        <pt x="170" y="910" on="1"/>
        <pt x="147" y="1000" on="0"/>
        <pt x="147" y="1077" on="1"/>
        <pt x="147" y="1271" on="0"/>
        <pt x="412" y="1491" on="0"/>
        <pt x="605" y="1491" on="1"/>
        <pt x="771" y="1491" on="0"/>
        <pt x="1018" y="1300" on="0"/>
        <pt x="1044" y="1112" on="1"/>
        <pt x="865" y="1085" on="1"/>
        <pt x="852" y="1198" on="0"/>
        <pt x="704" y="1343" on="0"/>
        <pt x="597" y="1343" on="1"/>
        <pt x="480" y="1343" on="0"/>
        <pt x="339" y="1193" on="0"/>
        <pt x="339" y="1101" on="1"/>
        <pt x="339" y="1043" on="0"/>
        <pt x="367" y="910" on="1"/>
        <pt x="711" y="910" on="1"/>
        <pt x="711" y="762" on="1"/>
        <pt x="401" y="762" on="1"/>
        <pt x="427" y="657" on="0"/>
      </contour>
    </TTGlyph>
    <TTGlyph name="afii10017" xMin="-3" yMin="0" xMax="1369" yMax="1466">
      <component glyphName="A" x="0" y="0" flags="0x204"/>
    </TTGlyph>
    <TTGlyph name="afii10018" xMin="167" yMin="0" xMax="1272" yMax="1466">
      <contour>
        <pt x="167" y="1466" on="1"/>
        <pt x="1118" y="1466" on="1"/>
        <pt x="1118" y="1293" on="1"/>
        <pt x="361" y="1293" on="1"/>
        <pt x="361" y="841" on="1"/>
        <pt x="711" y="841" on="1"/>
        <pt x="905" y="841" on="0"/>
        <pt x="1134" y="767" on="0"/>
        <pt x="1272" y="562" on="0"/>
        <pt x="1272" y="426" on="1"/>
        <pt x="1272" y="315" on="0"/>
        <pt x="1173" y="122" on="0"/>
        <pt x="977" y="0" on="0"/>
        <pt x="741" y="0" on="1"/>
        <pt x="167" y="0" on="1"/>
      </contour>
      <contour>
        <pt x="361" y="165" on="1"/>
        <pt x="749" y="165" on="1"/>
        <pt x="906" y="165" on="0"/>
        <pt x="1063" y="293" on="0"/>
        <pt x="1063" y="421" on="1"/>
        <pt x="1063" y="512" on="0"/>
        <pt x="973" y="634" on="0"/>
        <pt x="813" y="674" on="0"/>
        <pt x="620" y="674" on="1"/>
        <pt x="361" y="674" on="1"/>
      </contour>
    </TTGlyph>
    <TTGlyph name="afii10019" xMin="150" yMin="0" xMax="1257" yMax="1466">
      <component glyphName="B" x="0" y="0" flags="0x204"/>
    </TTGlyph>
    <TTGlyph name="afii10020" xMin="161" yMin="0" xMax="1109" yMax="1466">
      <contour>
        <pt x="161" y="1466" on="1"/>
        <pt x="1109" y="1466" on="1"/>
        <pt x="1109" y="1293" on="1"/>
        <pt x="355" y="1293" on="1"/>
        <pt x="355" y="0" on="1"/>
        <pt x="161" y="0" on="1"/>
      </contour>
    </TTGlyph>
    <TTGlyph name="afii10021" xMin="0" yMin="-342" xMax="1315" yMax="1466">
      <contour>
        <pt x="291" y="1466" on="1"/>
        <pt x="1183" y="1466" on="1"/>
        <pt x="1183" y="173" on="1"/>
        <pt x="1315" y="173" on="1"/>
        <pt x="1315" y="-342" on="1"/>
        <pt x="1142" y="-342" on="1"/>
        <pt x="1142" y="0" on="1"/>
        <pt x="173" y="0" on="1"/>
        <pt x="173" y="-342" on="1"/>
        <pt x="0" y="-342" on="1"/>
        <pt x="0" y="173" on="1"/>
        <pt x="114" y="173" on="1"/>
        <pt x="291" y="440" on="0"/>
        <pt x="291" y="1252" on="1"/>
      </contour>
      <contour>
        <pt x="989" y="1293" on="1"/>
        <pt x="478" y="1293" on="1"/>
        <pt x="478" y="1218" on="1"/>
        <pt x="478" y="1031" on="0"/>
        <pt x="411" y="382" on="0"/>
        <pt x="313" y="173" on="1"/>
        <pt x="989" y="173" on="1"/>
      </contour>
    </TTGlyph>
    <TTGlyph name="afii10022" xMin="162" yMin="0" xMax="1256" yMax="1466">
      <component glyphName="E" x="0" y="0" flags="0x204"/>
    </TTGlyph>
    <TTGlyph name="afii10023" xMin="162" yMin="0" xMax="1256" yMax="1761">
      <component glyphName="E" x="0" y="0" flags="0x204"/>
      <component glyphName="dieresis" x="350" y="286" flags="0x4"/>
    </TTGlyph>
    <TTGlyph name="afii10024" xMin="7" yMin="0" xMax="1883" yMax="1467">
      <contour>
        <pt x="1045" y="1466" on="1"/>
        <pt x="1045" y="824" on="1"/>
        <pt x="1188" y="824" on="0"/>
        <pt x="1295" y="929" on="0"/>
        <pt x="1378" y="1123" on="1"/>
        <pt x="1439" y="1267" on="0"/>
        <pt x="1518" y="1386" on="0"/>
        <pt x="1664" y="1467" on="0"/>
        <pt x="1751" y="1467" on="1"/>
        <pt x="1846" y="1467" on="0"/>
        <pt x="1869" y="1465" on="1"/>
        <pt x="1869" y="1297" on="1"/>
        <pt x="1860" y="1297" on="0"/>
        <pt x="1831" y="1298" on="1"/>
        <pt x="1799" y="1299" on="0"/>
        <pt x="1792" y="1299" on="1"/>
        <pt x="1699" y="1299" on="0"/>
        <pt x="1654" y="1254" on="1"/>
        <pt x="1608" y="1209" on="0"/>
        <pt x="1549" y="1062" on="1"/>
        <pt x="1485" y="903" on="0"/>
        <pt x="1391" y="788" on="0"/>
        <pt x="1302" y="750" on="1"/>
        <pt x="1446" y="710" on="0"/>
        <pt x="1581" y="488" on="1"/>
        <pt x="1883" y="0" on="1"/>
        <pt x="1643" y="0" on="1"/>
        <pt x="1398" y="398" on="1"/>
        <pt x="1300" y="556" on="0"/>
        <pt x="1166" y="686" on="0"/>
        <pt x="1045" y="686" on="1"/>
        <pt x="1045" y="0" on="1"/>
        <pt x="846" y="0" on="1"/>
        <pt x="846" y="686" on="1"/>
        <pt x="750" y="686" on="0"/>
        <pt x="603" y="585" on="0"/>
        <pt x="505" y="418" on="1"/>
        <pt x="493" y="398" on="1"/>
        <pt x="248" y="0" on="1"/>
        <pt x="7" y="0" on="1"/>
        <pt x="309" y="488" on="1"/>
        <pt x="447" y="711" on="0"/>
        <pt x="589" y="750" on="1"/>
        <pt x="510" y="782" on="0"/>
        <pt x="410" y="889" on="0"/>
        <pt x="341" y="1062" on="1"/>
        <pt x="278" y="1219" on="0"/>
        <pt x="233" y="1259" on="1"/>
        <pt x="188" y="1299" on="0"/>
        <pt x="99" y="1299" on="1"/>
        <pt x="21" y="1297" on="1"/>
        <pt x="21" y="1465" on="1"/>
        <pt x="32" y="1467" on="0"/>
        <pt x="133" y="1467" on="1"/>
        <pt x="229" y="1467" on="0"/>
        <pt x="370" y="1388" on="0"/>
        <pt x="450" y="1269" on="0"/>
        <pt x="513" y="1123" on="1"/>
        <pt x="597" y="926" on="0"/>
        <pt x="702" y="826" on="0"/>
        <pt x="846" y="824" on="1"/>
        <pt x="846" y="1466" on="1"/>
      </contour>
    </TTGlyph>
    <TTGlyph name="afii10025" xMin="78" yMin="-25" xMax="1154" yMax="1491">
      <contour>
        <pt x="78" y="414" on="1"/>
        <pt x="263" y="462" on="1"/>
        <pt x="284" y="355" on="0"/>
        <pt x="467" y="141" on="0"/>
        <pt x="618" y="141" on="1"/>
        <pt x="772" y="141" on="0"/>
        <pt x="950" y="299" on="0"/>
        <pt x="950" y="411" on="1"/>
        <pt x="950" y="532" on="0"/>
        <pt x="762" y="675" on="0"/>
        <pt x="600" y="675" on="1"/>
        <pt x="507" y="675" on="1"/>
        <pt x="507" y="844" on="1"/>
        <pt x="641" y="844" on="0"/>
        <pt x="783" y="875" on="0"/>
        <pt x="892" y="1002" on="0"/>
        <pt x="892" y="1083" on="1"/>
        <pt x="892" y="1179" on="0"/>
        <pt x="743" y="1321" on="0"/>
        <pt x="616" y="1321" on="1"/>
        <pt x="505" y="1321" on="0"/>
        <pt x="348" y="1210" on="0"/>
        <pt x="288" y="1027" on="0"/>
        <pt x="288" y="982" on="1"/>
        <pt x="102" y="1024" on="1"/>
        <pt x="171" y="1491" on="0"/>
        <pt x="618" y="1491" on="1"/>
        <pt x="833" y="1491" on="0"/>
        <pt x="1085" y="1252" on="0"/>
        <pt x="1085" y="1092" on="1"/>
        <pt x="1085" y="887" on="0"/>
        <pt x="891" y="774" on="1"/>
        <pt x="1003" y="743" on="0"/>
        <pt x="1154" y="552" on="0"/>
        <pt x="1154" y="419" on="1"/>
        <pt x="1154" y="230" on="0"/>
        <pt x="861" y="-25" on="0"/>
        <pt x="619" y="-25" on="1"/>
        <pt x="203" y="-25" on="0"/>
      </contour>
    </TTGlyph>
    <TTGlyph name="afii10026" xMin="161" yMin="0" xMax="1312" yMax="1466">
      <contour>
        <pt x="161" y="1466" on="1"/>
        <pt x="337" y="1466" on="1"/>
        <pt x="337" y="305" on="1"/>
        <pt x="1117" y="1466" on="1"/>
        <pt x="1312" y="1466" on="1"/>
        <pt x="1312" y="0" on="1"/>
        <pt x="1136" y="0" on="1"/>
        <pt x="1136" y="1158" on="1"/>
        <pt x="355" y="0" on="1"/>
        <pt x="161" y="0" on="1"/>
      </contour>
    </TTGlyph>
    <TTGlyph name="afii10027" xMin="161" yMin="0" xMax="1312" yMax="1815">
      <component glyphName="afii10026" x="0" y="0" flags="0x204"/>
      <component glyphName="breve" x="376" y="351" flags="0x4"/>
    </TTGlyph>
    <TTGlyph name="afii10028" xMin="161" yMin="0" xMax="1186" yMax="1467">
      <contour>
        <pt x="161" y="1466" on="1"/>
        <pt x="355" y="1466" on="1"/>
        <pt x="355" y="824" on="1"/>
        <pt x="488" y="824" on="0"/>
        <pt x="596" y="927" on="0"/>
        <pt x="680" y="1123" on="1"/>
        <pt x="741" y="1267" on="0"/>
        <pt x="820" y="1386" on="0"/>
        <pt x="966" y="1467" on="0"/>
        <pt x="1054" y="1467" on="1"/>
        <pt x="1166" y="1467" on="0"/>
        <pt x="1172" y="1465" on="1"/>
        <pt x="1172" y="1297" on="1"/>
        <pt x="1162" y="1297" on="0"/>
        <pt x="1133" y="1298" on="1"/>
        <pt x="1101" y="1299" on="0"/>
        <pt x="1094" y="1299" on="1"/>
        <pt x="1001" y="1299" on="0"/>
        <pt x="956" y="1254" on="1"/>
        <pt x="910" y="1209" on="0"/>
        <pt x="851" y="1062" on="1"/>
        <pt x="777" y="876" on="0"/>
        <pt x="675" y="779" on="0"/>
        <pt x="604" y="750" on="1"/>
        <pt x="746" y="711" on="0"/>
        <pt x="884" y="488" on="1"/>
        <pt x="1186" y="0" on="1"/>
        <pt x="945" y="0" on="1"/>
        <pt x="700" y="398" on="1"/>
        <pt x="599" y="563" on="0"/>
        <pt x="463" y="686" on="0"/>
        <pt x="355" y="686" on="1"/>
        <pt x="355" y="0" on="1"/>
        <pt x="161" y="0" on="1"/>
      </contour>
    </TTGlyph>
    <TTGlyph name="afii10029" xMin="18" yMin="-25" xMax="1183" yMax="1466">
      <contour>
        <pt x="265" y="1466" on="1"/>
        <pt x="1183" y="1466" on="1"/>
        <pt x="1183" y="0" on="1"/>
        <pt x="989" y="0" on="1"/>
        <pt x="989" y="1293" on="1"/>
        <pt x="459" y="1293" on="1"/>
        <pt x="459" y="538" on="1"/>
        <pt x="459" y="308" on="0"/>
        <pt x="416" y="94" on="0"/>
        <pt x="278" y="-25" on="0"/>
        <pt x="172" y="-25" on="1"/>
        <pt x="108" y="-25" on="0"/>
        <pt x="18" y="-1" on="1"/>
        <pt x="51" y="171" on="1"/>
        <pt x="99" y="151" on="0"/>
        <pt x="133" y="151" on="1"/>
        <pt x="199" y="151" on="0"/>
        <pt x="265" y="250" on="0"/>
        <pt x="265" y="434" on="1"/>
      </contour>
    </TTGlyph>
    <TTGlyph name="afii10030" xMin="152" yMin="0" xMax="1551" yMax="1466">
      <component glyphName="M" x="0" y="0" flags="0x204"/>
    </TTGlyph>
    <TTGlyph name="afii10031" xMin="164" yMin="0" xMax="1314" yMax="1466">
      <component glyphName="H" x="0" y="0" flags="0x204"/>
    </TTGlyph>
    <TTGlyph name="afii10032" xMin="99" yMin="-25" xMax="1501" yMax="1492">
      <component glyphName="O" x="0" y="0" flags="0x204"/>
    </TTGlyph>
    <TTGlyph name="afii10033" xMin="160" yMin="0" xMax="1313" yMax="1466">
      <contour>
        <pt x="160" y="1466" on="1"/>
        <pt x="1313" y="1466" on="1"/>
        <pt x="1313" y="0" on="1"/>
        <pt x="1118" y="0" on="1"/>
        <pt x="1118" y="1293" on="1"/>
        <pt x="354" y="1293" on="1"/>
        <pt x="354" y="0" on="1"/>
        <pt x="160" y="0" on="1"/>
      </contour>
    </TTGlyph>
    <TTGlyph name="afii10034" xMin="158" yMin="0" xMax="1277" yMax="1466">
      <component glyphName="P" x="0" y="0" flags="0x204"/>
    </TTGlyph>
    <TTGlyph name="afii10035" xMin="102" yMin="-25" xMax="1398" yMax="1491">
      <component glyphName="C" x="0" y="0" flags="0x204"/>
    </TTGlyph>
    <TTGlyph name="afii10036" xMin="48" yMin="0" xMax="1210" yMax="1466">
      <component glyphName="T" x="0" y="0" flags="0x204"/>
    </TTGlyph>
    <TTGlyph name="afii10037" xMin="10" yMin="-20" xMax="1295" yMax="1466">
      <contour>
        <pt x="10" y="1466" on="1"/>
        <pt x="206" y="1466" on="1"/>
        <pt x="684" y="568" on="1"/>
        <pt x="1102" y="1466" on="1"/>
        <pt x="1295" y="1466" on="1"/>
        <pt x="745" y="326" on="1"/>
        <pt x="642" y="112" on="0"/>
        <pt x="510" y="-20" on="0"/>
        <pt x="387" y="-20" on="1"/>
        <pt x="312" y="-20" on="0"/>
        <pt x="203" y="15" on="1"/>
        <pt x="203" y="181" on="1"/>
        <pt x="281" y="136" on="0"/>
        <pt x="368" y="136" on="1"/>
        <pt x="439" y="136" on="0"/>
        <pt x="542" y="227" on="0"/>
        <pt x="604" y="389" on="1"/>
      </contour>
    </TTGlyph>
    <TTGlyph name="afii10038" xMin="82" yMin="0" xMax="1474" yMax="1478">
      <contour>
        <pt x="688" y="1290" on="1"/>
        <pt x="688" y="1478" on="1"/>
        <pt x="870" y="1478" on="1"/>
        <pt x="870" y="1290" on="1"/>
        <pt x="1150" y="1275" on="0"/>
        <pt x="1474" y="968" on="0"/>
        <pt x="1474" y="740" on="1"/>
        <pt x="1474" y="517" on="0"/>
        <pt x="1160" y="205" on="0"/>
        <pt x="870" y="189" on="1"/>
        <pt x="870" y="0" on="1"/>
        <pt x="688" y="0" on="1"/>
        <pt x="688" y="189" on="1"/>
        <pt x="428" y="199" on="0"/>
        <pt x="82" y="496" on="0"/>
        <pt x="82" y="740" on="1"/>
        <pt x="82" y="985" on="0"/>
        <pt x="427" y="1279" on="0"/>
      </contour>
      <contour>
        <pt x="870" y="1124" on="1"/>
        <pt x="870" y="356" on="1"/>
        <pt x="1058" y="365" on="0"/>
        <pt x="1274" y="565" on="0"/>
        <pt x="1274" y="740" on="1"/>
        <pt x="1274" y="912" on="0"/>
        <pt x="1062" y="1113" on="0"/>
      </contour>
      <contour>
        <pt x="688" y="1123" on="1"/>
        <pt x="507" y="1115" on="0"/>
        <pt x="283" y="917" on="0"/>
        <pt x="283" y="740" on="1"/>
        <pt x="283" y="565" on="0"/>
        <pt x="504" y="365" on="0"/>
        <pt x="688" y="357" on="1"/>
      </contour>
    </TTGlyph>
    <TTGlyph name="afii10039" xMin="9" yMin="0" xMax="1353" yMax="1466">
      <component glyphName="X" x="0" y="0" flags="0x204"/>
    </TTGlyph>
    <TTGlyph name="afii10040" xMin="159" yMin="-407" xMax="1446" yMax="1466">
      <contour>
        <pt x="159" y="1466" on="1"/>
        <pt x="353" y="1466" on="1"/>
        <pt x="353" y="173" on="1"/>
        <pt x="1117" y="173" on="1"/>
        <pt x="1117" y="1466" on="1"/>
        <pt x="1312" y="1466" on="1"/>
        <pt x="1312" y="173" on="1"/>
        <pt x="1446" y="173" on="1"/>
        <pt x="1446" y="-407" on="1"/>
        <pt x="1274" y="-407" on="1"/>
        <pt x="1274" y="0" on="1"/>
        <pt x="159" y="0" on="1"/>
      </contour>
    </TTGlyph>
    <TTGlyph name="afii10041" xMin="87" yMin="0" xMax="1204" yMax="1466">
      <contour>
        <pt x="1204" y="0" on="1"/>
        <pt x="1010" y="0" on="1"/>
        <pt x="1010" y="591" on="1"/>
        <pt x="749" y="494" on="0"/>
        <pt x="553" y="494" on="1"/>
        <pt x="400" y="494" on="0"/>
        <pt x="166" y="637" on="0"/>
        <pt x="87" y="857" on="0"/>
        <pt x="87" y="1035" on="1"/>
        <pt x="87" y="1466" on="1"/>
        <pt x="281" y="1466" on="1"/>
        <pt x="281" y="1053" on="1"/>
        <pt x="281" y="813" on="0"/>
        <pt x="456" y="662" on="0"/>
        <pt x="579" y="662" on="1"/>
        <pt x="784" y="662" on="0"/>
        <pt x="1010" y="753" on="1"/>
        <pt x="1010" y="1466" on="1"/>
        <pt x="1204" y="1466" on="1"/>
      </contour>
    </TTGlyph>
    <TTGlyph name="afii10042" xMin="161" yMin="0" xMax="1717" yMax="1466">
      <contour>
        <pt x="161" y="1466" on="1"/>
        <pt x="355" y="1466" on="1"/>
        <pt x="355" y="173" on="1"/>
        <pt x="842" y="173" on="1"/>
        <pt x="842" y="1466" on="1"/>
        <pt x="1036" y="1466" on="1"/>
        <pt x="1036" y="173" on="1"/>
        <pt x="1523" y="173" on="1"/>
        <pt x="1523" y="1466" on="1"/>
        <pt x="1717" y="1466" on="1"/>
        <pt x="1717" y="0" on="1"/>
        <pt x="161" y="0" on="1"/>
      </contour>
    </TTGlyph>
    <TTGlyph name="afii10043" xMin="161" yMin="-407" xMax="1850" yMax="1466">
      <contour>
        <pt x="161" y="1466" on="1"/>
        <pt x="355" y="1466" on="1"/>
        <pt x="355" y="173" on="1"/>
        <pt x="842" y="173" on="1"/>
        <pt x="842" y="1466" on="1"/>
        <pt x="1036" y="1466" on="1"/>
        <pt x="1036" y="173" on="1"/>
        <pt x="1523" y="173" on="1"/>
        <pt x="1523" y="1466" on="1"/>
        <pt x="1717" y="1466" on="1"/>
        <pt x="1717" y="173" on="1"/>
        <pt x="1850" y="173" on="1"/>
        <pt x="1850" y="-407" on="1"/>
        <pt x="1677" y="-407" on="1"/>
        <pt x="1677" y="0" on="1"/>
        <pt x="161" y="0" on="1"/>
      </contour>
    </TTGlyph>
    <TTGlyph name="afii10044" xMin="0" yMin="0" xMax="1551" yMax="1466">
      <contour>
        <pt x="0" y="1466" on="1"/>
        <pt x="640" y="1466" on="1"/>
        <pt x="640" y="840" on="1"/>
        <pt x="991" y="840" on="1"/>
        <pt x="1336" y="840" on="0"/>
        <pt x="1551" y="584" on="0"/>
        <pt x="1551" y="424" on="1"/>
        <pt x="1551" y="240" on="0"/>
        <pt x="1302" y="0" on="0"/>
        <pt x="1003" y="0" on="1"/>
        <pt x="446" y="0" on="1"/>
        <pt x="446" y="1293" on="1"/>
        <pt x="0" y="1293" on="1"/>
      </contour>
      <contour>
        <pt x="640" y="165" on="1"/>
        <pt x="995" y="165" on="1"/>
        <pt x="1178" y="165" on="0"/>
        <pt x="1342" y="288" on="0"/>
        <pt x="1342" y="422" on="1"/>
        <pt x="1342" y="513" on="0"/>
        <pt x="1245" y="638" on="0"/>
        <pt x="1085" y="673" on="0"/>
        <pt x="899" y="673" on="1"/>
        <pt x="640" y="673" on="1"/>
      </contour>
    </TTGlyph>
    <TTGlyph name="afii10045" xMin="168" yMin="0" xMax="1643" yMax="1466">
      <contour>
        <pt x="168" y="1466" on="1"/>
        <pt x="362" y="1466" on="1"/>
        <pt x="362" y="840" on="1"/>
        <pt x="712" y="840" on="1"/>
        <pt x="1056" y="840" on="0"/>
        <pt x="1273" y="586" on="0"/>
        <pt x="1273" y="425" on="1"/>
        <pt x="1273" y="255" on="0"/>
        <pt x="1041" y="0" on="0"/>
        <pt x="726" y="0" on="1"/>
        <pt x="168" y="0" on="1"/>
      </contour>
      <contour>
        <pt x="362" y="165" on="1"/>
        <pt x="717" y="165" on="1"/>
        <pt x="900" y="165" on="0"/>
        <pt x="1065" y="288" on="0"/>
        <pt x="1065" y="423" on="1"/>
        <pt x="1065" y="515" on="0"/>
        <pt x="965" y="639" on="0"/>
        <pt x="807" y="673" on="0"/>
        <pt x="622" y="673" on="1"/>
        <pt x="362" y="673" on="1"/>
      </contour>
      <contour>
        <pt x="1449" y="1466" on="1"/>
        <pt x="1643" y="1466" on="1"/>
        <pt x="1643" y="0" on="1"/>
        <pt x="1449" y="0" on="1"/>
      </contour>
    </TTGlyph>
    <TTGlyph name="afii10046" xMin="165" yMin="0" xMax="1270" yMax="1466">
      <contour>
        <pt x="165" y="1466" on="1"/>
        <pt x="359" y="1466" on="1"/>
        <pt x="359" y="840" on="1"/>
        <pt x="709" y="840" on="1"/>
        <pt x="954" y="840" on="0"/>
        <pt x="1174" y="726" on="0"/>
        <pt x="1270" y="530" on="0"/>
        <pt x="1270" y="426" on="1"/>
        <pt x="1270" y="256" on="0"/>
        <pt x="1038" y="0" on="0"/>
        <pt x="722" y="0" on="1"/>
        <pt x="165" y="0" on="1"/>
      </contour>
      <contour>
        <pt x="359" y="165" on="1"/>
        <pt x="714" y="165" on="1"/>
        <pt x="930" y="165" on="0"/>
        <pt x="1061" y="318" on="0"/>
        <pt x="1061" y="426" on="1"/>
        <pt x="1061" y="514" on="0"/>
        <pt x="966" y="637" on="0"/>
        <pt x="808" y="673" on="0"/>
        <pt x="619" y="673" on="1"/>
        <pt x="359" y="673" on="1"/>
      </contour>
    </TTGlyph>
    <TTGlyph name="afii10047" xMin="74" yMin="-25" xMax="1372" yMax="1491">
      <component glyphName="afii10053" x="1472" y="0" scalex="-1.0" scaley="1.0" flags="0x10"/>
    </TTGlyph>
    <TTGlyph name="afii10048" xMin="164" yMin="-25" xMax="1965" yMax="1491">
      <contour>
        <pt x="164" y="1466" on="1"/>
        <pt x="358" y="1466" on="1"/>
        <pt x="358" y="808" on="1"/>
        <pt x="640" y="808" on="1"/>
        <pt x="661" y="1120" on="0"/>
        <pt x="1029" y="1491" on="0"/>
        <pt x="1301" y="1491" on="1"/>
        <pt x="1588" y="1491" on="0"/>
        <pt x="1965" y="1087" on="0"/>
        <pt x="1965" y="741" on="1"/>
        <pt x="1965" y="381" on="0"/>
        <pt x="1589" y="-25" on="0"/>
        <pt x="1296" y="-25" on="1"/>
        <pt x="1030" y="-25" on="0"/>
        <pt x="675" y="326" on="0"/>
        <pt x="644" y="636" on="1"/>
        <pt x="358" y="636" on="1"/>
        <pt x="358" y="0" on="1"/>
        <pt x="164" y="0" on="1"/>
      </contour>
      <contour>
        <pt x="835" y="726" on="1"/>
        <pt x="835" y="448" on="0"/>
        <pt x="1091" y="141" on="0"/>
        <pt x="1299" y="141" on="1"/>
        <pt x="1512" y="141" on="0"/>
        <pt x="1766" y="449" on="0"/>
        <pt x="1766" y="738" on="1"/>
        <pt x="1766" y="1012" on="0"/>
        <pt x="1516" y="1327" on="0"/>
        <pt x="1303" y="1327" on="1"/>
        <pt x="1086" y="1327" on="0"/>
        <pt x="835" y="1008" on="0"/>
      </contour>
    </TTGlyph>
    <TTGlyph name="afii10049" xMin="26" yMin="0" xMax="1318" yMax="1466">
      <component glyphName="R" x="1479" y="0" scalex="-1.0" scaley="1.0" flags="0x10"/>
    </TTGlyph>
    <TTGlyph name="afii10050" xMin="161" yMin="0" xMax="940" yMax="1872">
      <contour>
        <pt x="767" y="1466" on="1"/>
        <pt x="767" y="1872" on="1"/>
        <pt x="940" y="1872" on="1"/>
        <pt x="940" y="1293" on="1"/>
        <pt x="355" y="1293" on="1"/>
        <pt x="355" y="0" on="1"/>
        <pt x="161" y="0" on="1"/>
        <pt x="161" y="1466" on="1"/>
      </contour>
    </TTGlyph>
    <TTGlyph name="afii10051" xMin="50" yMin="-25" xMax="1689" yMax="1466">
      <contour>
        <pt x="50" y="1466" on="1"/>
        <pt x="1220" y="1466" on="1"/>
        <pt x="1220" y="1293" on="1"/>
        <pt x="732" y="1293" on="1"/>
        <pt x="732" y="837" on="1"/>
        <pt x="985" y="936" on="0"/>
        <pt x="1172" y="936" on="1"/>
        <pt x="1405" y="936" on="0"/>
        <pt x="1689" y="654" on="0"/>
        <pt x="1689" y="451" on="1"/>
        <pt x="1689" y="273" on="0"/>
        <pt x="1456" y="-25" on="0"/>
        <pt x="1231" y="-25" on="1"/>
        <pt x="1127" y="-25" on="0"/>
        <pt x="996" y="8" on="1"/>
        <pt x="1027" y="172" on="1"/>
        <pt x="1103" y="135" on="0"/>
        <pt x="1185" y="135" on="1"/>
        <pt x="1336" y="135" on="0"/>
        <pt x="1491" y="311" on="0"/>
        <pt x="1491" y="445" on="1"/>
        <pt x="1491" y="587" on="0"/>
        <pt x="1312" y="774" on="0"/>
        <pt x="1124" y="774" on="1"/>
        <pt x="962" y="774" on="0"/>
        <pt x="732" y="680" on="1"/>
        <pt x="732" y="0" on="1"/>
        <pt x="538" y="0" on="1"/>
        <pt x="538" y="1293" on="1"/>
        <pt x="50" y="1293" on="1"/>
      </contour>
    </TTGlyph>
    <TTGlyph name="afii10052" xMin="161" yMin="0" xMax="1109" yMax="1836">
      <component glyphName="afii10020" x="0" y="0" flags="0x204"/>
      <component glyphName="acute" x="251" y="362" flags="0x4"/>
    </TTGlyph>
    <TTGlyph name="afii10053" xMin="100" yMin="-25" xMax="1398" yMax="1491">
      <contour>
        <pt x="857" y="843" on="1"/>
        <pt x="857" y="670" on="1"/>
        <pt x="312" y="670" on="1"/>
        <pt x="323" y="423" on="0"/>
        <pt x="575" y="138" on="0"/>
        <pt x="772" y="138" on="1"/>
        <pt x="1122" y="138" on="0"/>
        <pt x="1211" y="510" on="1"/>
        <pt x="1398" y="461" on="1"/>
        <pt x="1271" y="-25" on="0"/>
        <pt x="786" y="-25" on="1"/>
        <pt x="439" y="-25" on="0"/>
        <pt x="100" y="422" on="0"/>
        <pt x="111" y="749" on="1"/>
        <pt x="111" y="949" on="0"/>
        <pt x="262" y="1279" on="0"/>
        <pt x="574" y="1491" on="0"/>
        <pt x="790" y="1491" on="1"/>
        <pt x="1018" y="1491" on="0"/>
        <pt x="1325" y="1265" on="0"/>
        <pt x="1379" y="1064" on="1"/>
        <pt x="1189" y="1014" on="1"/>
        <pt x="1106" y="1321" on="0"/>
        <pt x="789" y="1321" on="1"/>
        <pt x="575" y="1321" on="0"/>
        <pt x="332" y="1063" on="0"/>
        <pt x="320" y="843" on="1"/>
      </contour>
    </TTGlyph>
    <TTGlyph name="afii10054" xMin="92" yMin="-25" xMax="1259" yMax="1491">
      <component glyphName="S" x="0" y="0" flags="0x204"/>
    </TTGlyph>
    <TTGlyph name="afii10055" xMin="191" yMin="0" xMax="385" yMax="1466">
      <component glyphName="I" x="0" y="0" flags="0x204"/>
    </TTGlyph>
    <TTGlyph name="afii10056" xMin="4" yMin="0" xMax="565" yMax="1761">
      <component glyphName="I" x="0" y="0" flags="0x204"/>
      <component glyphName="dieresis" x="-57" y="286" flags="0x4"/>
    </TTGlyph>
    <TTGlyph name="afii10057" xMin="55" yMin="-25" xMax="865" yMax="1466">
      <component glyphName="J" x="0" y="0" flags="0x204"/>
    </TTGlyph>
    <TTGlyph name="afii10058" xMin="13" yMin="-25" xMax="2089" yMax="1466">
      <contour>
        <pt x="1178" y="1466" on="1"/>
        <pt x="1178" y="840" on="1"/>
        <pt x="1528" y="840" on="1"/>
        <pt x="1771" y="840" on="0"/>
        <pt x="1991" y="729" on="0"/>
        <pt x="2089" y="531" on="0"/>
        <pt x="2089" y="427" on="1"/>
        <pt x="2089" y="290" on="0"/>
        <pt x="1948" y="77" on="0"/>
        <pt x="1747" y="0" on="0"/>
        <pt x="1557" y="0" on="1"/>
        <pt x="984" y="0" on="1"/>
        <pt x="984" y="1293" on="1"/>
        <pt x="454" y="1293" on="1"/>
        <pt x="454" y="538" on="1"/>
        <pt x="454" y="308" on="0"/>
        <pt x="411" y="94" on="0"/>
        <pt x="273" y="-25" on="0"/>
        <pt x="167" y="-25" on="1"/>
        <pt x="103" y="-25" on="0"/>
        <pt x="13" y="-1" on="1"/>
        <pt x="46" y="171" on="1"/>
        <pt x="94" y="151" on="0"/>
        <pt x="128" y="151" on="1"/>
        <pt x="194" y="151" on="0"/>
        <pt x="260" y="250" on="0"/>
        <pt x="260" y="434" on="1"/>
        <pt x="260" y="1466" on="1"/>
      </contour>
      <contour>
        <pt x="1178" y="165" on="1"/>
        <pt x="1566" y="165" on="1"/>
        <pt x="1672" y="165" on="0"/>
        <pt x="1794" y="206" on="0"/>
        <pt x="1881" y="325" on="0"/>
        <pt x="1881" y="421" on="1"/>
        <pt x="1881" y="512" on="0"/>
        <pt x="1788" y="635" on="0"/>
        <pt x="1631" y="673" on="0"/>
        <pt x="1438" y="673" on="1"/>
        <pt x="1178" y="673" on="1"/>
      </contour>
    </TTGlyph>
    <TTGlyph name="afii10059" xMin="164" yMin="0" xMax="1993" yMax="1466">
      <contour>
        <pt x="1082" y="1466" on="1"/>
        <pt x="1082" y="840" on="1"/>
        <pt x="1408" y="840" on="1"/>
        <pt x="1617" y="840" on="0"/>
        <pt x="1850" y="770" on="0"/>
        <pt x="1993" y="564" on="0"/>
        <pt x="1993" y="427" on="1"/>
        <pt x="1993" y="284" on="0"/>
        <pt x="1842" y="68" on="0"/>
        <pt x="1641" y="0" on="0"/>
        <pt x="1449" y="0" on="1"/>
        <pt x="888" y="0" on="1"/>
        <pt x="888" y="673" on="1"/>
        <pt x="358" y="673" on="1"/>
        <pt x="358" y="0" on="1"/>
        <pt x="164" y="0" on="1"/>
        <pt x="164" y="1466" on="1"/>
        <pt x="358" y="1466" on="1"/>
        <pt x="358" y="840" on="1"/>
        <pt x="888" y="840" on="1"/>
        <pt x="888" y="1466" on="1"/>
      </contour>
      <contour>
        <pt x="1082" y="165" on="1"/>
        <pt x="1445" y="165" on="1"/>
        <pt x="1569" y="165" on="0"/>
        <pt x="1692" y="201" on="0"/>
        <pt x="1785" y="322" on="0"/>
        <pt x="1785" y="421" on="1"/>
        <pt x="1785" y="506" on="0"/>
        <pt x="1703" y="628" on="0"/>
        <pt x="1536" y="673" on="0"/>
        <pt x="1318" y="673" on="1"/>
        <pt x="1082" y="673" on="1"/>
      </contour>
    </TTGlyph>
    <TTGlyph name="afii10060" xMin="49" yMin="0" xMax="1656" yMax="1466">
      <contour>
        <pt x="49" y="1466" on="1"/>
        <pt x="1222" y="1466" on="1"/>
        <pt x="1222" y="1293" on="1"/>
        <pt x="733" y="1293" on="1"/>
        <pt x="733" y="842" on="1"/>
        <pt x="1006" y="936" on="0"/>
        <pt x="1170" y="936" on="1"/>
        <pt x="1329" y="936" on="0"/>
        <pt x="1565" y="807" on="0"/>
        <pt x="1656" y="583" on="0"/>
        <pt x="1656" y="386" on="1"/>
        <pt x="1656" y="0" on="1"/>
        <pt x="1462" y="0" on="1"/>
        <pt x="1462" y="379" on="1"/>
        <pt x="1462" y="523" on="0"/>
        <pt x="1408" y="682" on="0"/>
        <pt x="1265" y="772" on="0"/>
        <pt x="1159" y="772" on="1"/>
        <pt x="998" y="772" on="0"/>
        <pt x="733" y="680" on="1"/>
        <pt x="733" y="0" on="1"/>
        <pt x="539" y="0" on="1"/>
        <pt x="539" y="1293" on="1"/>
        <pt x="49" y="1293" on="1"/>
      </contour>
    </TTGlyph>
    <TTGlyph name="afii10061" xMin="161" yMin="0" xMax="1186" yMax="1836">
      <component glyphName="afii10028" x="0" y="0" flags="0x204"/>
      <component glyphName="acute" x="303" y="362" flags="0x4"/>
    </TTGlyph>
    <TTGlyph name="afii10062" xMin="10" yMin="-20" xMax="1295" yMax="1815">
      <component glyphName="afii10037" x="0" y="0" flags="0x204"/>
      <component glyphName="breve" x="356" y="351" flags="0x4"/>
    </TTGlyph>
    <TTGlyph name="afii10065" xMin="74" yMin="-24" xMax="1052" yMax="1086">
      <component glyphName="a" x="0" y="0" flags="0x204"/>
    </TTGlyph>
    <TTGlyph name="afii10066" xMin="91" yMin="-24" xMax="1092" yMax="1501">
      <contour>
        <pt x="913" y="1501" on="1"/>
        <pt x="1072" y="1499" on="1"/>
        <pt x="1061" y="1392" on="0"/>
        <pt x="988" y="1308" on="0"/>
        <pt x="873" y="1284" on="0"/>
        <pt x="705" y="1284" on="1"/>
        <pt x="482" y="1284" on="0"/>
        <pt x="320" y="1198" on="0"/>
        <pt x="249" y="1009" on="0"/>
        <pt x="245" y="860" on="1"/>
        <pt x="313" y="961" on="0"/>
        <pt x="495" y="1062" on="0"/>
        <pt x="609" y="1062" on="1"/>
        <pt x="818" y="1062" on="0"/>
        <pt x="1092" y="775" on="0"/>
        <pt x="1092" y="530" on="1"/>
        <pt x="1092" y="344" on="0"/>
        <pt x="954" y="106" on="0"/>
        <pt x="765" y="-24" on="0"/>
        <pt x="602" y="-24" on="1"/>
        <pt x="413" y="-24" on="0"/>
        <pt x="203" y="149" on="0"/>
        <pt x="91" y="419" on="0"/>
        <pt x="91" y="754" on="1"/>
        <pt x="91" y="1175" on="0"/>
        <pt x="376" y="1467" on="0"/>
        <pt x="672" y="1467" on="1"/>
        <pt x="856" y="1467" on="0"/>
        <pt x="906" y="1479" on="0"/>
      </contour>
      <contour>
        <pt x="904" y="535" on="1"/>
        <pt x="904" y="701" on="0"/>
        <pt x="747" y="913" on="0"/>
        <pt x="604" y="913" on="1"/>
        <pt x="455" y="913" on="0"/>
        <pt x="293" y="689" on="0"/>
        <pt x="293" y="502" on="1"/>
        <pt x="293" y="317" on="0"/>
        <pt x="472" y="121" on="0"/>
        <pt x="603" y="121" on="1"/>
        <pt x="737" y="121" on="0"/>
        <pt x="904" y="348" on="0"/>
      </contour>
    </TTGlyph>
    <TTGlyph name="afii10067" xMin="136" yMin="0" xMax="1008" yMax="1062">
      <contour>
        <pt x="136" y="1062" on="1"/>
        <pt x="551" y="1062" on="1"/>
        <pt x="704" y="1062" on="0"/>
        <pt x="853" y="1011" on="0"/>
        <pt x="960" y="875" on="0"/>
        <pt x="960" y="780" on="1"/>
        <pt x="960" y="704" on="0"/>
        <pt x="897" y="591" on="0"/>
        <pt x="834" y="553" on="1"/>
        <pt x="909" y="528" on="0"/>
        <pt x="1008" y="391" on="0"/>
        <pt x="1008" y="297" on="1"/>
        <pt x="998" y="146" on="0"/>
        <pt x="802" y="0" on="0"/>
        <pt x="615" y="0" on="1"/>
        <pt x="136" y="0" on="1"/>
      </contour>
      <contour>
        <pt x="316" y="615" on="1"/>
        <pt x="508" y="615" on="1"/>
        <pt x="623" y="615" on="0"/>
        <pt x="709" y="639" on="0"/>
        <pt x="777" y="712" on="0"/>
        <pt x="777" y="763" on="1"/>
        <pt x="777" y="847" on="0"/>
        <pt x="658" y="913" on="0"/>
        <pt x="514" y="913" on="1"/>
        <pt x="316" y="913" on="1"/>
      </contour>
      <contour>
        <pt x="316" y="148" on="1"/>
        <pt x="553" y="148" on="1"/>
        <pt x="706" y="148" on="0"/>
        <pt x="820" y="219" on="0"/>
        <pt x="823" y="306" on="1"/>
        <pt x="823" y="357" on="0"/>
        <pt x="757" y="444" on="0"/>
        <pt x="651" y="467" on="0"/>
        <pt x="534" y="467" on="1"/>
        <pt x="316" y="467" on="1"/>
      </contour>
    </TTGlyph>
    <TTGlyph name="afii10068" xMin="136" yMin="0" xMax="747" yMax="1062">
      <contour>
        <pt x="136" y="1062" on="1"/>
        <pt x="747" y="1062" on="1"/>
        <pt x="747" y="913" on="1"/>
        <pt x="316" y="913" on="1"/>
        <pt x="316" y="0" on="1"/>
        <pt x="136" y="0" on="1"/>
      </contour>
    </TTGlyph>
    <TTGlyph name="afii10069" xMin="0" yMin="-301" xMax="1132" yMax="1062">
      <contour>
        <pt x="277" y="1062" on="1"/>
        <pt x="1017" y="1062" on="1"/>
        <pt x="1017" y="148" on="1"/>
        <pt x="1132" y="148" on="1"/>
        <pt x="1132" y="-301" on="1"/>
        <pt x="984" y="-301" on="1"/>
        <pt x="984" y="0" on="1"/>
        <pt x="148" y="0" on="1"/>
        <pt x="148" y="-301" on="1"/>
        <pt x="0" y="-301" on="1"/>
        <pt x="0" y="148" on="1"/>
        <pt x="95" y="148" on="1"/>
        <pt x="285" y="406" on="0"/>
      </contour>
      <contour>
        <pt x="427" y="913" on="1"/>
        <pt x="407" y="396" on="0"/>
        <pt x="267" y="148" on="1"/>
        <pt x="838" y="148" on="1"/>
        <pt x="838" y="913" on="1"/>
      </contour>
    </TTGlyph>
    <TTGlyph name="afii10070" xMin="75" yMin="-24" xMax="1054" yMax="1086">
      <component glyphName="e" x="0" y="0" flags="0x204"/>
    </TTGlyph>
    <TTGlyph name="afii10071" xMin="75" yMin="-24" xMax="1054" yMax="1475">
      <component glyphName="e" x="0" y="0" flags="0x204"/>
      <component glyphName="dieresis" x="223" y="0" flags="0x4"/>
    </TTGlyph>
    <TTGlyph name="afii10072" xMin="-5" yMin="0" xMax="1376" yMax="1062">
      <contour>
        <pt x="777" y="1062" on="1"/>
        <pt x="777" y="603" on="1"/>
        <pt x="863" y="603" on="0"/>
        <pt x="933" y="669" on="0"/>
        <pt x="1000" y="828" on="1"/>
        <pt x="1063" y="979" on="0"/>
        <pt x="1113" y="1021" on="1"/>
        <pt x="1162" y="1062" on="0"/>
        <pt x="1269" y="1062" on="1"/>
        <pt x="1335" y="1062" on="1"/>
        <pt x="1335" y="913" on="1"/>
        <pt x="1286" y="914" on="1"/>
        <pt x="1214" y="914" on="0"/>
        <pt x="1194" y="893" on="1"/>
        <pt x="1173" y="871" on="0"/>
        <pt x="1130" y="762" on="1"/>
        <pt x="1090" y="658" on="0"/>
        <pt x="1022" y="578" on="0"/>
        <pt x="950" y="545" on="1"/>
        <pt x="1067" y="514" on="0"/>
        <pt x="1178" y="329" on="1"/>
        <pt x="1376" y="0" on="1"/>
        <pt x="1178" y="0" on="1"/>
        <pt x="985" y="329" on="1"/>
        <pt x="926" y="429" on="0"/>
        <pt x="838" y="491" on="0"/>
        <pt x="777" y="491" on="1"/>
        <pt x="777" y="0" on="1"/>
        <pt x="593" y="0" on="1"/>
        <pt x="593" y="491" on="1"/>
        <pt x="533" y="491" on="0"/>
        <pt x="445" y="430" on="0"/>
        <pt x="386" y="329" on="1"/>
        <pt x="193" y="0" on="1"/>
        <pt x="-5" y="0" on="1"/>
        <pt x="192" y="329" on="1"/>
        <pt x="304" y="514" on="0"/>
        <pt x="421" y="545" on="1"/>
        <pt x="341" y="582" on="0"/>
        <pt x="277" y="669" on="0"/>
        <pt x="213" y="833" on="1"/>
        <pt x="191" y="888" on="0"/>
        <pt x="166" y="901" on="1"/>
        <pt x="140" y="914" on="0"/>
        <pt x="89" y="914" on="1"/>
        <pt x="76" y="914" on="0"/>
        <pt x="36" y="913" on="1"/>
        <pt x="36" y="1062" on="1"/>
        <pt x="61" y="1062" on="1"/>
        <pt x="165" y="1062" on="0"/>
        <pt x="250" y="1037" on="0"/>
        <pt x="317" y="956" on="0"/>
        <pt x="371" y="828" on="1"/>
        <pt x="437" y="671" on="0"/>
        <pt x="506" y="603" on="0"/>
        <pt x="593" y="603" on="1"/>
        <pt x="593" y="1062" on="1"/>
      </contour>
    </TTGlyph>
    <TTGlyph name="afii10073" xMin="50" yMin="-24" xMax="866" yMax="1086">
      <contour>
        <pt x="370" y="480" on="1"/>
        <pt x="370" y="621" on="1"/>
        <pt x="484" y="622" on="0"/>
        <pt x="567" y="638" on="0"/>
        <pt x="641" y="718" on="0"/>
        <pt x="641" y="778" on="1"/>
        <pt x="641" y="851" on="0"/>
        <pt x="544" y="938" on="0"/>
        <pt x="467" y="938" on="1"/>
        <pt x="315" y="938" on="0"/>
        <pt x="254" y="759" on="1"/>
        <pt x="83" y="787" on="1"/>
        <pt x="163" y="1086" on="0"/>
        <pt x="469" y="1086" on="1"/>
        <pt x="639" y="1086" on="0"/>
        <pt x="832" y="900" on="0"/>
        <pt x="832" y="771" on="1"/>
        <pt x="832" y="641" on="0"/>
        <pt x="706" y="564" on="1"/>
        <pt x="786" y="521" on="0"/>
        <pt x="866" y="388" on="0"/>
        <pt x="866" y="297" on="1"/>
        <pt x="866" y="154" on="0"/>
        <pt x="658" y="-24" on="0"/>
        <pt x="471" y="-24" on="1"/>
        <pt x="108" y="-24" on="0"/>
        <pt x="50" y="299" on="1"/>
        <pt x="219" y="335" on="1"/>
        <pt x="242" y="233" on="0"/>
        <pt x="383" y="121" on="0"/>
        <pt x="474" y="121" on="1"/>
        <pt x="565" y="121" on="0"/>
        <pt x="686" y="224" on="0"/>
        <pt x="686" y="304" on="1"/>
        <pt x="686" y="366" on="0"/>
        <pt x="610" y="458" on="0"/>
        <pt x="524" y="481" on="0"/>
        <pt x="411" y="481" on="1"/>
        <pt x="402" y="481" on="0"/>
      </contour>
    </TTGlyph>
    <TTGlyph name="afii10074" xMin="135" yMin="0" xMax="1008" yMax="1062">
      <contour>
        <pt x="135" y="1062" on="1"/>
        <pt x="315" y="1062" on="1"/>
        <pt x="315" y="252" on="1"/>
        <pt x="814" y="1062" on="1"/>
        <pt x="1008" y="1062" on="1"/>
        <pt x="1008" y="0" on="1"/>
        <pt x="828" y="0" on="1"/>
        <pt x="828" y="805" on="1"/>
        <pt x="329" y="0" on="1"/>
        <pt x="135" y="0" on="1"/>
      </contour>
    </TTGlyph>
    <TTGlyph name="afii10075" xMin="135" yMin="0" xMax="1008" yMax="1464">
      <component glyphName="afii10074" x="0" y="0" flags="0x204"/>
      <component glyphName="breve" x="246" y="0" flags="0x4"/>
    </TTGlyph>
    <TTGlyph name="afii10076" xMin="134" yMin="0" xMax="912" yMax="1062">
      <contour>
        <pt x="134" y="1062" on="1"/>
        <pt x="314" y="1062" on="1"/>
        <pt x="314" y="603" on="1"/>
        <pt x="400" y="603" on="0"/>
        <pt x="469" y="669" on="0"/>
        <pt x="536" y="828" on="1"/>
        <pt x="589" y="954" on="0"/>
        <pt x="655" y="1034" on="0"/>
        <pt x="741" y="1062" on="0"/>
        <pt x="836" y="1062" on="1"/>
        <pt x="872" y="1062" on="1"/>
        <pt x="872" y="913" on="1"/>
        <pt x="822" y="914" on="1"/>
        <pt x="751" y="914" on="0"/>
        <pt x="731" y="893" on="1"/>
        <pt x="710" y="871" on="0"/>
        <pt x="667" y="762" on="1"/>
        <pt x="626" y="658" on="0"/>
        <pt x="558" y="578" on="0"/>
        <pt x="487" y="545" on="1"/>
        <pt x="603" y="514" on="0"/>
        <pt x="715" y="329" on="1"/>
        <pt x="912" y="0" on="1"/>
        <pt x="714" y="0" on="1"/>
        <pt x="522" y="329" on="1"/>
        <pt x="463" y="428" on="0"/>
        <pt x="375" y="491" on="0"/>
        <pt x="314" y="491" on="1"/>
        <pt x="314" y="0" on="1"/>
        <pt x="134" y="0" on="1"/>
      </contour>
    </TTGlyph>
    <TTGlyph name="afii10077" xMin="24" yMin="-7" xMax="1059" yMax="1062">
      <contour>
        <pt x="223" y="1062" on="1"/>
        <pt x="1059" y="1062" on="1"/>
        <pt x="1059" y="0" on="1"/>
        <pt x="880" y="0" on="1"/>
        <pt x="880" y="913" on="1"/>
        <pt x="403" y="913" on="1"/>
        <pt x="403" y="384" on="1"/>
        <pt x="403" y="199" on="0"/>
        <pt x="379" y="81" on="0"/>
        <pt x="271" y="-7" on="0"/>
        <pt x="169" y="-7" on="1"/>
        <pt x="106" y="-7" on="0"/>
        <pt x="24" y="1" on="1"/>
        <pt x="24" y="151" on="1"/>
        <pt x="103" y="151" on="1"/>
        <pt x="159" y="151" on="0"/>
        <pt x="207" y="174" on="0"/>
        <pt x="223" y="224" on="0"/>
        <pt x="223" y="362" on="1"/>
      </contour>
    </TTGlyph>
    <TTGlyph name="afii10078" xMin="140" yMin="0" xMax="1268" yMax="1062">
      <contour>
        <pt x="140" y="1062" on="1"/>
        <pt x="420" y="1062" on="1"/>
        <pt x="699" y="212" on="1"/>
        <pt x="1009" y="1062" on="1"/>
        <pt x="1268" y="1062" on="1"/>
        <pt x="1268" y="0" on="1"/>
        <pt x="1088" y="0" on="1"/>
        <pt x="1088" y="855" on="1"/>
        <pt x="774" y="0" on="1"/>
        <pt x="613" y="0" on="1"/>
        <pt x="316" y="896" on="1"/>
        <pt x="316" y="0" on="1"/>
        <pt x="140" y="0" on="1"/>
      </contour>
    </TTGlyph>
    <TTGlyph name="afii10079" xMin="136" yMin="0" xMax="995" yMax="1062">
      <contour>
        <pt x="136" y="1062" on="1"/>
        <pt x="316" y="1062" on="1"/>
        <pt x="316" y="620" on="1"/>
        <pt x="815" y="620" on="1"/>
        <pt x="815" y="1062" on="1"/>
        <pt x="995" y="1062" on="1"/>
        <pt x="995" y="0" on="1"/>
        <pt x="815" y="0" on="1"/>
        <pt x="815" y="471" on="1"/>
        <pt x="316" y="471" on="1"/>
        <pt x="316" y="0" on="1"/>
        <pt x="136" y="0" on="1"/>
      </contour>
    </TTGlyph>
    <TTGlyph name="afii10080" xMin="68" yMin="-24" xMax="1063" yMax="1086">
      <component glyphName="o" x="0" y="0" flags="0x204"/>
    </TTGlyph>
    <TTGlyph name="afii10081" xMin="136" yMin="0" xMax="974" yMax="1062">
      <contour>
        <pt x="136" y="1062" on="1"/>
        <pt x="974" y="1062" on="1"/>
        <pt x="974" y="0" on="1"/>
        <pt x="794" y="0" on="1"/>
        <pt x="794" y="913" on="1"/>
        <pt x="316" y="913" on="1"/>
        <pt x="316" y="0" on="1"/>
        <pt x="136" y="0" on="1"/>
      </contour>
    </TTGlyph>
    <TTGlyph name="afii10082" xMin="135" yMin="-407" xMax="1057" yMax="1086">
      <component glyphName="p" x="0" y="0" flags="0x204"/>
    </TTGlyph>
    <TTGlyph name="afii10083" xMin="80" yMin="-24" xMax="1005" yMax="1086">
      <component glyphName="c" x="0" y="0" flags="0x204"/>
    </TTGlyph>
    <TTGlyph name="afii10084" xMin="38" yMin="0" xMax="901" yMax="1062">
      <contour>
        <pt x="38" y="1062" on="1"/>
        <pt x="901" y="1062" on="1"/>
        <pt x="901" y="913" on="1"/>
        <pt x="559" y="913" on="1"/>
        <pt x="559" y="0" on="1"/>
        <pt x="380" y="0" on="1"/>
        <pt x="380" y="913" on="1"/>
        <pt x="38" y="913" on="1"/>
      </contour>
    </TTGlyph>
    <TTGlyph name="afii10085" xMin="33" yMin="-431" xMax="1006" yMax="1062">
      <component glyphName="y" x="0" y="0" flags="0x204"/>
    </TTGlyph>
    <TTGlyph name="afii10086" xMin="75" yMin="-407" xMax="1610" yMax="1466">
      <contour>
        <pt x="753" y="1466" on="1"/>
        <pt x="933" y="1466" on="1"/>
        <pt x="933" y="959" on="1"/>
        <pt x="989" y="1023" on="0"/>
        <pt x="1123" y="1086" on="0"/>
        <pt x="1200" y="1086" on="1"/>
        <pt x="1389" y="1086" on="0"/>
        <pt x="1610" y="771" on="0"/>
        <pt x="1610" y="532" on="1"/>
        <pt x="1610" y="283" on="0"/>
        <pt x="1372" y="-24" on="0"/>
        <pt x="1195" y="-24" on="1"/>
        <pt x="1137" y="-24" on="0"/>
        <pt x="1017" y="12" on="0"/>
        <pt x="933" y="92" on="1"/>
        <pt x="933" y="-407" on="1"/>
        <pt x="753" y="-407" on="1"/>
        <pt x="753" y="92" on="1"/>
        <pt x="699" y="34" on="0"/>
        <pt x="568" y="-24" on="0"/>
        <pt x="492" y="-24" on="1"/>
        <pt x="325" y="-24" on="0"/>
        <pt x="75" y="269" on="0"/>
        <pt x="75" y="542" on="1"/>
        <pt x="75" y="773" on="0"/>
        <pt x="301" y="1086" on="0"/>
        <pt x="492" y="1086" on="1"/>
        <pt x="572" y="1086" on="0"/>
        <pt x="702" y="1023" on="0"/>
        <pt x="753" y="959" on="1"/>
      </contour>
      <contour>
        <pt x="932" y="527" on="1"/>
        <pt x="932" y="287" on="0"/>
        <pt x="1064" y="122" on="0"/>
        <pt x="1163" y="122" on="1"/>
        <pt x="1273" y="122" on="0"/>
        <pt x="1428" y="325" on="0"/>
        <pt x="1428" y="539" on="1"/>
        <pt x="1428" y="741" on="0"/>
        <pt x="1285" y="939" on="0"/>
        <pt x="1173" y="939" on="1"/>
        <pt x="1053" y="939" on="0"/>
        <pt x="932" y="733" on="0"/>
      </contour>
      <contour>
        <pt x="258" y="547" on="1"/>
        <pt x="258" y="322" on="0"/>
        <pt x="409" y="124" on="0"/>
        <pt x="521" y="124" on="1"/>
        <pt x="638" y="124" on="0"/>
        <pt x="754" y="321" on="0"/>
        <pt x="754" y="518" on="1"/>
        <pt x="754" y="728" on="0"/>
        <pt x="632" y="938" on="0"/>
        <pt x="509" y="938" on="1"/>
        <pt x="398" y="938" on="0"/>
        <pt x="258" y="733" on="0"/>
      </contour>
    </TTGlyph>
    <TTGlyph name="afii10087" xMin="15" yMin="0" xMax="1009" yMax="1062">
      <component glyphName="x" x="0" y="0" flags="0x204"/>
    </TTGlyph>
    <TTGlyph name="afii10088" xMin="138" yMin="-301" xMax="1112" yMax="1062">
      <contour>
        <pt x="138" y="1062" on="1"/>
        <pt x="318" y="1062" on="1"/>
        <pt x="318" y="148" on="1"/>
        <pt x="816" y="148" on="1"/>
        <pt x="816" y="1062" on="1"/>
        <pt x="996" y="1062" on="1"/>
        <pt x="996" y="148" on="1"/>
        <pt x="1112" y="148" on="1"/>
        <pt x="1112" y="-301" on="1"/>
        <pt x="964" y="-301" on="1"/>
        <pt x="964" y="0" on="1"/>
        <pt x="138" y="0" on="1"/>
      </contour>
    </TTGlyph>
    <TTGlyph name="afii10089" xMin="69" yMin="0" xMax="931" yMax="1062">
      <contour>
        <pt x="69" y="1062" on="1"/>
        <pt x="249" y="1062" on="1"/>
        <pt x="249" y="861" on="1"/>
        <pt x="249" y="731" on="0"/>
        <pt x="280" y="614" on="0"/>
        <pt x="398" y="527" on="0"/>
        <pt x="487" y="527" on="1"/>
        <pt x="589" y="527" on="0"/>
        <pt x="751" y="581" on="1"/>
        <pt x="751" y="1062" on="1"/>
        <pt x="931" y="1062" on="1"/>
        <pt x="931" y="0" on="1"/>
        <pt x="751" y="0" on="1"/>
        <pt x="751" y="428" on="1"/>
        <pt x="585" y="376" on="0"/>
        <pt x="441" y="376" on="1"/>
        <pt x="320" y="376" on="0"/>
        <pt x="135" y="499" on="0"/>
        <pt x="69" y="677" on="0"/>
        <pt x="69" y="784" on="1"/>
      </contour>
    </TTGlyph>
    <TTGlyph name="afii10090" xMin="141" yMin="0" xMax="1501" yMax="1062">
      <contour>
        <pt x="141" y="1062" on="1"/>
        <pt x="321" y="1062" on="1"/>
        <pt x="321" y="149" on="1"/>
        <pt x="731" y="149" on="1"/>
        <pt x="731" y="1062" on="1"/>
        <pt x="911" y="1062" on="1"/>
        <pt x="911" y="149" on="1"/>
        <pt x="1322" y="149" on="1"/>
        <pt x="1322" y="1062" on="1"/>
        <pt x="1501" y="1062" on="1"/>
        <pt x="1501" y="0" on="1"/>
        <pt x="141" y="0" on="1"/>
      </contour>
    </TTGlyph>
    <TTGlyph name="afii10091" xMin="141" yMin="-301" xMax="1620" yMax="1062">
      <contour>
        <pt x="141" y="1062" on="1"/>
        <pt x="321" y="1062" on="1"/>
        <pt x="321" y="148" on="1"/>
        <pt x="731" y="148" on="1"/>
        <pt x="731" y="1062" on="1"/>
        <pt x="911" y="1062" on="1"/>
        <pt x="911" y="148" on="1"/>
        <pt x="1322" y="148" on="1"/>
        <pt x="1322" y="1062" on="1"/>
        <pt x="1501" y="1062" on="1"/>
        <pt x="1501" y="148" on="1"/>
        <pt x="1620" y="148" on="1"/>
        <pt x="1620" y="-301" on="1"/>
        <pt x="1471" y="-301" on="1"/>
        <pt x="1471" y="0" on="1"/>
        <pt x="141" y="0" on="1"/>
      </contour>
    </TTGlyph>
    <TTGlyph name="afii10092" xMin="40" yMin="0" xMax="1207" yMax="1062">
      <contour>
        <pt x="40" y="1062" on="1"/>
        <pt x="515" y="1062" on="1"/>
        <pt x="515" y="647" on="1"/>
        <pt x="744" y="647" on="1"/>
        <pt x="987" y="647" on="0"/>
        <pt x="1207" y="458" on="0"/>
        <pt x="1207" y="321" on="1"/>
        <pt x="1207" y="179" on="0"/>
        <pt x="994" y="0" on="0"/>
        <pt x="786" y="0" on="1"/>
        <pt x="335" y="0" on="1"/>
        <pt x="335" y="913" on="1"/>
        <pt x="40" y="913" on="1"/>
      </contour>
      <contour>
        <pt x="515" y="146" on="1"/>
        <pt x="704" y="146" on="1"/>
        <pt x="876" y="146" on="0"/>
        <pt x="1020" y="229" on="0"/>
        <pt x="1020" y="321" on="1"/>
        <pt x="1020" y="405" on="0"/>
        <pt x="897" y="497" on="0"/>
        <pt x="728" y="497" on="1"/>
        <pt x="515" y="497" on="1"/>
      </contour>
    </TTGlyph>
    <TTGlyph name="afii10093" xMin="139" yMin="0" xMax="1326" yMax="1062">
      <contour>
        <pt x="1146" y="1062" on="1"/>
        <pt x="1326" y="1062" on="1"/>
        <pt x="1326" y="0" on="1"/>
        <pt x="1146" y="0" on="1"/>
      </contour>
      <contour>
        <pt x="139" y="1062" on="1"/>
        <pt x="319" y="1062" on="1"/>
        <pt x="319" y="647" on="1"/>
        <pt x="547" y="647" on="1"/>
        <pt x="770" y="647" on="0"/>
        <pt x="1011" y="474" on="0"/>
        <pt x="1011" y="322" on="1"/>
        <pt x="1011" y="189" on="0"/>
        <pt x="810" y="0" on="0"/>
        <pt x="589" y="0" on="1"/>
        <pt x="139" y="0" on="1"/>
      </contour>
      <contour>
        <pt x="319" y="148" on="1"/>
        <pt x="508" y="148" on="1"/>
        <pt x="679" y="148" on="0"/>
        <pt x="825" y="232" on="0"/>
        <pt x="825" y="321" on="1"/>
        <pt x="825" y="390" on="0"/>
        <pt x="717" y="498" on="0"/>
        <pt x="532" y="498" on="1"/>
        <pt x="319" y="498" on="1"/>
      </contour>
    </TTGlyph>
    <TTGlyph name="afii10094" xMin="132" yMin="0" xMax="1004" yMax="1062">
      <contour>
        <pt x="132" y="1062" on="1"/>
        <pt x="312" y="1062" on="1"/>
        <pt x="312" y="647" on="1"/>
        <pt x="540" y="647" on="1"/>
        <pt x="763" y="647" on="0"/>
        <pt x="1004" y="474" on="0"/>
        <pt x="1004" y="322" on="1"/>
        <pt x="1004" y="189" on="0"/>
        <pt x="803" y="0" on="0"/>
        <pt x="582" y="0" on="1"/>
        <pt x="132" y="0" on="1"/>
      </contour>
      <contour>
        <pt x="312" y="148" on="1"/>
        <pt x="501" y="148" on="1"/>
        <pt x="672" y="148" on="0"/>
        <pt x="818" y="232" on="0"/>
        <pt x="818" y="321" on="1"/>
        <pt x="818" y="390" on="0"/>
        <pt x="710" y="498" on="0"/>
        <pt x="525" y="498" on="1"/>
        <pt x="312" y="498" on="1"/>
      </contour>
    </TTGlyph>
    <TTGlyph name="afii10095" xMin="43" yMin="-37" xMax="970" yMax="1086">
      <component glyphName="afii10101" x="1045" y="0" scalex="-1.0" scaley="1.0" flags="0x10"/>
    </TTGlyph>
    <TTGlyph name="afii10096" xMin="137" yMin="-24" xMax="1453" yMax="1086">
      <contour>
        <pt x="137" y="1062" on="1"/>
        <pt x="317" y="1062" on="1"/>
        <pt x="317" y="618" on="1"/>
        <pt x="535" y="618" on="1"/>
        <pt x="559" y="846" on="0"/>
        <pt x="796" y="1086" on="0"/>
        <pt x="985" y="1086" on="1"/>
        <pt x="1146" y="1086" on="0"/>
        <pt x="1332" y="956" on="0"/>
        <pt x="1453" y="728" on="0"/>
        <pt x="1453" y="535" on="1"/>
        <pt x="1453" y="260" on="0"/>
        <pt x="1203" y="-24" on="0"/>
        <pt x="989" y="-24" on="1"/>
        <pt x="790" y="-24" on="0"/>
        <pt x="550" y="240" on="0"/>
        <pt x="535" y="470" on="1"/>
        <pt x="317" y="470" on="1"/>
        <pt x="317" y="0" on="1"/>
        <pt x="137" y="0" on="1"/>
      </contour>
      <contour>
        <pt x="995" y="933" on="1"/>
        <pt x="863" y="933" on="0"/>
        <pt x="716" y="730" on="0"/>
        <pt x="716" y="547" on="1"/>
        <pt x="716" y="328" on="0"/>
        <pt x="864" y="124" on="0"/>
        <pt x="988" y="124" on="1"/>
        <pt x="1111" y="124" on="0"/>
        <pt x="1268" y="313" on="0"/>
        <pt x="1268" y="523" on="1"/>
        <pt x="1268" y="728" on="0"/>
        <pt x="1132" y="933" on="0"/>
      </contour>
    </TTGlyph>
    <TTGlyph name="afii10097" xMin="31" yMin="0" xMax="971" yMax="1062">
      <contour>
        <pt x="971" y="1062" on="1"/>
        <pt x="971" y="0" on="1"/>
        <pt x="792" y="0" on="1"/>
        <pt x="792" y="414" on="1"/>
        <pt x="688" y="414" on="1"/>
        <pt x="593" y="414" on="0"/>
        <pt x="500" y="365" on="0"/>
        <pt x="411" y="232" on="1"/>
        <pt x="254" y="0" on="1"/>
        <pt x="31" y="0" on="1"/>
        <pt x="225" y="286" on="1"/>
        <pt x="314" y="417" on="0"/>
        <pt x="402" y="434" on="1"/>
        <pt x="248" y="455" on="0"/>
        <pt x="99" y="635" on="0"/>
        <pt x="99" y="752" on="1"/>
        <pt x="99" y="890" on="0"/>
        <pt x="294" y="1062" on="0"/>
        <pt x="479" y="1062" on="1"/>
      </contour>
      <contour>
        <pt x="792" y="913" on="1"/>
        <pt x="536" y="913" on="1"/>
        <pt x="375" y="913" on="0"/>
        <pt x="282" y="813" on="0"/>
        <pt x="282" y="746" on="1"/>
        <pt x="282" y="651" on="0"/>
        <pt x="419" y="562" on="0"/>
        <pt x="593" y="562" on="1"/>
        <pt x="792" y="562" on="1"/>
      </contour>
    </TTGlyph>
    <TTGlyph name="afii10098" xMin="136" yMin="0" xMax="780" yMax="1468">
      <contour>
        <pt x="631" y="1062" on="1"/>
        <pt x="631" y="1468" on="1"/>
        <pt x="780" y="1468" on="1"/>
        <pt x="780" y="913" on="1"/>
        <pt x="316" y="913" on="1"/>
        <pt x="316" y="0" on="1"/>
        <pt x="136" y="0" on="1"/>
        <pt x="136" y="1062" on="1"/>
      </contour>
    </TTGlyph>
    <TTGlyph name="afii10099" xMin="0" yMin="-431" xMax="1000" yMax="1466">
      <contour>
        <pt x="135" y="1217" on="1"/>
        <pt x="1" y="1217" on="1"/>
        <pt x="0" y="1336" on="1"/>
        <pt x="135" y="1336" on="1"/>
        <pt x="135" y="1466" on="1"/>
        <pt x="314" y="1466" on="1"/>
        <pt x="314" y="1336" on="1"/>
        <pt x="657" y="1336" on="1"/>
        <pt x="657" y="1217" on="1"/>
        <pt x="314" y="1217" on="1"/>
        <pt x="314" y="939" on="1"/>
        <pt x="375" y="1013" on="0"/>
        <pt x="536" y="1086" on="0"/>
        <pt x="635" y="1086" on="1"/>
        <pt x="810" y="1086" on="0"/>
        <pt x="1000" y="902" on="0"/>
        <pt x="1000" y="673" on="1"/>
        <pt x="1000" y="-58" on="1"/>
        <pt x="1000" y="-296" on="0"/>
        <pt x="848" y="-431" on="0"/>
        <pt x="734" y="-431" on="1"/>
        <pt x="655" y="-431" on="0"/>
        <pt x="592" y="-412" on="1"/>
        <pt x="626" y="-259" on="1"/>
        <pt x="678" y="-273" on="0"/>
        <pt x="710" y="-273" on="1"/>
        <pt x="757" y="-273" on="0"/>
        <pt x="820" y="-210" on="0"/>
        <pt x="820" y="-54" on="1"/>
        <pt x="820" y="673" on="1"/>
        <pt x="820" y="802" on="0"/>
        <pt x="707" y="931" on="0"/>
        <pt x="594" y="931" on="1"/>
        <pt x="495" y="931" on="0"/>
        <pt x="314" y="793" on="0"/>
        <pt x="314" y="581" on="1"/>
        <pt x="314" y="0" on="1"/>
        <pt x="135" y="0" on="1"/>
      </contour>
    </TTGlyph>
    <TTGlyph name="afii10100" xMin="136" yMin="0" xMax="747" yMax="1474">
      <component glyphName="afii10068" x="0" y="0" flags="0x204"/>
      <component glyphName="acute" x="120" y="0" flags="0x4"/>
    </TTGlyph>
    <TTGlyph name="afii10101" xMin="75" yMin="-37" xMax="1002" yMax="1086">
      <contour>
        <pt x="641" y="618" on="1"/>
        <pt x="641" y="470" on="1"/>
        <pt x="266" y="470" on="1"/>
        <pt x="283" y="297" on="0"/>
        <pt x="428" y="124" on="0"/>
        <pt x="557" y="124" on="1"/>
        <pt x="785" y="124" on="0"/>
        <pt x="826" y="388" on="1"/>
        <pt x="1002" y="365" on="1"/>
        <pt x="974" y="190" on="0"/>
        <pt x="739" y="-24" on="0"/>
        <pt x="549" y="-24" on="1"/>
        <pt x="323" y="-37" on="0"/>
        <pt x="75" y="276" on="0"/>
        <pt x="81" y="531" on="1"/>
        <pt x="81" y="790" on="0"/>
        <pt x="339" y="1086" on="0"/>
        <pt x="562" y="1086" on="1"/>
        <pt x="740" y="1086" on="0"/>
        <pt x="960" y="897" on="0"/>
        <pt x="984" y="748" on="1"/>
        <pt x="809" y="720" on="1"/>
        <pt x="765" y="937" on="0"/>
        <pt x="556" y="937" on="1"/>
        <pt x="436" y="937" on="0"/>
        <pt x="283" y="760" on="0"/>
        <pt x="266" y="618" on="1"/>
      </contour>
    </TTGlyph>
    <TTGlyph name="afii10102" xMin="63" yMin="-24" xMax="945" yMax="1086">
      <component glyphName="s" x="0" y="0" flags="0x204"/>
    </TTGlyph>
    <TTGlyph name="afii10103" xMin="136" yMin="0" xMax="316" yMax="1466">
      <component glyphName="i" x="0" y="0" flags="0x204"/>
    </TTGlyph>
    <TTGlyph name="afii10104" xMin="9" yMin="0" xMax="570" yMax="1475">
      <component glyphName="dotlessi" x="0" y="0" flags="0x204"/>
      <component glyphName="dieresis" x="-52" y="0" flags="0x4"/>
    </TTGlyph>
    <TTGlyph name="afii10105" xMin="-94" yMin="-431" xMax="314" yMax="1466">
      <component glyphName="j" x="0" y="0" flags="0x204"/>
    </TTGlyph>
    <TTGlyph name="afii10106" xMin="19" yMin="-6" xMax="1784" yMax="1062">
      <contour>
        <pt x="1092" y="1062" on="1"/>
        <pt x="1092" y="647" on="1"/>
        <pt x="1321" y="647" on="1"/>
        <pt x="1541" y="647" on="0"/>
        <pt x="1784" y="475" on="0"/>
        <pt x="1784" y="322" on="1"/>
        <pt x="1784" y="194" on="0"/>
        <pt x="1588" y="0" on="0"/>
        <pt x="1362" y="0" on="1"/>
        <pt x="912" y="0" on="1"/>
        <pt x="912" y="913" on="1"/>
        <pt x="413" y="913" on="1"/>
        <pt x="413" y="384" on="1"/>
        <pt x="413" y="209" on="0"/>
        <pt x="374" y="65" on="0"/>
        <pt x="263" y="-6" on="0"/>
        <pt x="159" y="-6" on="1"/>
        <pt x="130" y="-6" on="0"/>
        <pt x="19" y="0" on="1"/>
        <pt x="19" y="147" on="1"/>
        <pt x="90" y="137" on="0"/>
        <pt x="130" y="137" on="1"/>
        <pt x="193" y="137" on="0"/>
        <pt x="233" y="215" on="0"/>
        <pt x="233" y="362" on="1"/>
        <pt x="233" y="1062" on="1"/>
      </contour>
      <contour>
        <pt x="1092" y="148" on="1"/>
        <pt x="1281" y="148" on="1"/>
        <pt x="1453" y="148" on="0"/>
        <pt x="1599" y="231" on="0"/>
        <pt x="1599" y="321" on="1"/>
        <pt x="1599" y="391" on="0"/>
        <pt x="1492" y="498" on="0"/>
        <pt x="1306" y="498" on="1"/>
        <pt x="1092" y="498" on="1"/>
      </contour>
    </TTGlyph>
    <TTGlyph name="afii10107" xMin="131" yMin="0" xMax="1593" yMax="1062">
      <contour>
        <pt x="901" y="620" on="1"/>
        <pt x="1130" y="620" on="1"/>
        <pt x="1352" y="620" on="0"/>
        <pt x="1593" y="454" on="0"/>
        <pt x="1593" y="309" on="1"/>
        <pt x="1593" y="180" on="0"/>
        <pt x="1391" y="0" on="0"/>
        <pt x="1171" y="0" on="1"/>
        <pt x="721" y="0" on="1"/>
        <pt x="721" y="471" on="1"/>
        <pt x="311" y="471" on="1"/>
        <pt x="311" y="0" on="1"/>
        <pt x="131" y="0" on="1"/>
        <pt x="131" y="1062" on="1"/>
        <pt x="311" y="1062" on="1"/>
        <pt x="311" y="620" on="1"/>
        <pt x="721" y="620" on="1"/>
        <pt x="721" y="1062" on="1"/>
        <pt x="901" y="1062" on="1"/>
      </contour>
      <contour>
        <pt x="901" y="141" on="1"/>
        <pt x="1090" y="141" on="1"/>
        <pt x="1263" y="141" on="0"/>
        <pt x="1407" y="220" on="0"/>
        <pt x="1407" y="304" on="1"/>
        <pt x="1407" y="370" on="0"/>
        <pt x="1300" y="471" on="0"/>
        <pt x="1114" y="471" on="1"/>
        <pt x="901" y="471" on="1"/>
      </contour>
    </TTGlyph>
    <TTGlyph name="afii10108" xMin="0" yMin="0" xMax="1000" yMax="1466">
      <contour>
        <pt x="135" y="1336" on="1"/>
        <pt x="135" y="1466" on="1"/>
        <pt x="314" y="1466" on="1"/>
        <pt x="314" y="1336" on="1"/>
        <pt x="657" y="1336" on="1"/>
        <pt x="657" y="1217" on="1"/>
        <pt x="314" y="1217" on="1"/>
        <pt x="314" y="939" on="1"/>
        <pt x="375" y="1013" on="0"/>
        <pt x="536" y="1086" on="0"/>
        <pt x="635" y="1086" on="1"/>
        <pt x="810" y="1086" on="0"/>
        <pt x="1000" y="902" on="0"/>
        <pt x="1000" y="673" on="1"/>
        <pt x="1000" y="0" on="1"/>
        <pt x="820" y="0" on="1"/>
        <pt x="820" y="673" on="1"/>
        <pt x="820" y="802" on="0"/>
        <pt x="707" y="931" on="0"/>
        <pt x="594" y="931" on="1"/>
        <pt x="495" y="931" on="0"/>
        <pt x="314" y="793" on="0"/>
        <pt x="314" y="581" on="1"/>
        <pt x="314" y="0" on="1"/>
        <pt x="135" y="0" on="1"/>
        <pt x="135" y="1217" on="1"/>
        <pt x="1" y="1217" on="1"/>
        <pt x="0" y="1336" on="1"/>
      </contour>
    </TTGlyph>
    <TTGlyph name="afii10109" xMin="134" yMin="0" xMax="912" yMax="1474">
      <component glyphName="afii10076" x="0" y="0" flags="0x204"/>
      <component glyphName="acute" x="120" y="0" flags="0x4"/>
    </TTGlyph>
    <TTGlyph name="afii10110" xMin="33" yMin="-431" xMax="1006" yMax="1464">
      <component glyphName="y" x="0" y="0" flags="0x204"/>
      <component glyphName="breve" x="183" y="0" flags="0x4"/>
    </TTGlyph>
    <TTGlyph name="afii10145" xMin="160" yMin="-407" xMax="1313" yMax="1466">
      <contour>
        <pt x="823" y="0" on="1"/>
        <pt x="823" y="-407" on="1"/>
        <pt x="650" y="-407" on="1"/>
        <pt x="650" y="0" on="1"/>
        <pt x="160" y="0" on="1"/>
        <pt x="160" y="1466" on="1"/>
        <pt x="354" y="1466" on="1"/>
        <pt x="354" y="173" on="1"/>
        <pt x="1118" y="173" on="1"/>
        <pt x="1118" y="1466" on="1"/>
        <pt x="1313" y="1466" on="1"/>
        <pt x="1313" y="0" on="1"/>
      </contour>
    </TTGlyph>
</ttFont>
